<svg width="32" height="32" viewBox="0 0 32 32" fill="none" xmlns="http://www.w3.org/2000/svg">
<path d="M30.5 27C30.6326 27 30.7598 26.9473 30.8536 26.8535C30.9473 26.7598 31 26.6326 31 26.5C31 26.3674 30.9473 26.2402 30.8536 26.1464C30.7598 26.0527 30.6326 26 30.5 26H28.5V20.7035C29.8045 19.4105 30.5 17.9625 30.5 16.5C30.5 14.978 29.754 13.4695 28.344 12.137C28.2504 12.0503 28.1276 12.0021 28 12.0021C27.8724 12.0021 27.7496 12.0503 27.656 12.137C26.246 13.4695 25.5 14.978 25.5 16.5C25.5 17.9625 26.1955 19.4105 27.5 20.7035V26H21V24.7035C22.3045 23.4105 23 21.9625 23 20.5C23 18.978 22.254 17.4695 20.844 16.137C20.7504 16.0503 20.6276 16.0021 20.5 16.0021C20.3724 16.0021 20.2496 16.0503 20.156 16.137C18.746 17.4695 18 18.978 18 20.5C18 21.9625 18.6955 23.4105 20 24.7035V26H14V20.7035C15.3045 19.4105 16 17.9625 16 16.5C16 14.978 15.254 13.4695 13.844 12.137C13.7504 12.0503 13.6276 12.0021 13.5 12.0021C13.3724 12.0021 13.2496 12.0503 13.156 12.137C11.746 13.4695 11 14.978 11 16.5C11 17.9625 11.6955 19.4105 13 20.7035V26H9.5V24.672C10.1661 23.9052 10.5231 22.9179 10.5014 21.9023C10.4797 20.8868 10.0808 19.9157 9.3825 19.178C9.33557 19.1222 9.27701 19.0774 9.21094 19.0467C9.14487 19.0159 9.07288 19 9 19C8.92712 19 8.85513 19.0159 8.78906 19.0467C8.72299 19.0774 8.66443 19.1222 8.6175 19.178C7.91918 19.9157 7.52034 20.8868 7.49862 21.9023C7.4769 22.9179 7.83386 23.9052 8.5 24.672V26H4.5V22.7035C5.8045 21.4105 6.5 19.9625 6.5 18.5C6.5 16.978 5.754 15.4695 4.344 14.137C4.25044 14.0503 4.12757 14.0021 4 14.0021C3.87243 14.0021 3.74956 14.0503 3.656 14.137C2.246 15.4695 1.5 16.978 1.5 18.5C1.5 19.9625 2.1955 21.4105 3.5 22.7035V26H1.5C1.36739 26 1.24021 26.0527 1.14645 26.1464C1.05268 26.2402 1 26.3674 1 26.5C1 26.6326 1.05268 26.7598 1.14645 26.8535C1.24021 26.9473 1.36739 27 1.5 27H3.5V28H1.5C1.36739 28 1.24021 28.0527 1.14645 28.1464C1.05268 28.2402 1 28.3674 1 28.5C1 28.6326 1.05268 28.7598 1.14645 28.8535C1.24021 28.9473 1.36739 29 1.5 29H3.5V30H1.5C1.36739 30 1.24021 30.0527 1.14645 30.1464C1.05268 30.2402 1 30.3674 1 30.5C1 30.6326 1.05268 30.7598 1.14645 30.8535C1.24021 30.9473 1.36739 31 1.5 31H30.5C30.6326 31 30.7598 30.9473 30.8536 30.8535C30.9473 30.7598 31 30.6326 31 30.5C31 30.3674 30.9473 30.2402 30.8536 30.1464C30.7598 30.0527 30.6326 30 30.5 30H21V29H30.5C30.6326 29 30.7598 28.9473 30.8536 28.8535C30.9473 28.7598 31 28.6326 31 28.5C31 28.3674 30.9473 28.2402 30.8536 28.1464C30.7598 28.0527 30.6326 28 30.5 28H21V27H30.5ZM26.5 16.5C26.559 15.2505 27.096 14.0715 28 13.207C28.904 14.0715 29.441 15.2505 29.5 16.5C29.4693 17.4827 29.1181 18.4284 28.5 19.193V17C28.5 16.8674 28.4473 16.7402 28.3536 16.6464C28.2598 16.5527 28.1326 16.5 28 16.5C27.8674 16.5 27.7402 16.5527 27.6464 16.6464C27.5527 16.7402 27.5 16.8674 27.5 17V19.193C26.8819 18.4284 26.5307 17.4827 26.5 16.5ZM12 16.5C12.059 15.2505 12.596 14.0715 13.5 13.207C14.404 14.0715 14.941 15.2505 15 16.5C14.9693 17.4827 14.6181 18.4284 14 19.193V17C14 16.8674 13.9473 16.7402 13.8536 16.6464C13.7598 16.5527 13.6326 16.5 13.5 16.5C13.3674 16.5 13.2402 16.5527 13.1464 16.6464C13.0527 16.7402 13 16.8674 13 17V19.193C12.3819 18.4284 12.0307 17.4827 12 16.5ZM9 20.3455C9.32448 20.8363 9.49748 21.4116 9.49748 22C9.49748 22.5883 9.32448 23.1637 9 23.6545C8.67552 23.1637 8.50252 22.5883 8.50252 22C8.50252 21.4116 8.67552 20.8363 9 20.3455ZM8.5 27V28H4.5V27H8.5ZM4 17.5C3.86739 17.5 3.74021 17.5527 3.64645 17.6464C3.55268 17.7402 3.5 17.8674 3.5 18V21.193C2.88185 20.4284 2.53068 19.4827 2.5 18.5C2.55897 17.2505 3.09601 16.0715 4 15.207C4.90399 16.0715 5.44103 17.2505 5.5 18.5C5.46932 19.4827 5.11815 20.4284 4.5 21.193V18C4.5 17.8674 4.44732 17.7402 4.35355 17.6464C4.25979 17.5527 4.13261 17.5 4 17.5ZM20 30H4.5V29H20V30ZM20 28H9.5V27H20V28ZM20.5 20.5C20.3674 20.5 20.2402 20.5527 20.1464 20.6464C20.0527 20.7402 20 20.8674 20 21V23.193C19.3819 22.4284 19.0307 21.4827 19 20.5C19.059 19.2505 19.596 18.0715 20.5 17.207C21.404 18.0715 21.941 19.2505 22 20.5C21.9693 21.4827 21.6181 22.4284 21 23.193V21C21 20.8674 20.9473 20.7402 20.8536 20.6464C20.7598 20.5527 20.6326 20.5 20.5 20.5Z" fill="#003366"/>
<path d="M20.5 11C21.1922 11 21.8689 10.7947 22.4445 10.4101C23.0201 10.0256 23.4687 9.47893 23.7336 8.83939C23.9985 8.19985 24.0678 7.49612 23.9327 6.81719C23.7977 6.13825 23.4644 5.51461 22.9749 5.02513C22.4854 4.53564 21.8617 4.2023 21.1828 4.06725C20.5039 3.9322 19.8001 4.00152 19.1606 4.26642C18.5211 4.53133 17.9744 4.97993 17.5899 5.55551C17.2053 6.13108 17 6.80777 17 7.5C17.0011 8.42793 17.3701 9.31756 18.0263 9.97371C18.6824 10.6299 19.5721 10.9989 20.5 11ZM20.5 5C20.9945 5 21.4778 5.14662 21.8889 5.42133C22.3 5.69603 22.6205 6.08648 22.8097 6.54329C22.9989 7.00011 23.0484 7.50277 22.952 7.98773C22.8555 8.47268 22.6174 8.91814 22.2678 9.26777C21.9181 9.6174 21.4727 9.8555 20.9877 9.95196C20.5028 10.0484 20.0001 9.99892 19.5433 9.8097C19.0865 9.62048 18.696 9.30005 18.4213 8.88893C18.1466 8.4778 18 7.99445 18 7.5C18.0008 6.8372 18.2644 6.20178 18.7331 5.73311C19.2018 5.26444 19.8372 5.0008 20.5 5Z" fill="#003366"/>
<path d="M21 1.5C21 1.22386 20.7761 1 20.5 1C20.2239 1 20 1.22386 20 1.5V2.5C20 2.77614 20.2239 3 20.5 3C20.7761 3 21 2.77614 21 2.5V1.5Z" fill="#003366"/>
<path d="M21 12.5C21 12.2239 20.7761 12 20.5 12C20.2239 12 20 12.2239 20 12.5V13.5C20 13.7761 20.2239 14 20.5 14C20.7761 14 21 13.7761 21 13.5V12.5Z" fill="#003366"/>
<path d="M26.5 7H25.5C25.2239 7 25 7.22386 25 7.5C25 7.77614 25.2239 8 25.5 8H26.5C26.7761 8 27 7.77614 27 7.5C27 7.22386 26.7761 7 26.5 7Z" fill="#003366"/>
<path d="M15.5 7H14.5C14.2239 7 14 7.22386 14 7.5C14 7.77614 14.2239 8 14.5 8H15.5C15.7761 8 16 7.77614 16 7.5C16 7.22386 15.7761 7 15.5 7Z" fill="#003366"/>
<path d="M24.389 4.31805L25.0965 3.61105C25.1903 3.51723 25.2429 3.39001 25.2428 3.25737C25.2428 3.12474 25.1901 2.99755 25.0962 2.9038C25.0024 2.81004 24.8752 2.7574 24.7426 2.75745C24.6099 2.75749 24.4828 2.81023 24.389 2.90405L23.682 3.61105C23.5909 3.70535 23.5405 3.83165 23.5417 3.96275C23.5428 4.09385 23.5954 4.21925 23.6881 4.31196C23.7808 4.40466 23.9062 4.45725 24.0373 4.45838C24.1684 4.45952 24.2947 4.40913 24.389 4.31805Z" fill="#003366"/>
<path d="M16.611 10.6819L15.9035 11.3889C15.8571 11.4354 15.8203 11.4905 15.7951 11.5512C15.77 11.6119 15.7571 11.6769 15.7571 11.7426C15.7572 11.8083 15.7701 11.8733 15.7953 11.934C15.8204 11.9947 15.8573 12.0498 15.9038 12.0962C15.9502 12.1426 16.0053 12.1794 16.066 12.2045C16.1267 12.2297 16.1918 12.2426 16.2574 12.2425C16.3231 12.2425 16.3881 12.2296 16.4488 12.2044C16.5095 12.1793 16.5646 12.1424 16.611 12.0959L17.318 11.3889C17.3658 11.3428 17.4038 11.2876 17.43 11.2266C17.4563 11.1656 17.47 11.1 17.4706 11.0336C17.4712 10.9673 17.4586 10.9014 17.4334 10.84C17.4083 10.7785 17.3711 10.7227 17.3242 10.6757C17.2773 10.6288 17.2214 10.5917 17.16 10.5665C17.0985 10.5414 17.0327 10.5287 16.9663 10.5293C16.8999 10.5299 16.8343 10.5437 16.7733 10.5699C16.7123 10.5961 16.6571 10.6342 16.611 10.6819Z" fill="#003366"/>
<path d="M24.389 10.6819C24.3429 10.6342 24.2877 10.5961 24.2267 10.5699C24.1657 10.5437 24.1001 10.5299 24.0337 10.5293C23.9673 10.5287 23.9015 10.5414 23.84 10.5665C23.7786 10.5917 23.7228 10.6288 23.6758 10.6757C23.6289 10.7227 23.5917 10.7785 23.5666 10.84C23.5415 10.9014 23.5288 10.9673 23.5294 11.0336C23.53 11.1 23.5437 11.1656 23.57 11.2266C23.5962 11.2876 23.6342 11.3428 23.682 11.3889L24.389 12.0959C24.4354 12.1424 24.4905 12.1793 24.5512 12.2044C24.6119 12.2296 24.6769 12.2425 24.7426 12.2425C24.8082 12.2426 24.8733 12.2297 24.934 12.2045C24.9947 12.1794 25.0498 12.1426 25.0963 12.0962C25.1427 12.0498 25.1796 11.9947 25.2047 11.934C25.2299 11.8733 25.2428 11.8083 25.2429 11.7426C25.2429 11.6769 25.23 11.6119 25.2049 11.5512C25.1797 11.4905 25.1429 11.4354 25.0965 11.3889L24.389 10.6819Z" fill="#003366"/>
<path d="M16.611 4.31805C16.6571 4.3658 16.7123 4.40389 16.7733 4.4301C16.8343 4.4563 16.8999 4.4701 16.9663 4.47067C17.0327 4.47125 17.0985 4.4586 17.16 4.43346C17.2214 4.40832 17.2773 4.37119 17.3242 4.32424C17.3711 4.2773 17.4083 4.22147 17.4334 4.16002C17.4586 4.09858 17.4712 4.03274 17.4706 3.96635C17.47 3.89996 17.4563 3.83435 17.43 3.77335C17.4038 3.71234 17.3658 3.65717 17.318 3.61105L16.611 2.90405C16.5172 2.81023 16.3901 2.75749 16.2574 2.75745C16.1248 2.7574 15.9976 2.81004 15.9038 2.9038C15.8099 2.99755 15.7572 3.12474 15.7571 3.25737C15.7571 3.39001 15.8097 3.51723 15.9035 3.61105L16.611 4.31805Z" fill="#003366"/>
</svg>
