<svg width="215" height="45" viewBox="0 0 215 45" fill="none" xmlns="http://www.w3.org/2000/svg">
<path d="M64.776 12.624L62.28 12.208V10.224H67.048C67.7733 10.224 68.712 10.1813 69.864 10.096C70.1413 10.0747 70.472 10.0533 70.856 10.032C71.24 10.0107 71.688 10 72.2 10C75.4213 10 77.672 10.4587 78.952 11.376C80.2533 12.272 80.904 13.616 80.904 15.408C80.904 16.9867 80.424 18.3093 79.464 19.376C78.5253 20.4213 77.288 21.0613 75.752 21.296C77.864 21.2747 79.5173 21.7547 80.712 22.736C81.928 23.7173 82.536 25.0827 82.536 26.832C82.536 29.0507 81.7573 30.832 80.2 32.176C78.6427 33.52 76.04 34.192 72.392 34.192C71.432 34.192 70.5467 34.16 69.736 34.096C69.5227 34.096 69.16 34.0747 68.648 34.032C68.136 34.0107 67.6133 34 67.08 34H62.248V32.08L64.776 31.76V12.624ZM69.416 20.592C69.6507 20.6133 70.1307 20.624 70.856 20.624H72.36C73.6613 20.624 74.632 20.2187 75.272 19.408C75.912 18.5973 76.232 17.456 76.232 15.984C76.232 14.576 75.9013 13.552 75.24 12.912C74.5787 12.272 73.48 11.952 71.944 11.952C71.5387 11.952 70.696 11.9947 69.416 12.08V20.592ZM69.416 31.888C69.9067 32.08 70.8453 32.176 72.232 32.176C74.0453 32.176 75.3573 31.7493 76.168 30.896C76.9787 30.0427 77.384 28.8053 77.384 27.184C77.384 25.6267 77.0107 24.5173 76.264 23.856C75.5387 23.1733 74.376 22.832 72.776 22.832C70.984 22.832 69.864 22.8533 69.416 22.896V31.888ZM85.0025 32.112L87.1145 31.856V19.248L85.0665 18.672V16.464L90.0265 15.792H90.1225L90.9225 16.432V17.136L90.8265 19.728H90.9225C91.0718 19.3013 91.4238 18.7787 91.9785 18.16C92.5332 17.52 93.2265 16.9653 94.0585 16.496C94.9118 16.0053 95.8292 15.76 96.8105 15.76C97.2798 15.76 97.6852 15.824 98.0265 15.952V20.752C97.3865 20.304 96.6078 20.08 95.6905 20.08C94.1332 20.08 92.7785 20.496 91.6265 21.328V31.824L95.3385 32.112V34H85.0025V32.112ZM103.873 13.296C103.105 13.296 102.497 13.072 102.049 12.624C101.601 12.176 101.377 11.6 101.377 10.896C101.377 10.0853 101.633 9.41333 102.145 8.88C102.657 8.34667 103.34 8.08 104.193 8.08C105.046 8.08 105.697 8.31466 106.145 8.784C106.593 9.232 106.817 9.79733 106.817 10.48C106.817 11.3333 106.561 12.016 106.049 12.528C105.537 13.04 104.822 13.296 103.905 13.296H103.873ZM102.177 19.248L99.905 18.64V16.496L105.761 15.792H105.825L106.721 16.432V31.824L108.865 32.08V34H99.937V32.08L102.177 31.792V19.248ZM117.847 34.352C116.524 34.352 115.34 34.0427 114.295 33.424C113.249 32.784 112.417 31.8027 111.799 30.48C111.18 29.1573 110.871 27.504 110.871 25.52C110.871 23.728 111.233 22.096 111.959 20.624C112.705 19.1307 113.793 17.9467 115.223 17.072C116.652 16.1973 118.369 15.76 120.375 15.76C121.185 15.76 121.953 15.8453 122.679 16.016V10.608L119.543 10.16V8.4L126.135 7.76H126.231L127.127 8.432V32.048H128.855V33.872C127.319 34.192 126.049 34.352 125.047 34.352C124.364 34.352 123.873 34.2347 123.575 34C123.297 33.7867 123.159 33.3493 123.159 32.688V31.792C122.604 32.5387 121.847 33.1573 120.887 33.648C119.927 34.1173 118.913 34.352 117.847 34.352ZM119.511 31.696C120.215 31.696 120.833 31.5573 121.367 31.28C121.921 30.9813 122.359 30.6293 122.679 30.224V18.576C122.529 18.3627 122.209 18.1813 121.719 18.032C121.249 17.8827 120.737 17.808 120.183 17.808C118.817 17.808 117.719 18.4053 116.887 19.6C116.076 20.7733 115.671 22.6613 115.671 25.264C115.671 27.44 116.023 29.0613 116.727 30.128C117.431 31.1733 118.359 31.696 119.511 31.696ZM138.934 42.64C136.075 42.64 134.006 42.192 132.726 41.296C131.446 40.4 130.806 39.184 130.806 37.648C130.806 36.7733 131.094 35.9413 131.67 35.152C132.267 34.384 132.982 33.808 133.814 33.424C132.833 32.848 132.342 31.9307 132.342 30.672C132.342 29.9467 132.577 29.264 133.046 28.624C133.515 27.9627 134.123 27.4507 134.87 27.088C133.697 26.64 132.822 25.9573 132.246 25.04C131.67 24.1227 131.382 23.0347 131.382 21.776C131.382 20.56 131.734 19.504 132.438 18.608C133.163 17.6907 134.123 16.9867 135.318 16.496C136.534 16.0053 137.846 15.76 139.254 15.76C141.75 15.76 143.606 16.24 144.822 17.2C145.099 16.8373 145.569 16.496 146.23 16.176C146.891 15.856 147.574 15.696 148.278 15.696H149.398V19.184H146.102C146.422 19.8667 146.582 20.592 146.582 21.36C146.603 23.3013 145.921 24.8587 144.534 26.032C143.147 27.184 141.249 27.76 138.838 27.76C137.835 27.76 136.993 27.6853 136.31 27.536C136.097 27.8133 135.926 28.112 135.798 28.432C135.691 28.7307 135.638 28.9973 135.638 29.232C135.638 29.936 135.883 30.416 136.374 30.672C136.886 30.928 137.793 31.056 139.094 31.056H142.518C146.87 31.056 149.046 32.6347 149.046 35.792C149.046 37.1147 148.577 38.2987 147.638 39.344C146.699 40.3893 145.451 41.2 143.894 41.776C142.337 42.352 140.683 42.64 138.934 42.64ZM139.158 25.776C141.142 25.776 142.134 24.4213 142.134 21.712C142.134 20.3253 141.878 19.312 141.366 18.672C140.875 18.0107 140.118 17.68 139.094 17.68C138.091 17.68 137.313 18.0107 136.758 18.672C136.225 19.312 135.958 20.2827 135.958 21.584C135.958 24.3787 137.025 25.776 139.158 25.776ZM139.414 40.432C140.758 40.432 141.921 40.1013 142.902 39.44C143.883 38.8 144.374 37.904 144.374 36.752C144.374 35.8347 144.129 35.1733 143.638 34.768C143.169 34.3627 142.315 34.16 141.078 34.16H137.59C137.057 34.16 136.566 34.128 136.118 34.064C135.542 34.832 135.254 35.7493 135.254 36.816C135.254 37.9893 135.574 38.8853 136.214 39.504C136.854 40.1227 137.921 40.432 139.414 40.432ZM159.16 34.352C156.344 34.352 154.243 33.5307 152.856 31.888C151.491 30.224 150.808 27.9627 150.808 25.104C150.808 23.184 151.16 21.52 151.864 20.112C152.59 18.704 153.603 17.6267 154.904 16.88C156.206 16.1333 157.71 15.76 159.416 15.76C161.55 15.76 163.192 16.3253 164.344 17.456C165.496 18.5653 166.094 20.1547 166.136 22.224C166.136 23.632 166.051 24.6773 165.88 25.36H155.48C155.566 27.3013 156.024 28.816 156.856 29.904C157.688 30.9707 158.872 31.504 160.408 31.504C161.24 31.504 162.094 31.3653 162.968 31.088C163.864 30.8107 164.568 30.48 165.08 30.096L165.88 31.856C165.304 32.4747 164.366 33.0507 163.064 33.584C161.784 34.096 160.483 34.352 159.16 34.352ZM161.656 23.44C161.699 22.8427 161.72 22.384 161.72 22.064C161.72 19.2267 160.771 17.808 158.872 17.808C157.827 17.808 157.016 18.224 156.44 19.056C155.864 19.888 155.544 21.3493 155.48 23.44H161.656ZM172.498 13.296C171.73 13.296 171.122 13.072 170.674 12.624C170.226 12.176 170.002 11.6 170.002 10.896C170.002 10.0853 170.258 9.41333 170.77 8.88C171.282 8.34667 171.965 8.08 172.818 8.08C173.671 8.08 174.322 8.31466 174.77 8.784C175.218 9.232 175.442 9.79733 175.442 10.48C175.442 11.3333 175.186 12.016 174.674 12.528C174.162 13.04 173.447 13.296 172.53 13.296H172.498ZM170.802 19.248L168.53 18.64V16.496L174.386 15.792H174.45L175.346 16.432V31.824L177.49 32.08V34H168.562V32.08L170.802 31.792V19.248ZM181.992 18.704H179.304V16.912L181.992 16.272V14.864C181.992 13.4773 182.354 12.208 183.08 11.056C183.826 9.904 184.818 8.99733 186.056 8.336C187.293 7.65333 188.605 7.312 189.992 7.312C190.717 7.312 191.4 7.41866 192.04 7.632V11.728C191.826 11.5147 191.4 11.3013 190.76 11.088C190.141 10.8747 189.49 10.768 188.808 10.768C187.976 10.768 187.378 10.9813 187.016 11.408C186.674 11.8133 186.504 12.5173 186.504 13.52V16.24H190.568V18.704H186.504V31.824L189.864 32.08V34H179.464V32.08L181.992 31.792V18.704ZM195.694 41.968C195.31 41.968 194.894 41.936 194.446 41.872C194.02 41.808 193.71 41.7333 193.518 41.648V38.224C193.668 38.3093 193.966 38.3947 194.414 38.48C194.862 38.5653 195.268 38.608 195.63 38.608C196.697 38.608 197.572 38.256 198.254 37.552C198.958 36.848 199.609 35.664 200.206 34H198.478L192.462 18.48L191.022 18.064V16.208H199.822V18.064L197.486 18.448L200.334 27.312L201.486 31.088L202.478 27.312L205.102 18.448L203.086 18.064V16.208H210.03V18.064L208.462 18.448C207.289 22.032 206.126 25.488 204.974 28.816C203.822 32.144 203.15 34.0107 202.958 34.416C202.276 36.208 201.625 37.6373 201.006 38.704C200.388 39.7707 199.652 40.5813 198.798 41.136C197.945 41.6907 196.91 41.968 195.694 41.968Z" fill="#003366"/>
<path d="M16.6526 11.8744V20.7429L13.2152 24.1508L12.9726 23.9102L11.1356 22.092V11.8744C11.1356 10.6836 11.9036 9.67255 12.9726 9.29491C13.2613 9.19441 13.5716 9.13959 13.8941 9.13959C14.6559 9.13959 15.344 9.44414 15.8447 9.94055C16.3454 10.437 16.6526 11.1192 16.6526 11.8744Z" fill="#003366"/>
<path d="M15.7126 31.5786L16.6526 30.6466V39.2197C16.6526 40.7302 15.4177 41.9545 13.8941 41.9545C13.5716 41.9545 13.2613 41.8997 12.9726 41.7961C11.9036 41.4215 11.1356 40.4105 11.1356 39.2197V31.9349C11.6701 32.3247 12.3029 32.5531 12.9726 32.5958C13.0524 32.6018 13.1323 32.6049 13.2152 32.6049C14.1583 32.6049 15.043 32.2425 15.7126 31.5786Z" fill="#003366"/>
<path d="M12.9726 9.29482V23.9101L11.1356 22.0919V11.8743C11.1356 10.6836 11.9036 9.67245 12.9726 9.29482Z" fill="#D1E1F2"/>
<path d="M11.1356 31.9349C11.6701 32.3247 12.3029 32.5531 12.9726 32.5958V41.7962C11.9036 41.4216 11.1356 40.4105 11.1356 39.2197V31.9349Z" fill="#D1E1F2"/>
<path d="M21.3462 25.993L25.0262 22.3445V42.265C25.0262 43.7755 23.7913 44.9998 22.2677 44.9998C21.9452 44.9998 21.6349 44.945 21.3462 44.8414C20.2772 44.4668 19.5092 43.4557 19.5092 42.265V27.8142L21.3462 25.993Z" fill="#003366"/>
<path d="M25.0262 2.73484V12.7666C24.6361 12.9372 24.2767 13.1808 23.9695 13.4854L19.5092 17.9074V2.73484C19.5092 1.54406 20.2772 0.532957 21.3462 0.155318C21.6349 0.0548169 21.9452 0 22.2677 0C23.0295 0 23.7176 0.304549 24.2183 0.800963C24.719 1.29738 25.0262 1.97956 25.0262 2.73484Z" fill="#003366"/>
<path d="M21.3462 0.155518V16.0864L19.5092 17.9076V2.73504C19.5092 1.54426 20.2772 0.533157 21.3462 0.155518Z" fill="#D1E1F2"/>
<path d="M19.5092 27.8145L21.3462 25.9933V44.8417C20.2772 44.4671 19.5092 43.4561 19.5092 42.2653V27.8145Z" fill="#D1E1F2"/>
<path d="M33.403 5.78329V16.9419L32.9269 17.414L28.9673 13.4883C28.6509 13.1747 28.2854 12.928 27.886 12.7574V5.78329C27.886 4.59251 28.654 3.58141 29.723 3.20377C30.0117 3.10327 30.322 3.04845 30.6445 3.04845C31.4063 3.04845 32.0944 3.353 32.5951 3.84941C33.0958 4.34582 33.403 5.02801 33.403 5.78329Z" fill="#003366"/>
<path d="M32.9269 25.8683C33.0866 25.8683 33.2463 25.8591 33.403 25.8378V33.1287C33.403 34.6392 32.1681 35.8635 30.6445 35.8635C30.322 35.8635 30.0117 35.8087 29.723 35.7052C28.654 35.3306 27.886 34.3195 27.886 33.1287V22.3233L29.723 24.1415L30.4295 24.8419C31.0961 25.5058 31.9838 25.8683 32.9269 25.8683Z" fill="#003366"/>
<path d="M29.723 3.20381V14.2376L28.9673 13.4884C28.6509 13.1747 28.2854 12.928 27.886 12.7575V5.78333C27.886 4.59255 28.654 3.58145 29.723 3.20381Z" fill="#D1E1F2"/>
<path d="M27.886 22.3233L29.723 24.1415V35.7052C28.654 35.3306 27.886 34.3195 27.886 33.1287V22.3233Z" fill="#D1E1F2"/>
<path d="M44.9957 11.7259C44.9939 11.6632 44.9874 11.6007 44.9767 11.5383C44.9727 11.5149 44.9699 11.4914 44.9647 11.4683C44.9475 11.3924 44.9254 11.3169 44.8946 11.2435C44.8943 11.2426 44.8937 11.242 44.8934 11.2411C44.8873 11.227 44.879 11.2143 44.8725 11.2002C44.8449 11.1399 44.8135 11.0824 44.7782 11.0279C44.7641 11.006 44.7484 10.9855 44.7328 10.9642C44.699 10.9182 44.663 10.875 44.6243 10.8339C44.6071 10.8159 44.5908 10.7976 44.5727 10.7806C44.5208 10.7312 44.4655 10.6856 44.4068 10.6448C44.4001 10.6399 44.3942 10.6341 44.3872 10.6295C44.3217 10.586 44.2517 10.5497 44.1795 10.5178C44.1565 10.5074 44.1325 10.4995 44.1086 10.4903C44.0542 10.4696 43.9986 10.4526 43.9415 10.4389C43.9166 10.4328 43.8917 10.4264 43.8662 10.4218C43.7848 10.4069 43.7022 10.3969 43.6174 10.3969H37.0803C36.3169 10.3969 35.698 11.0105 35.698 11.7673C35.698 12.5241 36.3169 13.1378 37.0803 13.1378H40.2805L32.9269 20.429L27.4449 14.994C26.9049 14.4586 26.0301 14.4586 25.4901 14.994L13.2139 27.165L8.40008 22.3927C7.86005 21.8573 6.9852 21.8573 6.44518 22.3927L0.404787 28.3813C-0.134929 28.9164 -0.134929 29.7844 0.404787 30.3192C0.674798 30.5869 1.02836 30.7206 1.38223 30.7206C1.73611 30.7206 2.08967 30.5869 2.35968 30.3192L7.42263 25.2999L12.2365 30.0722C12.7765 30.6076 13.6513 30.6076 14.1913 30.0722L26.4675 17.9012L31.9494 23.3362C32.4892 23.8716 33.3643 23.8716 33.9043 23.3362L42.2354 15.0765V17.9536C42.2354 18.7104 42.8543 19.3241 43.6177 19.3241C44.381 19.3241 45 18.7104 45 17.9536V11.7679C45 11.7536 44.9963 11.7402 44.9957 11.7259Z" fill="#003366"/>
</svg>
