<svg width="32" height="32" viewBox="0 0 32 32" fill="none" xmlns="http://www.w3.org/2000/svg">
<path fill-rule="evenodd" clip-rule="evenodd" d="M10.768 9.68003L10.8947 9.7907L22.2094 21.104C22.3577 21.2522 22.4689 21.4332 22.5342 21.6324C22.5994 21.8316 22.6167 22.0434 22.5848 22.2506C22.5528 22.4577 22.4725 22.6544 22.3503 22.8247C22.2281 22.995 22.0674 23.1341 21.8814 23.2307L21.7267 23.2974L7.88003 28.4C5.27737 29.36 2.7427 26.9134 3.53337 24.3147L3.60003 24.12L8.70137 10.2734C8.76881 10.0899 8.87575 9.92359 9.01461 9.78608C9.15348 9.64857 9.32087 9.54327 9.50494 9.47763C9.68902 9.41199 9.88527 9.38761 10.0798 9.40623C10.2743 9.42485 10.4624 9.486 10.6307 9.58537L10.768 9.68003ZM10.4827 13.1494L6.1027 25.0427C6.06198 25.1534 6.05133 25.2728 6.07185 25.3889C6.09236 25.505 6.14331 25.6136 6.21948 25.7036C6.29565 25.7936 6.39434 25.8618 6.50546 25.9012C6.61658 25.9407 6.73617 25.9499 6.85203 25.928L6.9587 25.8974L18.8494 21.516L10.4827 13.1494ZM22.8094 15.472C24.024 15.536 25.6894 15.792 27.1374 16.6614C27.4309 16.8354 27.6466 17.1154 27.7399 17.4436C27.8332 17.7719 27.7972 18.1234 27.6391 18.4258C27.481 18.7283 27.213 18.9586 26.8903 19.0694C26.5675 19.1802 26.2145 19.163 25.904 19.0214L25.7654 18.948C24.856 18.4014 23.6934 18.188 22.6694 18.1347C22.2474 18.1114 21.8244 18.1132 21.4027 18.14L20.9814 18.1814C20.6336 18.2263 20.2821 18.1323 20.003 17.9198C19.724 17.7074 19.5399 17.3936 19.4906 17.0463C19.4413 16.6991 19.5308 16.3465 19.7397 16.0648C19.9487 15.7831 20.2601 15.595 20.6067 15.5414C21.337 15.4471 22.0746 15.4235 22.8094 15.4707M25.5094 11.756C25.8491 11.7567 26.1757 11.8871 26.4226 12.1205C26.6695 12.3539 26.8179 12.6727 26.8377 13.0119C26.8574 13.351 26.7469 13.6849 26.5288 13.9454C26.3107 14.2059 26.0014 14.3732 25.664 14.4134L25.5094 14.4227H24.5654C24.2256 14.422 23.899 14.2916 23.6521 14.0582C23.4053 13.8248 23.2568 13.506 23.2371 13.1668C23.2173 12.8277 23.3278 12.4938 23.5459 12.2333C23.764 11.9729 24.0734 11.8055 24.4107 11.7654L24.5654 11.756H25.5094ZM21.2667 10.7334C21.4963 10.963 21.6342 11.2684 21.6546 11.5925C21.6749 11.9165 21.5764 12.2368 21.3774 12.4934L21.2667 12.6187L19.8534 14.0334C19.614 14.275 19.2913 14.4161 18.9513 14.4276C18.6113 14.4391 18.2798 14.3203 18.0246 14.0954C17.7694 13.8705 17.6098 13.5566 17.5784 13.2179C17.5471 12.8791 17.6464 12.5413 17.856 12.2734L17.9667 12.148L19.38 10.7347C19.5039 10.6107 19.6509 10.5124 19.8128 10.4453C19.9746 10.3782 20.1481 10.3437 20.3234 10.3437C20.4986 10.3437 20.6721 10.3782 20.834 10.4453C20.9958 10.5124 21.1429 10.6094 21.2667 10.7334ZM17.8174 3.71337C18.4147 5.50803 18.0947 7.47337 17.7214 8.8467C17.4979 9.70319 17.1897 10.5353 16.8014 11.3307C16.6435 11.6472 16.3663 11.888 16.0309 12.0001C15.6954 12.1123 15.3292 12.0866 15.0127 11.9287C14.6962 11.7708 14.4554 11.4937 14.3433 11.1582C14.2311 10.8228 14.2568 10.4565 14.4147 10.14C14.7249 9.50121 14.9706 8.83301 15.148 8.14537C15.4507 7.03603 15.6027 5.83203 15.3694 4.84537L15.288 4.55737C15.2299 4.39062 15.2055 4.21399 15.2162 4.03773C15.2269 3.86148 15.2726 3.6891 15.3504 3.53062C15.4283 3.37213 15.5369 3.2307 15.6699 3.11452C15.8028 2.99834 15.9576 2.90973 16.1251 2.85383C16.2926 2.79794 16.4695 2.77588 16.6456 2.78892C16.8217 2.80197 16.9935 2.84986 17.1509 2.92983C17.3083 3.00979 17.4483 3.12023 17.5627 3.25474C17.6771 3.38925 17.7637 3.54514 17.8174 3.71337ZM25.0374 6.96403C25.2873 7.21407 25.4277 7.55315 25.4277 7.9067C25.4277 8.26025 25.2873 8.59933 25.0374 8.84937L24.0947 9.79203C23.9717 9.91938 23.8246 10.021 23.6619 10.0908C23.4992 10.1607 23.3243 10.1975 23.1472 10.199C22.9702 10.2006 22.7946 10.1668 22.6308 10.0998C22.4669 10.0328 22.318 9.93375 22.1928 9.80856C22.0677 9.68337 21.9686 9.5345 21.9016 9.37064C21.8346 9.20678 21.8008 9.0312 21.8024 8.85417C21.8039 8.67713 21.8407 8.50217 21.9106 8.33949C21.9804 8.17682 22.082 8.0297 22.2094 7.9067L23.152 6.96403C23.4021 6.71407 23.7411 6.57365 24.0947 6.57365C24.4483 6.57365 24.7873 6.71407 25.0374 6.96403Z" fill="white"/>
</svg>
