<svg width="32" height="32" viewBox="0 0 32 32" fill="none" xmlns="http://www.w3.org/2000/svg">
<g clip-path="url(#clip0_70_966)">
<path d="M16 10.5C12.7 10.5 10 13.2 10 16.5C10 19.8 12.7 22.5 16 22.5C19.3 22.5 22 19.8 22 16.5C22 13.2 19.3 10.5 16 10.5ZM16 20.5C13.8 20.5 12 18.7 12 16.5C12 14.3 13.8 12.5 16 12.5C18.2 12.5 20 14.3 20 16.5C20 18.7 18.2 20.5 16 20.5Z" fill="#003366"/>
<path d="M15.9999 25.2C12.2749 25.2 8.69985 26.75 6.14985 29.475L5.47485 30.2L6.92485 31.575L7.59985 30.85C9.79985 28.5 12.7749 27.2 15.9999 27.2C19.2249 27.2 22.1999 28.5 24.3999 30.85L25.0749 31.575L26.5249 30.2L25.8499 29.475C23.2999 26.775 19.7249 25.2 15.9999 25.2Z" fill="#003366"/>
<path d="M24.25 11.975V13.975C26.6 13.975 28.775 14.925 30.4 16.65L31.85 15.275C29.9 13.175 27.125 11.975 24.25 11.975Z" fill="#003366"/>
<path d="M29.0249 4.99998C29.0249 2.37498 26.8749 0.224976 24.2499 0.224976C21.6249 0.224976 19.4749 2.37498 19.4749 4.99998C19.4749 7.62498 21.6249 9.77497 24.2499 9.77497C26.8749 9.77497 29.0249 7.62498 29.0249 4.99998ZM21.4749 4.99998C21.4749 3.47498 22.7249 2.22498 24.2499 2.22498C25.7749 2.22498 27.0249 3.47498 27.0249 4.99998C27.0249 6.52498 25.7749 7.77498 24.2499 7.77498C22.7249 7.77498 21.4749 6.52498 21.4749 4.99998Z" fill="#003366"/>
<path d="M7.7499 11.975C4.8749 11.975 2.0999 13.175 0.149902 15.275L1.5999 16.65C3.1999 14.925 5.3999 13.975 7.7499 13.975V11.975Z" fill="#003366"/>
<path d="M12.5249 4.99998C12.5249 2.37498 10.3749 0.224976 7.74985 0.224976C5.12485 0.224976 2.97485 2.37498 2.97485 4.99998C2.97485 7.62498 5.12485 9.77497 7.74985 9.77497C10.3749 9.77497 12.5249 7.62498 12.5249 4.99998ZM7.74985 7.77498C6.22485 7.77498 4.97485 6.52498 4.97485 4.99998C4.97485 3.47498 6.22485 2.22498 7.74985 2.22498C9.27485 2.22498 10.5249 3.47498 10.5249 4.99998C10.5249 6.52498 9.27485 7.77498 7.74985 7.77498Z" fill="#003366"/>
</g>
<defs>
<clipPath id="clip0_70_966">
<rect width="32" height="32" fill="white"/>
</clipPath>
</defs>
</svg>
