<svg width="24" height="24" viewBox="0 0 24 24" fill="none" xmlns="http://www.w3.org/2000/svg">
<mask id="mask0_70_986" style="mask-type:luminance" maskUnits="userSpaceOnUse" x="0" y="0" width="24" height="24">
<path d="M23.826 0.17395H0.173828V23.8261H23.826V0.17395Z" fill="white"/>
</mask>
<g mask="url(#mask0_70_986)">
<path d="M14.7824 15.4783H13.3911V17.5513H14.7824V15.4783Z" fill="#003366"/>
<path d="M23.2694 8.52181C23.0736 8.3096 22.8374 8.13873 22.5745 8.01925C22.3117 7.89978 22.0276 7.83412 21.739 7.82616V3.65224H18.9564V1.56529H14.7825V2.26094H11.9999V5.98268C11.6237 5.44446 11.1152 5.0123 10.5234 4.72792C9.93159 4.44354 9.27644 4.31655 8.62122 4.3592C7.966 4.40186 7.33285 4.61272 6.78288 4.97143C6.23292 5.33015 5.78474 5.82459 5.48159 6.40702L5.1129 3.28355L1.29376 0.320068L0.445068 1.4192L3.79811 4.02094C4.10884 7.37398 4.4242 10.7293 4.7442 14.087H6.1355L6.03116 12.6957H16.8694V11.3044H5.93376L5.73898 9.21746H21.6972C21.7963 9.21125 21.8955 9.2263 21.9883 9.26161C22.081 9.29692 22.1651 9.35166 22.235 9.42216C22.3048 9.49267 22.3588 9.5773 22.3932 9.67038C22.4277 9.76345 22.4418 9.86282 22.4346 9.96181L22.3303 11.3044H18.2607V12.6957H22.2259L21.739 19.7009C21.7265 19.8843 21.6419 20.0553 21.5037 20.1765C21.3656 20.2977 21.185 20.3594 21.0016 20.3479H7.29724C7.11379 20.3594 6.93327 20.2977 6.7951 20.1765C6.65694 20.0553 6.57236 19.8843 6.55985 19.7009L6.43463 18.2609H5.04333L5.16159 19.8053C5.20808 20.3289 5.44729 20.8166 5.83287 21.1739C6.21844 21.5312 6.72292 21.7326 7.24855 21.7392H9.11985C9.08474 21.9925 9.10291 22.2504 9.17322 22.4963C9.24352 22.7421 9.3644 22.9706 9.52812 23.1671C9.69184 23.3636 9.89479 23.5237 10.124 23.6371C10.3531 23.7506 10.6035 23.815 10.859 23.8262C11.1142 23.8151 11.3644 23.7508 11.5932 23.6372C11.8221 23.5236 12.0247 23.3634 12.1878 23.1668C12.351 22.9702 12.4712 22.7416 12.5407 22.4957C12.6101 22.2498 12.6273 21.9921 12.5912 21.7392H15.5755C15.5298 21.9936 15.5405 22.255 15.6068 22.5048C15.6731 22.7546 15.7934 22.9869 15.9593 23.1852C16.1251 23.3835 16.3324 23.5429 16.5666 23.6524C16.8008 23.7618 17.0561 23.8185 17.3146 23.8185C17.5731 23.8185 17.8285 23.7618 18.0627 23.6524C18.2968 23.5429 18.5042 23.3835 18.67 23.1852C18.8358 22.9869 18.9562 22.7546 19.0225 22.5048C19.0888 22.255 19.0995 21.9936 19.0538 21.7392H20.9251C21.4507 21.7326 21.9552 21.5312 22.3407 21.1739C22.7263 20.8166 22.9655 20.3289 23.012 19.8053L23.7077 10.0662C23.7629 9.51441 23.6062 8.9623 23.2694 8.52181ZM6.43463 7.82616C6.43463 7.18041 6.69115 6.56111 7.14776 6.1045C7.60438 5.64789 8.22367 5.39137 8.86942 5.39137C9.51516 5.39137 10.1345 5.64789 10.5911 6.1045C11.0477 6.56111 11.3042 7.18041 11.3042 7.82616H6.43463ZM14.7825 7.82616H13.3912V3.65224H14.7825V7.82616ZM17.5651 7.82616H16.1738V2.95659H17.5651V7.82616ZM20.3477 7.82616H18.9564V5.04355H20.3477V7.82616ZM10.9077 22.4349C10.8154 22.4349 10.727 22.3982 10.6617 22.333C10.5965 22.2677 10.5599 22.1793 10.5599 22.087C10.5599 21.9948 10.5965 21.9063 10.6617 21.8411C10.727 21.7758 10.8154 21.7392 10.9077 21.7392C10.9999 21.7392 11.0884 21.7758 11.1536 21.8411C11.2189 21.9063 11.2555 21.9948 11.2555 22.087C11.2555 22.1793 11.2189 22.2677 11.1536 22.333C11.0884 22.3982 10.9999 22.4349 10.9077 22.4349ZM17.3564 22.4349C17.2641 22.4349 17.1757 22.3982 17.1104 22.333C17.0452 22.2677 17.0085 22.1793 17.0085 22.087C17.0085 21.9948 17.0452 21.9063 17.1104 21.8411C17.1757 21.7758 17.2641 21.7392 17.3564 21.7392C17.4486 21.7392 17.5371 21.7758 17.6023 21.8411C17.6676 21.9063 17.7042 21.9948 17.7042 22.087C17.7042 22.1793 17.6676 22.2677 17.6023 22.333C17.5371 22.3982 17.4486 22.4349 17.3564 22.4349Z" fill="#003366"/>
<path d="M6.35124 16.8696H4.95298L4.84863 15.4783H6.24689L6.35124 16.8696Z" fill="#003366"/>
</g>
</svg>
