<svg width="32" height="28" viewBox="0 0 32 28" fill="none" xmlns="http://www.w3.org/2000/svg">
<g clip-path="url(#clip0_70_977)">
<path d="M24.9636 18.1825C24.4351 17.9525 23.8832 17.7813 23.3177 17.6718C22.9356 17.5819 22.5599 17.4666 22.193 17.3267C21.9744 17.2499 21.777 17.1222 21.6169 16.954C21.4939 16.808 21.4302 16.6207 21.4386 16.4295C21.431 16.2909 21.4601 16.1528 21.5227 16.0292C21.5853 15.9055 21.6793 15.8008 21.7952 15.7255C22.0931 15.5471 22.4365 15.4607 22.7828 15.477C23.12 15.4645 23.4535 15.5508 23.7429 15.7255C23.8577 15.7909 23.9574 15.8801 24.0354 15.9872C24.1135 16.0943 24.168 16.2168 24.1955 16.3467C24.2215 16.4118 24.2674 16.467 24.3266 16.5042C24.3857 16.5414 24.4551 16.5588 24.5247 16.5537H25.6083C25.6412 16.5557 25.6742 16.5507 25.7051 16.5389C25.736 16.5271 25.764 16.5089 25.7873 16.4854C25.8107 16.4619 25.8288 16.4337 25.8405 16.4027C25.8522 16.3716 25.8572 16.3384 25.8552 16.3052C25.8297 15.9943 25.7258 15.695 25.5534 15.4356C25.3452 15.116 25.0688 14.8472 24.7442 14.6488C24.3556 14.4107 23.9204 14.26 23.4686 14.2071V13.3927C23.4705 13.3559 23.4648 13.3191 23.4517 13.2847C23.4386 13.2503 23.4185 13.2191 23.3926 13.193C23.3667 13.167 23.3357 13.1467 23.3015 13.1335C23.2673 13.1204 23.2308 13.1146 23.1942 13.1166H22.481C22.4106 13.1139 22.3418 13.1386 22.289 13.1856C22.261 13.2119 22.2391 13.2441 22.2249 13.2799C22.2106 13.3157 22.2044 13.3542 22.2067 13.3927V14.1933C21.5501 14.2443 20.9284 14.5111 20.4373 14.9525C20.2294 15.1454 20.0644 15.3805 19.9533 15.6422C19.8422 15.9039 19.7874 16.1863 19.7926 16.4709C19.7752 16.7557 19.8231 17.0407 19.9325 17.304C20.0419 17.5672 20.2099 17.8017 20.4236 17.9893C21.0101 18.4196 21.685 18.712 22.3987 18.8451C22.9382 18.9924 23.3497 19.1166 23.6332 19.2178C23.8665 19.2908 24.0816 19.4132 24.2641 19.5767C24.3325 19.6452 24.386 19.7271 24.4215 19.8173C24.4569 19.9076 24.4733 20.0043 24.4699 20.1013C24.4734 20.2511 24.4371 20.3992 24.3648 20.5303C24.2925 20.6613 24.1867 20.7705 24.0584 20.8467C23.6952 21.0522 23.2809 21.1481 22.8651 21.1227C22.4775 21.1432 22.0921 21.0523 21.754 20.8605C21.5028 20.7111 21.313 20.476 21.2191 20.1979C21.185 20.1339 21.1383 20.0776 21.0819 20.0322C21.0147 20.0127 20.9434 20.0127 20.8762 20.0322H19.8475C19.8147 20.0312 19.782 20.0368 19.7514 20.0487C19.7208 20.0605 19.6928 20.0784 19.6692 20.1013C19.6254 20.1451 19.6007 20.2047 19.6006 20.2669C19.618 20.6222 19.7318 20.966 19.9298 21.2608C20.1569 21.5939 20.4634 21.8645 20.8213 22.0476C21.2481 22.27 21.7141 22.406 22.193 22.4479V23.2485C22.1907 23.287 22.1969 23.3255 22.2111 23.3613C22.2254 23.3971 22.2473 23.4292 22.2753 23.4556C22.3281 23.5025 22.3968 23.5272 22.4673 23.5246H23.1805C23.2171 23.5266 23.2536 23.5208 23.2878 23.5076C23.322 23.4944 23.353 23.4742 23.3789 23.4481C23.4048 23.4221 23.4249 23.3909 23.438 23.3565C23.4511 23.3221 23.4568 23.2853 23.4549 23.2485V22.4479C24.1608 22.4077 24.8368 22.1472 25.3888 21.7025C25.6221 21.5027 25.8075 21.2524 25.931 20.9704C26.0545 20.6883 26.113 20.3817 26.1021 20.0736C26.1173 19.6806 26.0172 19.2917 25.814 18.9556C25.6068 18.6239 25.3125 18.3564 24.9636 18.1825Z" fill="#003366"/>
<path d="M22.865 9.1135H19.3673V5.56595C19.3673 5.3829 19.2951 5.20735 19.1665 5.07792C19.0379 4.94848 18.8634 4.87577 18.6815 4.87577H17.8311V1.19018C17.8311 1.00714 17.7589 0.831585 17.6303 0.70215C17.5016 0.572716 17.3272 0.5 17.1453 0.5H0.685812C0.503924 0.5 0.329485 0.572716 0.20087 0.70215C0.072255 0.831585 0 1.00714 0 1.19018L0 5.42791C0 5.51855 0.0177391 5.6083 0.0522044 5.69204C0.0866696 5.77577 0.137186 5.85186 0.20087 5.91595C0.264553 5.98004 0.340157 6.03088 0.423363 6.06556C0.50657 6.10025 0.59575 6.1181 0.685812 6.1181H1.59108V9.80368C1.59108 9.98673 1.66334 10.1623 1.79195 10.2917C1.92057 10.4212 2.09501 10.4939 2.2769 10.4939H2.96271V13.365H0.905272C0.723384 13.365 0.548944 13.4377 0.42033 13.5672C0.291715 13.6966 0.21946 13.8722 0.21946 14.0552V26.727C0.21946 26.91 0.291715 27.0856 0.42033 27.215C0.548944 27.3445 0.723384 27.4172 0.905272 27.4172H17.3648C17.5467 27.4172 17.7211 27.3445 17.8497 27.215C17.9783 27.0856 18.0506 26.91 18.0506 26.727V26.023C19.2486 26.8035 20.6117 27.2906 22.0306 27.4453C23.4494 27.6 24.8845 27.418 26.2209 26.9139C27.5572 26.4098 28.7576 25.5976 29.7258 24.5424C30.694 23.4872 31.4031 22.2184 31.7962 20.8378C32.1893 19.4571 32.2555 18.0029 31.9895 16.5918C31.7234 15.1808 31.1326 13.8521 30.2643 12.7122C29.396 11.5724 28.2744 10.6532 26.9895 10.0282C25.7045 9.40326 24.2919 9.08998 22.865 9.1135ZM1.37162 1.88037H16.4595V4.73773H1.37162V1.88037ZM2.96271 6.25613H18.0506V9.1135H2.96271V6.25613ZM4.33433 10.4939H18.0506C16.8915 11.2192 15.9075 12.1953 15.1702 13.3512H4.33433V10.4939ZM13.9357 21.8405H1.59108V18.9831H13.7162C13.7855 19.9659 14.0125 20.9308 14.3883 21.8405H13.9357ZM1.59108 14.7316H14.4432C14.0626 15.6405 13.831 16.6055 13.7574 17.589H1.59108V14.7316ZM16.679 26.0782H1.59108V23.2209H15.1565C15.5693 23.8742 16.0624 24.4724 16.6241 25.0015L16.679 26.0782ZM22.9198 26.0782C21.5612 26.0796 20.2263 25.7208 19.0492 25.0381C17.8721 24.3554 16.8944 23.3727 16.2145 22.1889C15.5346 21.0052 15.1765 19.6621 15.1762 18.2949C15.1758 16.9276 15.5333 15.5844 16.2126 14.4003C16.2397 14.3614 16.2627 14.3198 16.2812 14.2761C16.9784 13.1111 17.9668 12.1503 19.1477 11.4892C20.3287 10.8282 21.6612 10.49 23.0124 10.5084C24.3637 10.5268 25.6866 10.901 26.8494 11.5939C28.0122 12.2868 28.9743 13.2742 29.6401 14.4577C30.3058 15.6412 30.6518 16.9796 30.6437 18.3395C30.6357 19.6995 30.2737 21.0336 29.594 22.209C28.9142 23.3844 27.9404 24.3601 26.7694 25.039C25.5985 25.7178 24.2712 26.0761 22.9198 26.0782Z" fill="#003366"/>
</g>
<defs>
<clipPath id="clip0_70_977">
<rect width="32" height="27" fill="white" transform="translate(0 0.5)"/>
</clipPath>
</defs>
</svg>
