<svg width="32" height="32" viewBox="0 0 32 32" fill="none" xmlns="http://www.w3.org/2000/svg">
<path d="M6.89239 4.95315C7.01227 4.90347 7.11474 4.81936 7.18682 4.71145C7.25891 4.60354 7.29739 4.47668 7.29739 4.3469C7.29739 4.21713 7.25891 4.09027 7.18682 3.98236C7.11474 3.87445 7.01227 3.79034 6.89239 3.74065C6.19051 3.45003 6.04051 3.30003 5.74989 2.59815C5.70043 2.47803 5.6164 2.37531 5.50846 2.30302C5.40052 2.23073 5.27354 2.19214 5.14364 2.19214C5.01373 2.19214 4.88675 2.23073 4.77881 2.30302C4.67087 2.37531 4.58684 2.47803 4.53739 2.59815C4.24614 3.30003 4.09989 3.45003 3.39426 3.74065C3.27438 3.79034 3.17191 3.87445 3.09982 3.98236C3.02773 4.09027 2.98926 4.21713 2.98926 4.3469C2.98926 4.47668 3.02773 4.60354 3.09982 4.71145C3.17191 4.81936 3.27438 4.90347 3.39426 4.95315C4.08176 5.23815 4.25239 5.40878 4.53739 6.09628C4.58707 6.21617 4.67118 6.31863 4.77909 6.39072C4.887 6.46281 5.01386 6.50128 5.14364 6.50128C5.27341 6.50128 5.40027 6.46281 5.50818 6.39072C5.61609 6.31863 5.7002 6.21617 5.74989 6.09628C6.03426 5.40878 6.20551 5.23815 6.89239 4.95315ZM5.14239 5.6094C4.84239 4.95065 4.53864 4.6469 3.88051 4.3469C4.54739 4.04565 4.84176 3.75003 5.14364 3.08503C5.44489 3.75003 5.73989 4.04565 6.40551 4.3469C5.74989 4.6469 5.44301 4.95065 5.14364 5.6094H5.14239Z" fill="#003366"/>
<path d="M28.8443 17.5281C28.1424 17.2368 27.9924 17.0875 27.7018 16.3856C27.6521 16.2657 27.568 16.1632 27.4601 16.0912C27.3522 16.0191 27.2253 15.9806 27.0955 15.9806C26.9658 15.9806 26.8389 16.0191 26.731 16.0912C26.6231 16.1632 26.539 16.2657 26.4893 16.3856C26.198 17.0881 26.0487 17.2375 25.3462 17.5287C25.2263 17.5784 25.1238 17.6625 25.0517 17.7704C24.9796 17.8783 24.9412 18.0052 24.9412 18.135C24.9412 18.2647 24.9796 18.3916 25.0517 18.4995C25.1238 18.6074 25.2263 18.6915 25.3462 18.7412C26.0337 19.0262 26.2043 19.1968 26.4893 19.8837C26.539 20.0036 26.6231 20.1061 26.731 20.1782C26.8389 20.2502 26.9658 20.2887 27.0955 20.2887C27.2253 20.2887 27.3522 20.2502 27.4601 20.1782C27.568 20.1061 27.6521 20.0036 27.7018 19.8837C27.9862 19.1962 28.1574 19.0256 28.8443 18.7406C28.9644 18.6911 29.0671 18.6071 29.1394 18.4992C29.2117 18.3912 29.2503 18.2643 29.2503 18.1343C29.2503 18.0044 29.2117 17.8775 29.1394 17.7695C29.0671 17.6616 28.9644 17.5776 28.8443 17.5281ZM27.0943 19.3962C26.7943 18.7381 26.4905 18.4343 25.8324 18.1343C26.498 17.8331 26.7924 17.5381 27.0943 16.8725C27.3955 17.5381 27.6905 17.8331 28.3562 18.1343C27.6993 18.4375 27.3949 18.7381 27.0955 19.3962H27.0943Z" fill="#003366"/>
<path d="M24.1692 22.7725H21.4374C21.3213 22.7725 21.2101 22.8186 21.128 22.9006C21.046 22.9827 20.9999 23.0939 20.9999 23.21V24.0268L19.108 24.5268L14.7124 22.645C14.6986 22.6394 14.6849 22.6343 14.6705 22.63C14.3959 22.5437 14.1016 22.5426 13.8264 22.6269C13.5511 22.7112 13.3079 22.8769 13.1287 23.1021C12.9495 23.3274 12.8428 23.6017 12.8226 23.8888C12.8024 24.1759 12.8696 24.4625 13.0155 24.7106H12.7655C12.3557 24.7112 11.9475 24.6615 11.5499 24.5625L8.32987 23.7587C7.84037 23.637 7.32323 23.6993 6.87658 23.9336C6.42994 24.168 6.08487 24.5582 5.90687 25.0301C5.72887 25.5021 5.73032 26.0229 5.91094 26.4939C6.09157 26.9648 6.4388 27.3531 6.88675 27.585L10.1874 29.2881C10.6628 29.5336 11.1898 29.6621 11.7249 29.6631H20.9999V30.1487C20.9999 30.2648 21.046 30.376 21.128 30.4581C21.2101 30.5401 21.3213 30.5862 21.4374 30.5862H24.1667C24.2828 30.5862 24.3941 30.5401 24.4761 30.4581C24.5582 30.376 24.6042 30.2648 24.6042 30.1487V23.2112C24.6046 23.0954 24.559 22.9842 24.4774 22.9019C24.3959 22.8197 24.2851 22.7731 24.1692 22.7725ZM20.9999 28.7862H11.7249C11.3296 28.7859 10.9401 28.6914 10.5886 28.5106L7.288 26.8062C7.0304 26.6729 6.83071 26.4496 6.72684 26.1788C6.62298 25.908 6.62216 25.6085 6.72455 25.3371C6.82693 25.0657 7.0254 24.8413 7.28226 24.7066C7.53913 24.5719 7.83653 24.5362 8.118 24.6062L11.338 25.4106C11.8043 25.5268 12.2831 25.5856 12.7636 25.5856H14.2636L15.1674 26.0231C15.2259 26.0512 15.2899 26.0661 15.3549 26.0669C15.454 26.0671 15.5503 26.0337 15.6279 25.9721C15.7056 25.9105 15.76 25.8243 15.7823 25.7278C15.8046 25.6312 15.7935 25.5299 15.7507 25.4404C15.7079 25.351 15.636 25.2788 15.5467 25.2356L13.9986 24.4856C13.8754 24.4252 13.7792 24.3211 13.7287 24.1936C13.6781 24.0661 13.677 23.9243 13.7254 23.796C13.7738 23.6676 13.8684 23.5619 13.9906 23.4996C14.1127 23.4372 14.2538 23.4227 14.3861 23.4587L18.8999 25.3918C18.9895 25.4301 19.0894 25.4374 19.1836 25.4125L20.9961 24.9312L20.9999 28.7862ZM23.7292 29.7094H21.8749V23.6469H23.7292V29.7094Z" fill="#003366"/>
<path d="M6.68119 11.8438C6.6779 13.0145 6.90532 14.1745 7.35045 15.2573C7.79559 16.3402 8.44971 17.3247 9.27546 18.1547C10.1012 18.9847 11.0824 19.6439 12.163 20.0945C13.2435 20.5452 14.4023 20.7786 15.5731 20.7813H15.5974C16.7882 20.7853 17.9674 20.5488 19.0645 20.0859C20.1616 19.623 21.1539 18.9433 21.9818 18.0875C23.0364 17.0064 23.7992 15.6752 24.1987 14.2188L24.2549 14.195L24.2231 14.1225C24.567 12.8059 24.6051 11.428 24.3343 10.0943C24.0635 8.76072 23.491 7.50678 22.6607 6.4286C21.8304 5.35041 20.7643 4.47658 19.5441 3.87406C18.3239 3.27153 16.982 2.9563 15.6212 2.95251C15.4712 2.95251 15.3237 2.95251 15.1837 2.96189C14.298 3.00166 13.4233 3.17399 12.5887 3.47314C11.3278 3.92789 10.1848 4.65934 9.24369 5.61376C7.6055 7.27398 6.68522 9.51139 6.68119 11.8438ZM8.59681 15.8269C7.62089 14.0974 7.31755 12.0687 7.74494 10.1294C8.24494 11.1231 8.70619 12.2381 8.64869 12.6675L8.63181 12.7925L8.69431 12.9025C8.72556 12.9563 9.45681 14.205 11.1012 14.7038C11.1637 14.935 11.0662 15.6706 10.8843 16.3288L10.8374 16.4988L10.9387 16.6431C10.9643 16.68 11.5543 17.5181 12.2649 17.9275C12.3456 18.0813 12.4812 18.5 11.9981 19.0563C10.5693 18.3406 9.38549 17.2166 8.59681 15.8269ZM22.2256 7.31564C23.1525 8.66034 23.6453 10.2568 23.6374 11.89C23.6366 12.196 23.6185 12.5017 23.5831 12.8056C23.3687 12.4463 23.2674 12.4106 23.1837 12.3825C23.0349 12.3319 22.2874 11.9819 21.6599 11.6613C21.5574 11.6088 21.4956 11.5775 21.6881 11.0938C21.7341 10.9887 21.7705 10.8797 21.7968 10.7681C21.8593 10.4556 21.6399 10.1019 21.3868 9.69439C21.2824 9.52626 21.1081 9.24501 21.0924 9.15189C20.9949 8.55251 20.1649 8.26939 19.2862 7.97064C18.0362 7.54376 17.0987 7.11064 16.5149 6.68251C16.4802 6.65935 16.4498 6.63039 16.4249 6.59689C16.4524 6.48501 16.7462 6.24501 16.8893 6.12876C17.1862 5.88626 17.4424 5.67689 17.4424 5.37064C17.4456 5.21814 17.6656 4.66814 17.9012 4.16564C19.6594 4.69243 21.185 5.80373 22.2256 7.31564ZM9.86619 6.22751C10.7148 5.36682 11.7455 4.70714 12.8824 4.29689C13.6354 4.02691 14.4246 3.87163 15.2237 3.83626C15.3437 3.83001 15.4681 3.82751 15.5937 3.82751H15.6187C16.1358 3.82911 16.6515 3.8806 17.1587 3.98126C16.9637 4.40564 16.7281 4.97189 16.6962 5.30001C16.608 5.38937 16.514 5.47288 16.4149 5.55001C16.0793 5.82376 15.6649 6.16501 15.6737 6.62376C15.6806 6.87814 15.8149 7.10251 16.0731 7.29064C16.7293 7.77001 17.7018 8.22814 19.0449 8.68314C19.4368 8.81626 20.2506 9.09376 20.3543 9.28439C20.3962 9.52314 20.5599 9.78751 20.7499 10.0925C20.8543 10.2613 21.0256 10.5375 21.0543 10.6506C21.0418 10.6931 21.0143 10.7619 20.9918 10.8188C20.8587 11.1538 20.5468 11.9369 21.3193 12.3319C21.8343 12.595 22.5637 12.9438 22.8618 13.0644C22.9587 13.1994 23.1562 13.5913 23.3499 14.0119C23.1051 14.8999 22.7086 15.7389 22.1781 16.4919C21.9305 16.8429 21.6557 17.1739 21.3562 17.4819C20.6095 18.2538 19.7146 18.8668 18.7251 19.2843C17.7356 19.7018 16.672 19.915 15.5981 19.9113H15.5756C14.595 19.9082 13.6233 19.7254 12.7087 19.3719C13.4918 18.3025 12.8337 17.4275 12.8281 17.4169L12.7768 17.3513L12.7031 17.3131C12.2656 17.0888 11.8424 16.59 11.6556 16.35C11.7024 16.1575 11.7749 15.8369 11.8224 15.5056C11.8731 15.1444 12.0099 14.1863 11.3849 14.0056C10.5876 13.7771 9.88995 13.2876 9.40369 12.6156C9.40806 11.6625 8.47181 9.85876 8.04994 9.09439C8.06119 9.06314 8.07244 9.03189 8.08431 9.00001C8.47931 7.96214 9.08615 7.01792 9.86619 6.22751Z" fill="#003366"/>
<path d="M13.1873 13.5107L14.9998 14.9376C15.169 15.0709 15.3782 15.1434 15.5936 15.1434C15.809 15.1434 16.0181 15.0709 16.1873 14.9376L17.9998 13.5088C18.2537 13.3103 18.4588 13.0564 18.5996 12.7666C18.7404 12.4767 18.8132 12.1586 18.8123 11.8363V11.5307C18.8114 11.158 18.7065 10.7929 18.5096 10.4764C18.3127 10.16 18.0314 9.90468 17.6974 9.73921C17.3634 9.57375 16.9899 9.50465 16.6189 9.53969C16.2478 9.57473 15.8938 9.71251 15.5967 9.93756C15.2995 9.71151 14.945 9.57295 14.5733 9.5375C14.2016 9.50205 13.8273 9.57112 13.4927 9.73692C13.1581 9.90272 12.8765 10.1587 12.6795 10.4759C12.4826 10.7932 12.3781 11.1591 12.3779 11.5326V11.8382C12.3766 12.1602 12.4489 12.4782 12.5891 12.7681C12.7294 13.0579 12.934 13.3119 13.1873 13.5107ZM13.2498 11.5326C13.2497 11.2994 13.3218 11.0718 13.4562 10.8812C13.5906 10.6906 13.7807 10.5463 14.0004 10.4681C14.2201 10.3899 14.4587 10.3816 14.6833 10.4444C14.9079 10.5072 15.1075 10.638 15.2548 10.8188C15.2959 10.869 15.3475 10.9095 15.4061 10.9373C15.4647 10.965 15.5287 10.9794 15.5936 10.9794C15.6584 10.9794 15.7224 10.965 15.781 10.9373C15.8396 10.9095 15.8913 10.869 15.9323 10.8188C16.0796 10.638 16.2793 10.5072 16.5039 10.4444C16.7285 10.3816 16.967 10.3899 17.1867 10.4681C17.4064 10.5463 17.5965 10.6906 17.7309 10.8812C17.8653 11.0718 17.9374 11.2994 17.9373 11.5326V11.8382C17.9377 12.028 17.8948 12.2154 17.812 12.3862C17.7291 12.5569 17.6085 12.7066 17.4592 12.8238L15.6498 14.2501C15.6347 14.2619 15.616 14.2684 15.5967 14.2684C15.5774 14.2684 15.5587 14.2619 15.5436 14.2501L13.7311 12.8213C13.5818 12.7041 13.4611 12.5544 13.3783 12.3837C13.2954 12.2129 13.2526 12.0255 13.2529 11.8357L13.2498 11.5326Z" fill="#003366"/>
</svg>
