<svg width="22" height="20" viewBox="0 0 22 20" fill="none" xmlns="http://www.w3.org/2000/svg">
<path d="M12.9767 7.67164C13.1733 7.5893 13.3698 7.78926 13.2889 7.98922L12.2345 10.5941C12.1131 10.8941 11.8789 11.1323 11.5841 11.2558L9.02342 12.3284C8.82686 12.4107 8.63029 12.2107 8.71123 12.0108L9.76562 9.40588C9.88703 9.10594 10.1212 8.86775 10.416 8.74425L12.9767 7.67164Z" fill="#003366"/>
<path fill-rule="evenodd" clip-rule="evenodd" d="M13.9336 0.0699481C13.164 -1.07304e-05 12.2235 -5.91727e-06 11.0337 1.14951e-07H10.9663C9.77649 -6.03328e-06 8.83602 -1.09624e-05 8.06637 0.0699479C7.27579 0.141809 6.61455 0.290736 5.98959 0.616873C5.82771 0.701355 5.67004 0.793957 5.51717 0.894336C4.92705 1.28184 4.46964 1.78993 4.01318 2.45049C3.5688 3.09356 3.09856 3.9221 2.50366 4.97032L2.46997 5.02968C1.87506 6.07789 1.40482 6.90643 1.07955 7.61946C0.745436 8.35188 0.541596 9.00889 0.506767 9.72254C0.497744 9.9074 0.497744 10.0926 0.506767 10.2775C0.541596 10.9911 0.745436 11.6481 1.07955 12.3805C1.40481 13.0935 1.87503 13.9221 2.46992 14.9702L2.50364 15.0297C3.09855 16.0779 3.56879 16.9064 4.01318 17.5495C4.46964 18.2101 4.92705 18.7182 5.51717 19.1057C5.67004 19.206 5.8277 19.2986 5.98959 19.3831C6.61454 19.7093 7.27579 19.8582 8.06637 19.9301C8.83601 20 9.77646 20 10.9663 20H11.0337C12.2235 20 13.164 20 13.9336 19.9301C14.7242 19.8582 15.3855 19.7093 16.0104 19.3831C16.1723 19.2986 16.33 19.206 16.4828 19.1057C17.0729 18.7182 17.5304 18.2101 17.9868 17.5495C18.4312 16.9065 18.9014 16.0779 19.4963 15.0297L19.53 14.9703C20.1249 13.9221 20.5952 13.0936 20.9205 12.3805C21.2546 11.6481 21.4584 10.9911 21.4932 10.2775C21.5023 10.0926 21.5023 9.9074 21.4932 9.72254C21.4584 9.00889 21.2546 8.35188 20.9205 7.61946C20.5952 6.90643 20.1249 6.07788 19.53 5.02966L19.4963 4.97026C18.9014 3.92207 18.4312 3.09355 17.9868 2.45049C17.5304 1.78993 17.0729 1.28184 16.4828 0.894336C16.33 0.793957 16.1723 0.701356 16.0104 0.616874C15.3855 0.290736 14.7242 0.14181 13.9336 0.0699481ZM14.6157 8.54499C15.1822 7.14528 13.8063 5.74556 12.4304 6.32191L9.86969 7.39452C9.22103 7.66623 8.70591 8.19024 8.43882 8.85011L7.38442 11.455C6.81786 12.8547 8.1938 14.2545 9.56975 13.6781L12.1304 12.6055C12.7791 12.3338 13.2942 11.8098 13.5613 11.1499L14.6157 8.54499Z" fill="#003366"/>
</svg>
