<svg width="16" height="16" viewBox="0 0 16 16" fill="none" xmlns="http://www.w3.org/2000/svg">
<g clip-path="url(#clip0_6_446)">
<path d="M9.98637 8.13475L10.8951 7.226C10.9613 7.47338 11 7.732 11 8C11 9.65425 9.65425 11 8 11C7.732 11 7.47337 10.9613 7.226 10.8951L8.13475 9.98638C9.12838 9.91863 9.91862 9.12838 9.98637 8.13475ZM15.937 7.75713C15.8755 7.6465 15.0033 6.11813 13.2983 4.82288L12.5706 5.5505C13.8139 6.46463 14.6016 7.53075 14.9117 8.00075C14.3191 8.90312 11.9944 12 8 12C7.401 12 6.844 11.9234 6.31987 11.8011L5.49825 12.6228C6.25362 12.8544 7.08388 13 8 13C13.2341 13 15.8291 8.437 15.937 8.24288C16.021 8.09175 16.021 7.90825 15.937 7.75713ZM13.8535 2.8535L2.8535 13.8535C2.75587 13.9511 2.62788 14 2.5 14C2.37212 14 2.24413 13.9511 2.1465 13.8535C1.95113 13.6581 1.95113 13.3418 2.1465 13.1465L3.546 11.747C1.2835 10.3811 0.133875 8.3705 0.063 8.24288C-0.021 8.09175 -0.021 7.90813 0.063 7.757C0.170875 7.563 2.76587 3 8 3C9.35337 3 10.5256 3.30875 11.5278 3.76525L13.1465 2.1465C13.3419 1.95113 13.6583 1.95113 13.8535 2.1465C14.0487 2.34188 14.0489 2.65825 13.8535 2.8535ZM4.29163 11.0014L5.5575 9.7355C5.20787 9.245 5 8.64688 5 8C5 6.34575 6.34575 5 8 5C8.64688 5 9.245 5.20788 9.7355 5.55738L10.7591 4.53375C9.95037 4.20988 9.03137 4 8 4C4.00562 4 1.68087 7.09688 1.08837 7.99925C1.46463 8.5695 2.54612 10.013 4.29163 11.0014ZM6.28337 9.0095L9.0095 6.28338C8.71212 6.10775 8.36975 6 8 6C6.89725 6 6 6.89725 6 8C6 8.36975 6.10775 8.71212 6.28337 9.0095Z" fill="#B3B3B3"/>
</g>
<defs>
<clipPath id="clip0_6_446">
<rect width="16" height="16" fill="white"/>
</clipPath>
</defs>
</svg>
