<svg width="16" height="16" viewBox="0 0 16 16" fill="none" xmlns="http://www.w3.org/2000/svg">
<g clip-path="url(#clip0_30_831)">
<path d="M0.333313 8.00001C1.12941 6.67831 2.25368 5.58487 3.59699 4.82582C4.94031 4.06676 6.45704 3.66788 7.99998 3.66788C9.54292 3.66788 11.0597 4.06676 12.403 4.82582C13.7463 5.58487 14.8705 6.67831 15.6666 8.00001" stroke="#003366" stroke-linecap="round" stroke-linejoin="round"/>
<path d="M0.333313 8C1.12941 9.3217 2.25368 10.4151 3.59699 11.1742C4.94031 11.9332 6.45704 12.3321 7.99998 12.3321C9.54292 12.3321 11.0597 11.9332 12.403 11.1742C13.7463 10.4151 14.8705 9.3217 15.6666 8" stroke="#003366" stroke-linecap="round" stroke-linejoin="round"/>
<path d="M8 10.26C9.27578 10.26 10.31 9.24815 10.31 7.99999C10.31 6.75183 9.27578 5.73999 8 5.73999C6.72422 5.73999 5.69 6.75183 5.69 7.99999C5.69 9.24815 6.72422 10.26 8 10.26Z" stroke="#003366" stroke-linecap="round" stroke-linejoin="round"/>
</g>
<defs>
<clipPath id="clip0_30_831">
<rect width="16" height="16" fill="white"/>
</clipPath>
</defs>
</svg>
