<svg width="24" height="28" viewBox="0 0 24 28" fill="none" xmlns="http://www.w3.org/2000/svg">
<path d="M5.5 20H4.5C3.43913 20 2.42172 20.4214 1.67157 21.1716C0.921427 21.9217 0.5 22.9391 0.5 24C0.5 25.0609 0.921427 26.0783 1.67157 26.8284C2.42172 27.5786 3.43913 28 4.5 28H4.875C5.83607 27.9989 6.75747 27.6166 7.43706 26.9371C8.11664 26.2575 8.49891 25.3361 8.5 24.375V23H14.758C15.1118 24.0008 15.8081 24.8443 16.7237 25.3814C17.6393 25.9186 18.7154 26.1147 19.7616 25.9352C20.8078 25.7557 21.7569 25.2121 22.4412 24.4005C23.1254 23.5889 23.5006 22.5615 23.5006 21.5C23.5006 20.4385 23.1254 19.4111 22.4412 18.5995C21.7569 17.7879 20.8078 17.2443 19.7616 17.0648C18.7154 16.8853 17.6393 17.0814 16.7237 17.6186C15.8081 18.1557 15.1118 18.9992 14.758 20H8.5V11.8108C9.78845 11.4787 10.9299 10.7276 11.7445 9.67559C12.5592 8.62361 13.0009 7.33055 13 6V4C13 3.86739 12.9473 3.74021 12.8536 3.64645C12.7598 3.55268 12.6326 3.5 12.5 3.5H12V1C12 0.867392 11.9473 0.740215 11.8536 0.646447C11.7598 0.552679 11.6326 0.5 11.5 0.5H10.5V1.5H11V3.5H10.5C10.3674 3.5 10.2402 3.55268 10.1464 3.64645C10.0527 3.74021 10 3.86739 10 4V6C10 6.79565 9.68393 7.55871 9.12132 8.12132C8.55871 8.68393 7.79565 9 7 9C6.20435 9 5.44129 8.68393 4.87868 8.12132C4.31607 7.55871 4 6.79565 4 6V4.5C4 4.36739 3.94732 4.24021 3.85355 4.14645C3.75979 4.05268 3.63261 4 3.5 4H3V1.5H3.5V0.5H2.5C2.36739 0.5 2.24021 0.552679 2.14645 0.646447C2.05268 0.740215 2 0.867392 2 1V4H1.5C1.36739 4 1.24021 4.05268 1.14645 4.14645C1.05268 4.24021 1 4.36739 1 4.5V6C0.999123 7.33055 1.44079 8.62361 2.25547 9.67559C3.07014 10.7276 4.21155 11.4787 5.5 11.8108V20ZM7.5 24.375C7.49922 25.071 7.22241 25.7382 6.7303 26.2303C6.23818 26.7224 5.57095 26.9992 4.875 27H4.5C3.70435 27 2.94129 26.6839 2.37868 26.1213C1.81607 25.5587 1.5 24.7956 1.5 24C1.5 23.2044 1.81607 22.4413 2.37868 21.8787C2.94129 21.3161 3.70435 21 4.5 21H5.5V22H4.5C3.9803 21.9999 3.48095 22.202 3.10771 22.5637C2.73447 22.9253 2.51666 23.418 2.50042 23.9375C2.48417 24.4569 2.67075 24.9623 3.02066 25.3466C3.37056 25.7308 3.8563 25.9638 4.375 25.9961C4.39573 25.9987 4.41661 26 4.4375 26H4.5C4.52024 26 4.54046 25.9988 4.56056 25.9964C5.08511 25.9644 5.57773 25.7336 5.93807 25.3511C6.29842 24.9685 6.49937 24.463 6.5 23.9375V14H7.5V24.375ZM5.5 23V23.9375C5.49968 24.2137 5.39194 24.4789 5.19958 24.6771C5.00722 24.8753 4.74531 24.9909 4.46925 24.9995C4.20698 24.9912 3.95847 24.8802 3.77733 24.6903C3.5962 24.5004 3.49694 24.247 3.50098 23.9846C3.50501 23.7222 3.61201 23.472 3.7989 23.2878C3.98579 23.1036 4.2376 23.0002 4.5 23H5.5ZM19 18C19.6922 18 20.3689 18.2053 20.9445 18.5899C21.5201 18.9744 21.9687 19.5211 22.2336 20.1606C22.4985 20.8001 22.5678 21.5039 22.4327 22.1828C22.2977 22.8617 21.9644 23.4854 21.4749 23.9749C20.9854 24.4644 20.3617 24.7977 19.6828 24.9327C19.0039 25.0678 18.3001 24.9985 17.6606 24.7336C17.0211 24.4687 16.4744 24.0201 16.0899 23.4445C15.7053 22.8689 15.5 22.1922 15.5 21.5C15.501 20.5721 15.8701 19.6824 16.5263 19.0263C17.1824 18.3701 18.0721 18.001 19 18ZM14.5 21V22H13.5V21H14.5ZM12.5 21V22H8.5V21H12.5ZM2 6V5H3V6C3 7.06087 3.42143 8.07828 4.17157 8.82843C4.92172 9.57857 5.93913 10 7 10C8.06087 10 9.07828 9.57857 9.82843 8.82843C10.5786 8.07828 11 7.06087 11 6V4.5H12V6C12.001 7.16862 11.5922 8.3006 10.8449 9.19903C10.0976 10.0975 9.05895 10.7055 7.90969 10.9173C7.79467 10.9384 7.6907 10.9992 7.61585 11.089C7.541 11.1789 7.50001 11.2921 7.5 11.4091V13H6.5V11.4091C6.49999 11.2921 6.459 11.1789 6.38415 11.089C6.3093 10.9992 6.20533 10.9384 6.09031 10.9173C4.94105 10.7055 3.90242 10.0975 3.15509 9.19903C2.40776 8.3006 1.99903 7.16862 2 6Z" fill="#003366"/>
</svg>
