<svg width="20" height="20" viewBox="0 0 20 20" fill="none" xmlns="http://www.w3.org/2000/svg">
<path fill-rule="evenodd" clip-rule="evenodd" d="M4.56008 2.8893C2.01778 4.77703 0.746623 5.7209 0.247368 7.11512C0.207318 7.22696 0.171295 7.34027 0.139372 7.45481C-0.258584 8.88267 0.226953 10.4099 1.19803 13.4643C2.1691 16.5187 2.65464 18.0459 3.7978 18.962C3.8895 19.0355 3.98381 19.1055 4.08054 19.172C5.28631 20 6.85754 20 10 20C13.1425 20 14.7137 20 15.9195 19.172C16.0162 19.1055 16.1105 19.0355 16.2022 18.962C17.3454 18.0459 17.8309 16.5187 18.802 13.4643C19.773 10.4099 20.2586 8.88267 19.8606 7.45481C19.8287 7.34027 19.7927 7.22696 19.7526 7.11512C19.2534 5.7209 17.9822 4.77704 15.4399 2.88931C12.8976 1.00158 11.6265 0.0577022 10.1747 0.00327462C10.0583 -0.00109154 9.94171 -0.00109154 9.82526 0.00327462C8.37354 0.0577022 7.10238 1.00157 4.56008 2.8893ZM8.09337 14.6821C7.6985 14.6821 7.37839 15.0093 7.37839 15.4129C7.37839 15.8164 7.6985 16.1436 8.09337 16.1436H11.9066C12.3015 16.1436 12.6216 15.8164 12.6216 15.4129C12.6216 15.0093 12.3015 14.6821 11.9066 14.6821H8.09337Z" fill="#003366"/>
</svg>
