<svg width="32" height="32" viewBox="0 0 32 32" fill="none" xmlns="http://www.w3.org/2000/svg">
<path d="M31 23.5C31.1326 23.5 31.2598 23.4473 31.3536 23.3536C31.4473 23.2598 31.5 23.1326 31.5 23V20C31.5 19.8674 31.4473 19.7402 31.3536 19.6464C31.2598 19.5527 31.1326 19.5 31 19.5H29.965L29 6.96C28.9899 6.83445 28.9328 6.71732 28.8401 6.63203C28.7474 6.54675 28.626 6.4996 28.5 6.5H25.5C25.374 6.4996 25.2526 6.54675 25.1599 6.63203C25.0672 6.71732 25.0101 6.83445 25 6.96L24.035 19.5H22.965L22 6.96C21.9899 6.83445 21.9328 6.71732 21.8401 6.63203C21.7474 6.54675 21.626 6.4996 21.5 6.5H18.5C18.374 6.4996 18.2526 6.54675 18.1599 6.63203C18.0672 6.71732 18.0101 6.83445 18 6.96L17.035 19.5H15.5V12H16C16.1326 12 16.2598 11.9473 16.3536 11.8536C16.4473 11.7598 16.5 11.6326 16.5 11.5V8.5C16.5 8.36739 16.4473 8.24022 16.3536 8.14645C16.2598 8.05268 16.1326 8 16 8H2C1.86739 8 1.74021 8.05268 1.64645 8.14645C1.55268 8.24022 1.5 8.36739 1.5 8.5V11.5C1.5 11.6326 1.55268 11.7598 1.64645 11.8536C1.74021 11.9473 1.86739 12 2 12H2.5V19.5H1C0.867392 19.5 0.740215 19.5527 0.646447 19.6464C0.552678 19.7402 0.5 19.8674 0.5 20V23C0.5 23.1326 0.552678 23.2598 0.646447 23.3536C0.740215 23.4473 0.867392 23.5 1 23.5H2V30.5H0.5V31.5H31.5V30.5H30V23.5H31ZM25.965 7.5H28.035L28.115 8.5H25.885L25.965 7.5ZM25.81 9.5H28.19L28.96 19.5H25.04L25.81 9.5ZM18.965 7.5H21.035L21.115 8.5H18.885L18.965 7.5ZM18.81 9.5H21.19L21.96 19.5H18.04L18.81 9.5ZM2.5 9H15.5V11H2.5V9ZM14.5 12V19.5H3.5V12H14.5ZM7 30.5H5V27.5H7V30.5ZM12 30.5H10V27.5H12V30.5ZM17 30.5H15V27.5H17V30.5ZM22 30.5H20V27.5H22V30.5ZM27 30.5H25V27.5H27V30.5ZM29 30.5H28V27C28 26.8674 27.9473 26.7402 27.8536 26.6464C27.7598 26.5527 27.6326 26.5 27.5 26.5H24.5C24.3674 26.5 24.2402 26.5527 24.1464 26.6464C24.0527 26.7402 24 26.8674 24 27V30.5H23V27C23 26.8674 22.9473 26.7402 22.8536 26.6464C22.7598 26.5527 22.6326 26.5 22.5 26.5H19.5C19.3674 26.5 19.2402 26.5527 19.1464 26.6464C19.0527 26.7402 19 26.8674 19 27V30.5H18V27C18 26.8674 17.9473 26.7402 17.8536 26.6464C17.7598 26.5527 17.6326 26.5 17.5 26.5H14.5C14.3674 26.5 14.2402 26.5527 14.1464 26.6464C14.0527 26.7402 14 26.8674 14 27V30.5H13V27C13 26.8674 12.9473 26.7402 12.8536 26.6464C12.7598 26.5527 12.6326 26.5 12.5 26.5H9.5C9.36739 26.5 9.24021 26.5527 9.14645 26.6464C9.05268 26.7402 9 26.8674 9 27V30.5H8V27C8 26.8674 7.94732 26.7402 7.85355 26.6464C7.75979 26.5527 7.63261 26.5 7.5 26.5H4.5C4.36739 26.5 4.24021 26.5527 4.14645 26.6464C4.05268 26.7402 4 26.8674 4 27V30.5H3V23.5H29V30.5ZM1.5 22.5V20.5H30.5V22.5H1.5Z" fill="#003366"/>
<path d="M5 18H8C8.13261 18 8.25979 17.9473 8.35355 17.8536C8.44732 17.7598 8.5 17.6326 8.5 17.5V13.5C8.5 13.3674 8.44732 13.2402 8.35355 13.1464C8.25979 13.0527 8.13261 13 8 13H5C4.86739 13 4.74021 13.0527 4.64645 13.1464C4.55268 13.2402 4.5 13.3674 4.5 13.5V17.5C4.5 17.6326 4.55268 17.7598 4.64645 17.8536C4.74021 17.9473 4.86739 18 5 18ZM5.5 14H7.5V17H5.5V14Z" fill="#003366"/>
<path d="M10 18H13C13.1326 18 13.2598 17.9473 13.3536 17.8536C13.4473 17.7598 13.5 17.6326 13.5 17.5V13.5C13.5 13.3674 13.4473 13.2402 13.3536 13.1464C13.2598 13.0527 13.1326 13 13 13H10C9.86739 13 9.74021 13.0527 9.64645 13.1464C9.55268 13.2402 9.5 13.3674 9.5 13.5V17.5C9.5 17.6326 9.55268 17.7598 9.64645 17.8536C9.74021 17.9473 9.86739 18 10 18ZM10.5 14H12.5V17H10.5V14Z" fill="#003366"/>
<path d="M19 5C19.0003 4.81293 19.0739 4.63343 19.205 4.5L19.5 4.205C19.6595 4.04763 19.7859 3.85996 19.8717 3.65302C19.9576 3.44607 20.0012 3.22405 20 3C20.0003 2.81293 20.0739 2.63343 20.205 2.5L20.5 2.205C20.6595 2.04763 20.7859 1.85996 20.8717 1.65302C20.9576 1.44607 21.0012 1.22405 21 1V0.5H20V1C19.9997 1.18707 19.9261 1.36657 19.795 1.5L19.5 1.795C19.3405 1.95237 19.2141 2.14004 19.1283 2.34698C19.0424 2.55393 18.9988 2.77595 19 3C18.9997 3.18707 18.9261 3.36657 18.795 3.5L18.5 3.795C18.3405 3.95237 18.2141 4.14004 18.1283 4.34698C18.0424 4.55393 17.9988 4.77595 18 5V5.5H19V5Z" fill="#003366"/>
<path d="M20.5 5V5.5H21.5V5C21.5003 4.81293 21.5739 4.63343 21.705 4.5L22 4.205C22.1595 4.04763 22.2859 3.85996 22.3717 3.65302C22.4576 3.44607 22.5012 3.22405 22.5 3C22.5003 2.81293 22.5739 2.63343 22.705 2.5L23 2.205C23.1595 2.04763 23.2859 1.85996 23.3717 1.65302C23.4576 1.44607 23.5012 1.22405 23.5 1V0.5H22.5V1C22.4997 1.18707 22.4261 1.36657 22.295 1.5L22 1.795C21.8405 1.95237 21.7141 2.14004 21.6283 2.34698C21.5424 2.55393 21.4988 2.77595 21.5 3C21.4997 3.18707 21.4261 3.36657 21.295 3.5L21 3.795C20.8405 3.95237 20.7141 4.14004 20.6283 4.34698C20.5424 4.55393 20.4988 4.77595 20.5 5Z" fill="#003366"/>
<path d="M26 5C26.0003 4.81293 26.0739 4.63343 26.205 4.5L26.5 4.205C26.6595 4.04763 26.7859 3.85996 26.8717 3.65302C26.9576 3.44607 27.0012 3.22405 27 3C27.0003 2.81293 27.0739 2.63343 27.205 2.5L27.5 2.205C27.6595 2.04763 27.7859 1.85996 27.8717 1.65302C27.9576 1.44607 28.0012 1.22405 28 1V0.5H27V1C26.9997 1.18707 26.9261 1.36657 26.795 1.5L26.5 1.795C26.3405 1.95237 26.2141 2.14004 26.1283 2.34698C26.0424 2.55393 25.9988 2.77595 26 3C25.9997 3.18707 25.9261 3.36657 25.795 3.5L25.5 3.795C25.3405 3.95237 25.2141 4.14004 25.1283 4.34698C25.0424 4.55393 24.9988 4.77595 25 5V5.5H26V5Z" fill="#003366"/>
<path d="M27.5 5V5.5H28.5V5C28.5003 4.81293 28.5739 4.63343 28.705 4.5L29 4.205C29.1595 4.04763 29.2859 3.85996 29.3717 3.65302C29.4576 3.44607 29.5012 3.22405 29.5 3C29.5003 2.81293 29.5739 2.63343 29.705 2.5L30 2.205C30.1595 2.04763 30.2859 1.85996 30.3717 1.65302C30.4576 1.44607 30.5012 1.22405 30.5 1V0.5H29.5V1C29.4997 1.18707 29.4261 1.36657 29.295 1.5L29 1.795C28.8405 1.95237 28.7141 2.14004 28.6283 2.34698C28.5424 2.55393 28.4988 2.77595 28.5 3C28.4997 3.18707 28.4261 3.36657 28.295 3.5L28 3.795C27.8405 3.95237 27.7141 4.14004 27.6283 4.34698C27.5424 4.55393 27.4988 4.77595 27.5 5Z" fill="#003366"/>
</svg>
