<svg width="185" height="111" viewBox="0 0 185 111" fill="none" xmlns="http://www.w3.org/2000/svg">
<g clip-path="url(#clip0_48_1030)">
<path d="M141.64 109.745C139.272 107.736 137.833 104.563 138.21 101.475C138.588 98.3857 140.925 95.5462 143.956 94.8902C146.987 94.2343 150.442 96.05 151.363 99.0216C151.87 93.2925 152.453 87.3233 155.489 82.4444C158.237 78.0267 162.997 74.8656 168.156 74.3001C173.314 73.7346 178.746 75.8705 181.963 79.9568C185.18 84.0431 185.968 89.9837 183.715 94.6751C182.055 98.1311 178.997 100.703 175.792 102.796C165.438 109.5 153.02 112.226 140.822 110.473L141.64 109.745Z" fill="#F2F2F2"/>
<path d="M176.862 75.9888C172.605 79.4683 168.7 83.3598 165.203 87.6071C159.731 94.2313 155.302 101.658 152.072 109.629C151.836 110.211 152.777 110.464 153.01 109.889C158.295 96.9343 166.732 85.5164 177.55 76.6793C178.036 76.2823 177.343 75.5951 176.862 75.9888Z" fill="white"/>
<path d="M59.5545 109.199C62.8076 106.44 64.7836 102.082 64.2654 97.8398C63.7472 93.5973 60.5376 89.6972 56.3743 88.7963C52.211 87.8954 47.4651 90.3892 46.2005 94.4707C45.5046 86.6018 44.7026 78.4031 40.5339 71.7019C36.7592 65.6342 30.2214 61.2925 23.1359 60.5157C16.0504 59.739 8.59021 62.6726 4.17123 68.2852C-0.24775 73.8977 -1.32972 82.0571 1.76522 88.5008C4.04515 93.2476 8.2456 96.7802 12.6466 99.6542C26.6874 108.823 44.1049 112.647 60.678 110.2" fill="#F2F2F2"/>
<path d="M11.1779 62.8353C17.0244 67.6143 22.3878 72.9593 27.1908 78.7929C31.9945 84.6206 36.2237 90.9021 39.8189 97.5492C41.8284 101.278 43.6337 105.114 45.2265 109.04C45.5513 109.839 44.259 110.187 43.9378 109.397C41.1165 102.475 37.626 95.847 33.5164 89.6084C29.4267 83.3924 24.7458 77.5892 19.5396 72.2803C16.5949 69.279 13.488 66.4425 10.2329 63.7836C9.56574 63.2384 10.5162 62.2945 11.1779 62.8353Z" fill="white"/>
<path d="M132.796 110.757H55.181V30.837C55.181 13.8334 68.9651 0 85.908 0H102.069C119.012 0 132.796 13.8334 132.796 30.837V110.757Z" fill="#F2F2F2"/>
<path d="M116.635 110.757H55.181V30.8369C55.164 24.3215 57.2198 17.9708 61.0491 12.7094C61.1902 12.5163 61.331 12.3257 61.4762 12.1372C63.3284 9.69926 65.5325 7.55223 68.0159 5.76693C68.1562 5.6645 68.297 5.56385 68.4399 5.46319C70.5179 4.02002 72.7658 2.84026 75.1323 1.95076C75.2728 1.8973 75.4159 1.84374 75.559 1.79237C77.6993 1.02584 79.9179 0.500765 82.174 0.22685C82.3139 0.207675 82.4574 0.192671 82.601 0.177667C84.7996 -0.0582457 87.0169 -0.0582457 89.2154 0.177667C89.3586 0.192671 89.5022 0.207674 89.6437 0.227055C91.8992 0.500988 94.1173 1.026 96.257 1.79238C96.4001 1.84375 96.5432 1.89731 96.6842 1.95087C99.0215 2.82915 101.243 3.99131 103.299 5.4114C103.442 5.50987 103.585 5.61053 103.725 5.71119C105.117 6.70838 106.425 7.8193 107.635 9.03262C108.605 10.0058 109.509 11.0432 110.34 12.1378C110.485 12.3257 110.626 12.5163 110.767 12.7091C114.596 17.9705 116.652 24.3214 116.635 30.8369V110.757Z" fill="#CCCCCC"/>
<path d="M111.638 75.0118C113.517 75.0118 115.04 73.4831 115.04 71.5973C115.04 69.7116 113.517 68.1829 111.638 68.1829C109.759 68.1829 108.236 69.7116 108.236 71.5973C108.236 73.4831 109.759 75.0118 111.638 75.0118Z" fill="#003366"/>
<path d="M126.438 108.363H123.831L122.59 98.2717L126.438 98.2719L126.438 108.363Z" fill="#FFB8B8"/>
<path d="M121.969 107.616H126.996V110.793H118.803C118.803 110.375 118.885 109.962 119.044 109.577C119.203 109.191 119.436 108.841 119.73 108.546C120.024 108.251 120.373 108.017 120.757 107.858C121.141 107.698 121.553 107.616 121.969 107.616Z" fill="#2F2E41"/>
<path d="M139.409 108.363H136.802L135.562 98.2717L139.409 98.2719L139.409 108.363Z" fill="#FFB8B8"/>
<path d="M134.94 107.616H139.967V110.793H131.774C131.774 110.375 131.856 109.962 132.015 109.577C132.174 109.191 132.407 108.841 132.701 108.546C132.995 108.251 133.344 108.017 133.728 107.858C134.112 107.698 134.524 107.616 134.94 107.616Z" fill="#2F2E41"/>
<path d="M113.36 72.2737C113.172 71.9964 113.048 71.6812 112.995 71.3503C112.942 71.0194 112.961 70.6808 113.053 70.3585C113.144 70.0362 113.305 69.7378 113.524 69.4846C113.743 69.2313 114.014 69.0293 114.319 68.8927L123.181 44.3796L127.542 46.7679L117.423 70.1935C117.618 70.7229 117.612 71.3055 117.408 71.8311C117.203 72.3566 116.813 72.7885 116.312 73.0449C115.811 73.3013 115.234 73.3644 114.69 73.2223C114.146 73.0801 113.673 72.7426 113.36 72.2737Z" fill="#FFB8B8"/>
<path d="M138.077 76.8799C137.788 76.7132 137.538 76.4848 137.346 76.2107C137.153 75.9366 137.023 75.6236 136.965 75.2937C136.906 74.9637 136.92 74.6249 137.006 74.301C137.092 73.9772 137.248 73.6762 137.462 73.4192L134.717 47.4885L139.679 47.7161L140.82 73.2223C141.227 73.6124 141.476 74.1385 141.522 74.7009C141.567 75.2633 141.406 75.823 141.068 76.2738C140.729 76.7247 140.238 77.0354 139.687 77.1471C139.136 77.2588 138.563 77.1637 138.077 76.8799Z" fill="#FFB8B8"/>
<path d="M130.16 39.8391C133.045 39.8391 135.383 37.4924 135.383 34.5976C135.383 31.7029 133.045 29.3562 130.16 29.3562C127.276 29.3562 124.938 31.7029 124.938 34.5976C124.938 37.4924 127.276 39.8391 130.16 39.8391Z" fill="#FFB8B8"/>
<path d="M138.044 70.9823H122.298L122.317 70.8594C122.346 70.6756 125.124 52.4129 123.075 46.4382C122.869 45.851 122.887 45.2083 123.125 44.6338C123.364 44.0592 123.805 43.5934 124.365 43.326C127.294 41.942 132.915 40.2378 137.66 44.3736C138.358 44.9923 138.903 45.7654 139.252 46.632C139.601 47.4985 139.745 48.4347 139.671 49.3665L138.044 70.9823Z" fill="#003366"/>
<path d="M125.322 55.1118L118.234 53.6685L121.556 45.7662C121.755 45.0008 122.249 44.3458 122.928 43.9449C123.607 43.544 124.417 43.4298 125.181 43.6275C125.944 43.8253 126.598 44.3187 126.999 44.9995C127.4 45.6804 127.515 46.4931 127.32 47.2595L125.322 55.1118Z" fill="#003366"/>
<path d="M134.402 57.7917L133.975 47.9876C133.652 46.1446 134.703 44.4023 136.32 44.1176C137.938 43.8338 139.517 45.1121 139.841 46.9686L141.443 56.1296L134.402 57.7917Z" fill="#003366"/>
<path d="M137.52 69.8086C140.054 79.4922 140.33 91.8041 139.646 105.234L136.244 104.807L130.078 79.1984L126.675 105.234L122.848 105.02C121.704 90.9293 120.591 78.8324 122.422 70.8756L137.52 69.8086Z" fill="#2F2E41"/>
<path d="M133.602 38.6484C132.627 39.69 130.818 39.1309 130.691 37.7079C130.681 37.5975 130.682 37.4863 130.693 37.3759C130.759 36.7456 131.122 36.1734 131.035 35.5079C131.015 35.3422 130.953 35.1844 130.856 35.0493C130.08 34.0059 128.257 35.516 127.524 34.5714C127.075 33.9922 127.603 33.0803 127.258 32.433C126.803 31.5786 125.455 32.0001 124.61 31.5322C123.67 31.0116 123.726 29.5635 124.345 28.6827C125.1 27.6085 126.424 27.0353 127.731 26.9527C129.038 26.87 130.336 27.2247 131.557 27.702C132.944 28.2444 134.319 28.9939 135.172 30.2175C136.21 31.7056 136.31 33.7063 135.791 35.4463C135.475 36.5048 134.397 37.7979 133.602 38.6484Z" fill="#2F2E41"/>
<path d="M178.617 110.894H21.6232C21.5562 110.894 21.492 110.867 21.4446 110.82C21.3973 110.772 21.3707 110.708 21.3707 110.64C21.3707 110.573 21.3973 110.509 21.4446 110.461C21.492 110.413 21.5562 110.386 21.6232 110.386H178.617C178.684 110.386 178.748 110.413 178.795 110.461C178.843 110.509 178.869 110.573 178.869 110.64C178.869 110.708 178.843 110.772 178.795 110.82C178.748 110.867 178.684 110.894 178.617 110.894Z" fill="#3F3D56"/>
<path d="M99.7298 87.6026H72.0862C71.7221 87.6045 71.3721 87.4615 71.113 87.2048C70.8539 86.9482 70.7068 86.5989 70.704 86.2335V24.31C70.7068 23.9446 70.8539 23.5953 71.113 23.3387C71.3721 23.082 71.7221 22.939 72.0862 22.9409H99.7298C100.094 22.939 100.444 23.082 100.703 23.3387C100.962 23.5953 101.109 23.9446 101.112 24.31V86.2335C101.109 86.5989 100.962 86.9482 100.703 87.2048C100.444 87.4615 100.094 87.6045 99.7298 87.6026Z" fill="white"/>
<path d="M101.112 42.9775H70.704V43.4043H101.112V42.9775Z" fill="#CCCCCC"/>
<path d="M101.218 67.3291H70.8103V67.7559H101.218V67.3291Z" fill="#CCCCCC"/>
<path d="M80.6982 22.9409H80.2729V87.8159H80.6982V22.9409Z" fill="#CCCCCC"/>
<path d="M91.3304 22.9409H90.9052V87.8159H91.3304V22.9409Z" fill="#CCCCCC"/>
</g>
<defs>
<clipPath id="clip0_48_1030">
<rect width="185" height="111" fill="white"/>
</clipPath>
</defs>
</svg>
