<svg width="24" height="24" viewBox="0 0 24 24" fill="none" xmlns="http://www.w3.org/2000/svg">
<g clip-path="url(#clip0_15_476)">
<path d="M24 12C24 5.37258 18.6274 0 12 0C5.37258 0 0 5.37258 0 12C0 18.6274 5.37258 24 12 24C18.6274 24 24 18.6274 24 12Z" fill="#0077B5"/>
<path d="M6.18064 4.32001C5.15278 4.32001 4.32001 5.15468 4.32001 6.18443C4.32001 7.21418 5.15278 8.04885 6.18064 8.04885C7.20849 8.04885 8.04127 7.21418 8.04127 6.18443C8.04127 5.15468 7.20849 4.32001 6.18064 4.32001ZM15.9259 9.17432V9.17559C15.7157 9.17484 15.5118 9.18325 15.2451 9.19706C14.66 9.22734 13.2936 9.86128 12.7933 10.8733C12.7933 10.4339 12.7983 10.0304 12.7983 9.42822C12.199 9.42822 11.4148 9.432 9.77685 9.432C9.77685 11.2708 9.75664 17.7826 9.75664 19.68H12.9284C12.9284 18.5544 12.9436 15.7271 12.9436 13.9516C12.9436 13.3554 13.304 11.9785 14.7827 11.9785C16.1255 11.9785 16.5019 13.1102 16.5019 13.9516C16.5019 15.8007 16.488 18.4144 16.488 19.68H19.6787C19.6787 18.4429 19.6901 15.0826 19.6522 12.9625C19.6062 10.3884 18.0426 9.29006 16.6396 9.20337C16.3509 9.18554 16.1361 9.17509 15.9259 9.17432ZM4.5878 9.47243V19.675H7.76843V9.47243H4.5878Z" fill="white"/>
</g>
<defs>
<clipPath id="clip0_15_476">
<rect width="24" height="24" fill="white"/>
</clipPath>
</defs>
</svg>
