<svg width="19" height="21" viewBox="0 0 19 21" fill="none" xmlns="http://www.w3.org/2000/svg">
<path d="M11.0468 2.304C10.3994 2.10634 9.71212 2 9 2C5.134 2 2 5.13401 2 8.99998V12.7224C2 12.9002 1.92939 13.0706 1.80371 13.1963L1.29297 13.7071C1.10544 13.8947 1 14.1489 1 14.4141V15C1 15.5523 1.44772 16 2 16H16C16.5523 16 17 15.5523 17 15V14.4142C17 14.149 16.8945 13.8946 16.707 13.707L16.1963 13.1963C16.0706 13.0706 16 12.9002 16 12.7224V9C16 8.82356 15.9936 8.64865 15.9805 8.4762M12 16V17C12 18.6569 10.6569 20 9 20C7.34315 20 6 18.6569 6 17V16H12ZM18 5C18 7.20914 16.2091 9 14 9C11.7909 9 10 7.20914 10 5C10 2.79086 11.7909 1 14 1C16.2091 1 18 2.79086 18 5Z" stroke="white" stroke-width="2" stroke-linecap="round" stroke-linejoin="round"/>
</svg>
