<svg width="298" height="250" viewBox="0 0 298 250" fill="none" xmlns="http://www.w3.org/2000/svg">
<path d="M290.651 128.192C282.741 117.125 269.769 111.177 257.738 104.906C245.708 98.6352 233.276 90.6813 228.391 77.9675C221.367 59.6893 232.349 37.8842 224.559 19.9229C217.783 4.30106 198.17 -2.59764 181.583 0.883656C164.996 4.36495 151.224 15.9602 140.047 28.7701C128.87 41.58 119.5 55.9923 107.392 67.9159C89.9383 85.1047 67.689 96.2894 46.539 108.582C30.9786 117.626 15.1854 128.083 6.64459 143.989C0.0947672 156.186 -1.47178 171.166 3.17315 184.218C7.81871 197.27 18.8286 208.036 32.1502 211.588C52.7964 217.092 73.8609 205.55 91.5161 193.456C109.171 181.364 127.936 167.672 149.285 168.35C170.667 169.028 188.758 184.017 209.244 190.217C231.65 196.997 257.925 191.052 279.214 182.266C299.23 174.005 302.452 144.702 290.651 128.192Z" fill="#E6EDFF"/>
<path d="M226.124 171.046H77.9005C74.3653 171.046 71.4989 168.181 71.4989 164.645V66.7465C71.4989 63.2113 74.3647 60.345 77.9005 60.345H226.124C229.659 60.345 232.525 63.2108 232.525 66.7465V164.645C232.525 168.18 229.659 171.046 226.124 171.046Z" fill="#5C5C5C"/>
<path d="M222.162 164.532C222.162 165.984 220.985 167.16 219.533 167.16C218.081 167.16 216.905 165.983 216.905 164.532C216.905 163.08 218.082 161.903 219.533 161.903C220.985 161.903 222.162 163.08 222.162 164.532Z" stroke="#121D30" stroke-width="0.75" stroke-miterlimit="10"/>
<path d="M226.207 69.6292H77.8164V156.09H226.207V69.6292Z" fill="white"/>
<path d="M88.6088 77.6928C88.6088 78.9587 87.5827 79.9848 86.3169 79.9848C85.051 79.9848 84.0249 78.9587 84.0249 77.6928C84.0249 76.427 85.051 75.4009 86.3169 75.4009C87.5827 75.4003 88.6088 76.4264 88.6088 77.6928Z" stroke="#121D30" stroke-width="0.75" stroke-miterlimit="10"/>
<path d="M96.8038 77.6928C96.8038 78.9587 95.7777 79.9848 94.5118 79.9848C93.246 79.9848 92.2198 78.9587 92.2198 77.6928C92.2198 76.427 93.246 75.4009 94.5118 75.4009C95.7777 75.4003 96.8038 76.4264 96.8038 77.6928Z" stroke="#121D30" stroke-width="0.75" stroke-miterlimit="10"/>
<path d="M104.998 77.6928C104.998 78.9587 103.972 79.9848 102.707 79.9848C101.441 79.9848 100.415 78.9587 100.415 77.6928C100.415 76.427 101.441 75.4009 102.707 75.4009C103.972 75.4003 104.998 76.4264 104.998 77.6928Z" stroke="#121D30" stroke-width="0.75" stroke-miterlimit="10"/>
<path d="M83.3566 89.3541L86.0986 94.6187H114.317C115.128 94.6187 115.784 95.2757 115.784 96.0864V133.145C115.784 133.956 115.128 134.613 114.317 134.613H60.1961C59.3853 134.613 58.7284 133.956 58.7284 133.145V97.3703V94.6182V90.0314C58.7284 89.2207 59.3853 88.5637 60.1961 88.5637H82.0546C82.6018 88.5643 83.1039 88.8684 83.3566 89.3541Z" fill="#003366"/>
<path d="M60.1962 88.5642H82.0547C82.6019 88.5642 83.1034 88.8684 83.3561 89.354L86.0981 94.6186H114.316C115.127 94.6186 115.784 95.2756 115.784 96.0863V133.145" stroke="#121D30" stroke-width="0.75" stroke-miterlimit="10"/>
<path d="M87.2564 125.64C93.0643 125.64 97.7726 120.932 97.7726 115.124C97.7726 109.316 93.0643 104.607 87.2564 104.607C81.4484 104.607 76.7401 109.316 76.7401 115.124C76.7401 120.932 81.4484 125.64 87.2564 125.64Z" fill="#2E363D"/>
<path d="M91.7399 119.034L87.8293 115.123L91.7399 111.212C91.8971 111.055 91.8971 110.798 91.7399 110.64C91.5827 110.483 91.3249 110.483 91.1678 110.64L87.2572 114.551L83.346 110.64C83.1889 110.483 82.9311 110.483 82.7739 110.64C82.6167 110.798 82.6167 111.055 82.7739 111.212L86.685 115.124L82.7739 119.035C82.6167 119.192 82.6167 119.45 82.7739 119.607C82.9311 119.764 83.1889 119.764 83.346 119.607L87.2572 115.696L91.1678 119.607C91.3249 119.764 91.5827 119.764 91.7399 119.607C91.8971 119.449 91.8971 119.192 91.7399 119.034Z" fill="white"/>
<path d="M148.1 89.3541L150.842 94.6187H179.06C179.871 94.6187 180.528 95.2757 180.528 96.0864V133.145C180.528 133.956 179.871 134.613 179.06 134.613H124.94C124.129 134.613 123.472 133.956 123.472 133.145V97.3703V94.6182V90.0314C123.472 89.2207 124.129 88.5637 124.94 88.5637H146.798C147.345 88.5643 147.847 88.8684 148.1 89.3541Z" fill="#003366"/>
<path d="M124.94 88.5642H146.798C147.345 88.5642 147.847 88.8684 148.1 89.354L150.842 94.6186H179.06C179.87 94.6186 180.527 95.2756 180.527 96.0863V133.145" stroke="#121D30" stroke-width="0.75" stroke-miterlimit="10"/>
<path d="M152 125.64C157.808 125.64 162.516 120.932 162.516 115.124C162.516 109.316 157.808 104.607 152 104.607C146.192 104.607 141.484 109.316 141.484 115.124C141.484 120.932 146.192 125.64 152 125.64Z" fill="#2E363D"/>
<path d="M156.483 119.034L152.572 115.123L156.483 111.212C156.64 111.055 156.64 110.798 156.483 110.64C156.325 110.483 156.068 110.483 155.91 110.64L152 114.551L148.089 110.64C147.932 110.483 147.674 110.483 147.517 110.64C147.359 110.798 147.359 111.055 147.517 111.212L151.428 115.124L147.517 119.035C147.359 119.192 147.359 119.45 147.517 119.607C147.674 119.764 147.932 119.764 148.089 119.607L152 115.696L155.91 119.607C156.068 119.764 156.325 119.764 156.483 119.607C156.64 119.449 156.64 119.192 156.483 119.034Z" fill="white"/>
<path d="M212.843 89.3541L215.585 94.6187H243.803C244.614 94.6187 245.271 95.2757 245.271 96.0864V133.145C245.271 133.956 244.614 134.613 243.803 134.613H189.682C188.872 134.613 188.215 133.956 188.215 133.145V97.3703V94.6182V90.0314C188.215 89.2207 188.872 88.5637 189.682 88.5637H211.541C212.089 88.5643 212.59 88.8684 212.843 89.3541Z" fill="#003366"/>
<path d="M189.683 88.5642H211.541C212.088 88.5642 212.59 88.8684 212.843 89.354L215.585 94.6186H243.803C244.614 94.6186 245.27 95.2756 245.27 96.0863V133.145" stroke="#121D30" stroke-width="0.75" stroke-miterlimit="10"/>
<path d="M216.743 125.64C222.551 125.64 227.259 120.932 227.259 115.124C227.259 109.316 222.551 104.607 216.743 104.607C210.935 104.607 206.227 109.316 206.227 115.124C206.227 120.932 210.935 125.64 216.743 125.64Z" fill="#2E363D"/>
<path d="M221.226 119.034L217.315 115.123L221.226 111.212C221.383 111.055 221.383 110.798 221.226 110.64C221.069 110.483 220.811 110.483 220.654 110.64L216.743 114.551L212.831 110.64C212.674 110.483 212.416 110.483 212.259 110.64C212.102 110.798 212.102 111.055 212.259 111.212L216.17 115.124L212.259 119.035C212.102 119.192 212.102 119.45 212.259 119.607C212.416 119.764 212.674 119.764 212.831 119.607L216.743 115.696L220.654 119.607C220.811 119.764 221.068 119.764 221.226 119.607C221.383 119.449 221.384 119.192 221.226 119.034Z" fill="white"/>
<path d="M218.023 69.3794C218.023 69.3794 212.921 61.9365 206.54 65.6475C198.553 70.2925 208.2 81.3583 202.296 84.5605C196.392 87.7627 190.287 88.012 188.586 96.8689C186.362 108.449 207.308 124.729 225.02 114.422C242.732 104.115 236.431 84.8245 228.113 80.9851C218.105 76.365 218.023 69.3794 218.023 69.3794Z" fill="#121D30"/>
<path d="M214.526 86.8479V97.0702C214.526 98.3942 215.064 99.5922 215.933 100.46C216.796 101.328 217.994 101.867 219.318 101.867C221.966 101.867 224.109 99.7183 224.109 97.0702V86.8479H214.526Z" fill="#FFC4B0"/>
<path d="M231.416 83.6881C231.018 85.6306 229.121 86.8829 227.178 86.4855C225.235 86.088 223.983 84.1907 224.38 82.2481C224.778 80.3055 226.675 79.0527 228.618 79.4507C230.561 79.8481 231.813 81.7455 231.416 83.6881Z" fill="#FFC4B0"/>
<path d="M230.431 82.3273L227.586 84.2523" stroke="#121D30" stroke-width="0.75" stroke-miterlimit="10"/>
<path d="M211.092 82.968C210.694 84.9106 208.797 86.1628 206.854 85.7654C204.911 85.3679 203.659 83.4706 204.056 81.528C204.454 79.5854 206.351 78.3326 208.294 78.7306C210.237 79.1281 211.49 81.0254 211.092 82.968Z" fill="#FFC4B0"/>
<path d="M207.911 82.2476C207.911 82.2476 205.857 80.002 206.579 74.6769H209.458L207.911 82.2476Z" fill="#121D30"/>
<path d="M208.166 83.8318L205.381 81.1339" stroke="#121D30" stroke-width="0.75" stroke-miterlimit="10"/>
<path d="M216.911 68.2159C211.755 68.2159 207.574 72.3956 207.574 77.5523V85.2236C207.574 85.4147 207.59 85.6002 207.615 85.7862C207.75 86.6902 208.212 87.5241 208.931 88.1172L212.714 91.2617C213.859 92.216 215.466 92.402 216.808 91.7287L224.177 88.0312C225.448 87.3884 226.247 86.087 226.247 84.6707V77.5517C226.247 72.3956 222.067 68.2159 216.911 68.2159Z" fill="#FFC4B0"/>
<path d="M221.289 89.426L217.002 91.5772C216.277 91.9407 215.477 92.1301 214.666 92.1301H214.347" stroke="#121D30" stroke-width="0.75" stroke-miterlimit="10"/>
<path d="M215.447 68.2159L213.073 84.5628H216.052" stroke="#121D30" stroke-width="0.75" stroke-miterlimit="10"/>
<path d="M207.574 80.0892V84.8766C207.685 84.8919 207.801 84.9015 207.921 84.9015C209.257 84.9015 210.342 83.8217 210.342 82.4801C210.342 81.1436 209.258 80.0637 207.921 80.0637C207.801 80.0643 207.685 80.0745 207.574 80.0892Z" fill="#CB705D"/>
<path d="M221.369 84.9036C222.706 84.9036 223.79 83.8198 223.79 82.4828C223.79 81.1457 222.706 80.0619 221.369 80.0619C220.032 80.0619 218.948 81.1457 218.948 82.4828C218.948 83.8198 220.032 84.9036 221.369 84.9036Z" fill="#CB705D"/>
<path d="M209.354 80.1722C209.354 81.009 209.728 81.688 210.189 81.688C210.649 81.688 211.023 81.0095 211.023 80.1722C211.023 79.3349 210.649 78.6565 210.189 78.6565C209.728 78.6565 209.354 79.3349 209.354 80.1722Z" fill="#121D30"/>
<path d="M218.102 80.1722C218.102 81.009 218.476 81.688 218.937 81.688C219.398 81.688 219.771 81.0095 219.771 80.1722C219.771 79.3349 219.398 78.6565 218.937 78.6565C218.476 78.6565 218.102 79.3349 218.102 80.1722Z" fill="#121D30"/>
<path d="M226.247 76.6743V82.7265C226.247 82.7265 223.843 80.5917 223.91 76.3888L226.247 76.6743Z" fill="#121D30"/>
<path d="M210.731 73.7509C209.974 72.5958 209.239 72.4562 208.751 73.9957L210.731 73.7509Z" fill="#121D30"/>
<path d="M221.094 74.1856C220.983 72.8095 220.406 72.3346 219.24 73.4518L221.094 74.1856Z" fill="#121D30"/>
<path d="M204.899 66.9286C211.281 63.2187 218.026 69.3772 218.026 69.3772C218.026 69.3772 214.767 76.3888 228.113 80.9829C230.311 81.7393 233.05 85.4266 234.374 87.5365C234.374 87.5365 231.45 79.1014 230.528 73.6451C229.602 68.1843 224.752 69.0278 224.752 69.0278C224.752 69.0278 221.813 61.8455 213.685 61.8794C208.054 61.9037 204.899 66.9286 204.899 66.9286Z" fill="#121D30"/>
<path d="M216.045 88.1991C214.563 85.2168 213.081 88.1991 213.081 88.1991H216.045Z" fill="#121D30"/>
<path d="M174.976 130.395L198.08 118.068L204.585 124.383L204.582 124.385C199.683 129.017 193.594 132.197 186.993 133.572L174.572 135.501L174.976 130.395Z" fill="#FFAC9D"/>
<path d="M198.121 123.65C199.704 125.637 202.598 125.965 204.584 124.382L222.461 110.145C224.448 108.562 224.775 105.668 223.193 103.682C221.61 101.695 218.716 101.367 216.73 102.949L198.079 118.068C198.079 118.068 196.539 121.663 198.121 123.65Z" fill="#FFAC9D"/>
<path d="M198.5 113.098L207.32 112.518L216.606 115.538L207.321 115.9L198.5 113.098Z" fill="#5C5C5C"/>
<path d="M201.392 104.863L199.945 116.425L213.864 118.346L211.827 97.6418L208.023 98.1603C204.548 98.6335 201.827 101.384 201.392 104.863Z" fill="#969696"/>
<path d="M198.5 113.098L207.321 115.9L216.606 115.538L214.827 120.742L206.671 120.318L198.025 117.614L198.5 113.098Z" fill="white"/>
<path d="M208.445 134.34H226.845L238.67 111.401C240.618 107.623 238.993 102.983 235.114 101.245L222.896 95.7721L211.828 97.6417C207.996 98.2891 205.315 101.787 205.687 105.656L208.445 134.34Z" fill="#969696"/>
<path d="M213.394 104.055L212.025 95.0292L227.511 93.5259L226.072 104.055H213.394Z" fill="#969696"/>
<path d="M225.899 99.9469C224.644 104.355 221.609 113.291 217.331 114.652C217.097 114.727 216.871 114.764 216.657 114.764C216.14 114.764 215.676 114.548 215.239 114.103C213.028 111.851 212.446 104.881 212.297 100.771C213.463 103.307 215.505 104.789 218.025 104.789C220.762 104.789 223.55 103.052 225.899 99.9469ZM226.956 97.5905C224.247 102.224 220.899 104.365 218.025 104.365C214.996 104.365 212.494 101.986 211.828 97.6419C211.828 97.6419 211.506 115.188 216.658 115.188C216.912 115.188 217.179 115.145 217.46 115.056C223.446 113.151 226.956 97.5905 226.956 97.5905Z" fill="#121D30"/>
<path d="M204.378 241.326H195.104L198.882 212.639H208.155L204.378 241.326Z" fill="#FFAC9D"/>
<path d="M205.261 241.282H194.818L196.49 227.633L206.836 228.425L205.261 241.282Z" fill="#DEDEDE"/>
<path d="M206.076 249.8H182.384L183.003 247.685C183.207 246.996 183.511 246.355 183.899 245.776C184.723 244.544 185.929 243.595 187.363 243.09L188.005 242.864C188.635 242.642 189.225 242.351 189.772 241.997C190.243 241.693 190.68 241.348 191.074 240.958C191.935 240.12 192.613 239.094 193.049 237.936H206.362L206.141 245.775L206.076 249.8Z" fill="#003366"/>
<path d="M196.976 239.274H192.296" stroke="#121D30" stroke-width="0.75" stroke-miterlimit="10"/>
<path d="M195.769 240.904H191.089" stroke="#121D30" stroke-width="0.75" stroke-miterlimit="10"/>
<path d="M201.63 244.101C201.641 244.421 201.39 244.68 201.07 244.68C200.751 244.68 200.484 244.421 200.474 244.101C200.464 243.782 200.714 243.523 201.034 243.523C201.353 243.523 201.62 243.782 201.63 244.101Z" stroke="#121D30" stroke-width="0.75" stroke-miterlimit="10"/>
<path d="M198.803 244.101C198.814 244.421 198.563 244.68 198.243 244.68C197.924 244.68 197.657 244.421 197.647 244.101C197.637 243.782 197.887 243.523 198.207 243.523C198.527 243.523 198.793 243.782 198.803 244.101Z" stroke="#121D30" stroke-width="0.75" stroke-miterlimit="10"/>
<path d="M206.076 249.8H182.384L183.003 247.685C183.207 246.996 183.511 246.355 183.899 245.776H206.141L206.076 249.8Z" fill="#DEDEDE"/>
<path d="M206.204 247.788H191.304" stroke="#121D30" stroke-width="0.75" stroke-miterlimit="10"/>
<path d="M195.68 249.8H182.383L183.002 247.685C183.206 246.996 183.51 246.355 183.899 245.776C184.722 244.544 185.929 243.595 187.362 243.09L188.004 242.864C188.634 242.642 189.224 242.351 189.771 241.997C192.856 243.423 195.153 246.335 195.68 249.8Z" fill="#DEDEDE"/>
<path d="M193.049 237.937L192.745 236.758C192.531 235.928 193.138 235.138 193.988 235.138H195.175C196.113 235.138 197 235.614 197.532 236.402L198.569 237.937H193.049Z" fill="#003366"/>
<path d="M231.894 129.78L206.316 128.394L208.558 134.875L229.851 134.645L231.894 129.78Z" fill="#2E363D"/>
<path d="M208.557 134.875C208.557 134.875 199.796 142.975 199.277 157.422H238.457C238.457 143.844 229.851 134.644 229.851 134.644L208.557 134.875Z" fill="#2E363D"/>
<path d="M231.105 140.307H224.961C224.961 140.307 227.994 147.301 234.038 147.761" stroke="white" stroke-width="0.75" stroke-miterlimit="10"/>
<path d="M204.366 140.307H207.753C207.753 140.307 206.458 146.929 200.96 147.761" stroke="white" stroke-width="0.75" stroke-miterlimit="10"/>
<path d="M215.847 135.312L216.439 146.033C216.439 146.033 218.428 144.977 218.005 141.407" stroke="white" stroke-width="0.75" stroke-miterlimit="10"/>
<path d="M223.002 135.985H228.581V133.769H223.002V135.985Z" fill="#121D30"/>
<path d="M209.443 135.985H211.384V133.769H209.443V135.985Z" fill="#121D30"/>
<path d="M212.663 135.985H221.451V133.769H212.663V135.985Z" fill="#121D30"/>
<path d="M214.309 136.431H218.069V133.323H214.309V136.431Z" fill="white"/>
<path d="M240.279 241.306L231.005 241.724L226.261 210.593L235.536 210.177L240.279 241.306Z" fill="#FFAC9D"/>
<path d="M240.813 241.282L230.381 241.751L228.58 227.568L238.994 228.195L240.813 241.282Z" fill="#DEDEDE"/>
<path d="M242.846 249.8H219.154L219.362 247.685C219.432 246.996 219.612 246.354 219.888 245.776C220.472 244.544 221.493 243.595 222.829 243.09L223.427 242.864C224.013 242.642 224.547 242.351 225.026 241.997C225.437 241.693 225.807 241.348 226.126 240.958C226.824 240.12 227.302 239.094 227.513 237.936H240.825L242.129 245.775L242.846 249.8Z" fill="#003366"/>
<path d="M231.698 239.274H227.018" stroke="#121D30" stroke-width="0.75" stroke-miterlimit="10"/>
<path d="M230.808 240.904H226.128" stroke="#121D30" stroke-width="0.75" stroke-miterlimit="10"/>
<path d="M237.292 244.101C237.364 244.42 237.163 244.68 236.844 244.68C236.525 244.68 236.208 244.421 236.135 244.101C236.063 243.782 236.264 243.523 236.583 243.523C236.902 243.523 237.219 243.782 237.292 244.101Z" stroke="#121D30" stroke-width="0.75" stroke-miterlimit="10"/>
<path d="M234.465 244.101C234.537 244.42 234.336 244.68 234.017 244.68C233.698 244.68 233.381 244.421 233.308 244.101C233.236 243.782 233.437 243.523 233.756 243.523C234.075 243.523 234.393 243.782 234.465 244.101Z" stroke="#121D30" stroke-width="0.75" stroke-miterlimit="10"/>
<path d="M242.846 249.8H219.154L219.362 247.685C219.432 246.996 219.612 246.355 219.888 245.776H242.129L242.846 249.8Z" fill="#DEDEDE"/>
<path d="M227.51 247.788H242.409" stroke="#121D30" stroke-width="0.75" stroke-miterlimit="10"/>
<path d="M232.45 249.8H219.153L219.361 247.685C219.431 246.996 219.611 246.355 219.887 245.776C220.471 244.544 221.493 243.595 222.829 243.09L223.426 242.864C224.012 242.642 224.546 242.351 225.025 241.997C228.386 243.423 231.248 246.335 232.45 249.8Z" fill="#DEDEDE"/>
<path d="M227.512 237.937L226.979 236.758C226.604 235.928 227.056 235.138 227.907 235.138H229.094C230.031 235.138 231.012 235.614 231.697 236.402L233.032 237.937H227.512Z" fill="#003366"/>
<path d="M217.996 156.727L212.412 224.622H193.014L199.333 157.004L217.996 156.727Z" fill="#2E363D"/>
<path d="M235.388 187.842L242.217 224.622H222.82L216.724 188.119L235.388 187.842Z" fill="#2E363D"/>
<path d="M235.388 187.842C235.388 187.842 238.457 167.682 238.443 157.319H219.045L216.724 188.119L235.388 187.842Z" fill="#2E363D"/>
<path d="M208.332 107.781C201.759 117.51 202.098 122.171 210.172 125.735L208.332 107.781Z" fill="#969696"/>
<path d="M203.729 115.899L207.354 109.275L205.687 105.656" stroke="#121D30" stroke-width="0.75" stroke-miterlimit="10"/>
<path d="M176.135 128.158L180.994 135.78C176.439 137.635 173.328 139.139 173.328 139.139C171.036 138.392 169.321 136.657 168.2 135.149L173.362 132.208C170.915 132.561 168.656 133.636 167.562 134.227C166.925 133.24 166.607 132.509 166.607 132.509C171.781 129.543 176.135 128.158 176.135 128.158Z" fill="#FFAC9D"/>
<path d="M169.285 136.458C173.36 134.607 175.283 133.69 175.283 133.69" stroke="#121D30" stroke-width="0.75" stroke-miterlimit="10"/>
<path d="M171.166 137.945L176.457 135.335" stroke="#121D30" stroke-width="0.75" stroke-miterlimit="10"/>
<path d="M186.07 148.608C184.335 150.343 181.522 150.343 179.787 148.608L166.837 135.658L173.119 129.375L186.07 142.326C187.804 144.061 187.804 146.874 186.07 148.608Z" fill="#969696"/>
<path d="M168.466 137.359L177.865 146.687" stroke="#121D30" stroke-width="0.75" stroke-miterlimit="10"/>
<path opacity="0.11" d="M152.522 123.151C153.131 123.76 153.131 124.749 152.522 125.359C151.912 125.969 150.924 125.969 150.314 125.359C149.704 124.749 149.704 123.761 150.314 123.151C150.924 122.541 151.913 122.541 152.522 123.151Z" fill="white"/>
<path d="M173.473 130.696L168.157 136.012C167.476 136.692 166.362 136.692 165.681 136.012L162.373 132.704C161.693 132.023 161.693 130.909 162.373 130.228L167.689 124.912C168.37 124.231 169.484 124.231 170.165 124.912L173.473 128.22C174.154 128.901 174.154 130.015 173.473 130.696Z" fill="#5C5C5C"/>
<path d="M167.69 124.912C168.37 124.231 169.485 124.231 170.165 124.912L173.473 128.22C174.154 128.901 174.154 130.015 173.473 130.696L168.157 136.012" stroke="#121D30" stroke-width="0.75" stroke-miterlimit="10"/>
<path d="M138.869 100.818C131.252 108.11 130.988 120.24 138.28 127.857C145.572 135.475 157.701 135.739 165.319 128.447C172.937 121.155 173.201 109.025 165.909 101.408C158.617 93.7906 146.487 93.526 138.869 100.818ZM162.37 104.796C167.794 110.462 167.596 119.484 161.931 124.908C156.265 130.332 147.243 130.135 141.819 124.469C136.395 118.804 136.592 109.782 142.257 104.358C147.923 98.9342 156.945 99.131 162.37 104.796Z" fill="#969696" stroke="#1D1615" stroke-width="0.75" stroke-miterlimit="10"/>
<path opacity="0.19" d="M151.896 129.639C160.293 129.639 167.1 122.832 167.1 114.435C167.1 106.038 160.293 99.2306 151.896 99.2306C143.499 99.2306 136.692 106.038 136.692 114.435C136.692 122.832 143.499 129.639 151.896 129.639Z" fill="white"/>
<path opacity="0.11" d="M146.081 122.694C149.293 122.694 151.896 120.09 151.896 116.879C151.896 113.667 149.293 111.064 146.081 111.064C142.87 111.064 140.267 113.667 140.267 116.879C140.267 120.09 142.87 122.694 146.081 122.694Z" fill="white"/>
<path opacity="0.11" d="M158.885 107.445C160.141 108.701 160.986 110.211 161.424 111.81L164.192 110.297C163.574 108.457 162.536 106.727 161.07 105.261C156.003 100.194 147.788 100.194 142.722 105.261L144.906 107.445C148.767 103.585 155.025 103.585 158.885 107.445Z" fill="white"/>
<path d="M139.066 101.605C131.981 108.691 131.981 120.179 139.066 127.265C146.152 134.351 157.641 134.351 164.726 127.265C171.812 120.179 171.812 108.691 164.726 101.605C157.641 94.5187 146.152 94.5187 139.066 101.605ZM162.647 125.186C156.71 131.123 147.083 131.123 141.145 125.186C135.208 119.248 135.208 109.622 141.145 103.684C147.082 97.7464 156.709 97.7464 162.647 103.684C168.585 109.621 168.585 119.248 162.647 125.186Z" fill="#5C5C5C"/>
<g opacity="0.11">
<path d="M161.473 116.879C161.05 118.544 160.189 120.121 158.886 121.424L161.07 123.609C162.979 121.7 164.168 119.344 164.638 116.879H161.473Z" fill="white"/>
</g>
<path d="M183.782 127.565L170.566 126.31C170.424 127.798 171.516 129.119 173.005 129.261L174.845 129.435L176.79 131.716C180.056 140.47 186.208 133.365 186.208 133.365L183.782 127.565Z" fill="#FFAC9D"/>
<path d="M182.413 134.083C177.379 135.145 176.471 129.853 176.471 129.853L173.006 129.261" stroke="#121D30" stroke-width="0.75" stroke-miterlimit="10"/>
<path d="M209.442 224.622L216.189 155.233H219.589" stroke="white" stroke-width="0.75" stroke-miterlimit="10"/>
<path d="M228.581 135.985C228.581 135.985 236.793 147.456 235.099 160.016C233.404 172.576 231.894 187.842 231.894 187.842L239.496 224.621" stroke="white" stroke-width="0.75" stroke-miterlimit="10"/>
<path d="M239.361 230.836L228.944 230.439" stroke="#121D30" stroke-width="0.75" stroke-miterlimit="10"/>
<path d="M206.836 230.638L196.228 229.774" stroke="#121D30" stroke-width="0.75" stroke-miterlimit="10"/>
<path d="M207.356 119.395C208.304 121.752 210.983 122.894 213.34 121.946L235.384 113.387C237.74 112.439 238.882 109.76 237.934 107.403C236.986 105.047 234.307 103.905 231.95 104.853L210.754 113.274C209.052 113.976 207.709 115.408 207.274 117.198C207.098 117.923 207.072 118.688 207.356 119.395Z" fill="#FFAC9D"/>
<path d="M234.24 115.59L224.485 118.879L222.107 106.652L231.777 102.376C235.841 100.579 240.413 103.542 240.433 107.985C240.436 108.842 240.278 109.698 239.921 110.476C238.823 112.87 236.778 114.734 234.24 115.59Z" fill="#969696"/>
<path d="M228.021 119.691L225.085 111.269L223.414 105.008L218.624 107.709L223.667 120.983L228.021 119.691Z" fill="white"/>
<path d="M213.124 97.3371C216.655 94.8048 221.122 94.2757 221.122 94.2757L218.63 86.6631C211.246 88.6577 209.362 92.2257 208.608 94.4368L213.124 97.3371Z" fill="#FFAC9D"/>
<path d="M221.122 94.2756C221.122 94.2756 224.575 92.2171 225.785 89.0104L223.413 84.8482C223.413 84.8482 221.346 87.6909 219.185 88.3586C219.185 88.3586 221.77 85.6233 222.018 83.5236L220.597 83.2896C220.597 83.2896 218.834 86.308 215.743 87.9396L221.122 94.2756Z" fill="#FFAC9D"/>
<path d="M225.156 87.9674C225.156 87.9674 223.085 90.7987 221.095 92.3263" stroke="#121D30" stroke-width="0.75" stroke-miterlimit="10"/>
<path d="M224.253 86.3234C224.253 86.3234 222.566 89.006 219.961 90.615" stroke="#121D30" stroke-width="0.75" stroke-miterlimit="10"/>
<path d="M216.351 114.418L213.058 94.8709L208.792 93.9471C205.675 102.299 204.472 111.076 207.308 119.267L216.351 114.418Z" fill="#FFAC9D"/>
<path d="M215.923 111.22L216.74 117.325" stroke="#121D30" stroke-width="0.75" stroke-miterlimit="10"/>
<path d="M261.705 43.5472C260.601 43.2974 259.548 42.7914 258.659 42.0835L258.946 41.7234C259.781 42.3883 260.77 42.8637 261.806 43.0978L261.705 43.5472ZM265.083 43.5444L264.98 43.0955C266.017 42.8586 267.005 42.3815 267.838 41.7149L268.125 42.0745C267.238 42.7846 266.186 43.2928 265.083 43.5444ZM256.547 39.4473C256.047 38.416 255.793 37.3085 255.79 36.1546L256.251 36.1535C256.253 37.2373 256.492 38.2781 256.961 39.246L256.547 39.4473ZM270.231 39.4337L269.817 39.2336C270.285 38.2645 270.521 37.2231 270.521 36.1388L270.851 36.1173L270.982 36.1286C270.982 37.2932 270.729 38.4013 270.231 39.4337ZM256.948 33.057L256.533 32.858C257.022 31.8375 257.749 30.9222 258.634 30.2121L258.922 30.5711C258.091 31.2388 257.408 32.0981 256.948 33.057ZM269.805 33.018C269.34 32.0625 268.652 31.2071 267.816 30.5445L268.102 30.1838C268.992 30.8888 269.724 31.7996 270.218 32.8167L269.805 33.018ZM261.778 29.1849L261.675 28.736C262.232 28.6076 262.807 28.5426 263.383 28.5426C263.384 28.5426 263.385 28.5426 263.385 28.5426C263.949 28.5426 264.509 28.6042 265.053 28.7258L264.953 29.1747C264.442 29.0605 263.915 29.0028 263.387 29.0028C263.387 29.0028 263.385 29.0028 263.384 29.0028C262.842 29.0034 262.302 29.0644 261.778 29.1849Z" fill="#2E363D"/>
<path d="M33.8607 64.0521C33.8596 64.0521 33.8585 64.0521 33.8573 64.0521L33.7233 64.0515L33.7279 63.5913L33.8573 63.5919C33.8585 63.5919 33.8602 63.5919 33.8602 63.5919C34.8761 63.5919 35.8898 63.4828 36.8741 63.2674L36.9725 63.7168C35.9565 63.939 34.9095 64.0521 33.8607 64.0521ZM30.4816 63.6569C29.4204 63.4036 28.3869 63.0288 27.4094 62.5432L27.6146 62.131C28.561 62.6014 29.5617 62.9644 30.5884 63.2092L30.4816 63.6569ZM40.0639 62.6602L39.8665 62.2441C40.8186 61.7929 41.722 61.2315 42.5526 60.5757L42.8381 60.937C41.9804 61.6143 41.047 62.1938 40.0639 62.6602ZM24.6668 60.7679C23.8233 60.0759 23.0573 59.2884 22.3896 58.4262L22.7531 58.1447C23.3999 58.9791 24.1422 59.7424 24.9586 60.4118L24.6668 60.7679ZM45.1583 58.6382L44.7999 58.3499C45.4636 57.5256 46.0335 56.6272 46.4943 55.6786L46.9081 55.8793C46.4321 56.859 45.8435 57.7874 45.1583 58.6382ZM20.6918 55.6367C20.2333 54.6468 19.8879 53.6031 19.6645 52.5357L20.1151 52.4413C20.3311 53.4748 20.6658 54.4845 21.1096 55.4434L20.6918 55.6367ZM47.9936 52.7964L47.5447 52.694C47.7787 51.6696 47.898 50.6124 47.898 49.5512H48.3582C48.3582 50.6469 48.2356 51.7386 47.9936 52.7964ZM19.8195 49.2923L19.3593 49.2843C19.379 48.1898 19.5215 47.1004 19.7833 46.046L20.2299 46.1568C19.9766 47.1773 19.8387 48.2322 19.8195 49.2923ZM47.651 46.9138C47.4537 45.8764 47.1382 44.8604 46.7119 43.8936L47.1331 43.7082C47.573 44.7066 47.8992 45.7565 48.1033 46.8279L47.651 46.9138ZM21.3357 43.1926L20.9253 42.984C21.4194 42.0127 22.0249 41.0957 22.7254 40.2573L23.0788 40.5524C22.4009 41.3642 21.814 42.2524 21.3357 43.1926ZM45.1182 41.1635C44.4867 40.3172 43.7585 39.5409 42.9545 38.8563L43.253 38.5058C44.0836 39.2125 44.8355 40.0147 45.4873 40.8888L45.1182 41.1635ZM25.3662 38.3684L25.0875 38.002C25.9564 37.3417 26.9 36.7792 27.8928 36.3303L28.0828 36.7498C27.1216 37.184 26.208 37.7284 25.3662 38.3684ZM40.3307 37.0884C39.3928 36.6005 38.3989 36.2195 37.3773 35.9554L37.4926 35.5099C38.5481 35.7824 39.5748 36.1759 40.5433 36.6802L40.3307 37.0884ZM31.0939 35.7824L31.0034 35.3313C31.9362 35.1447 32.8951 35.0503 33.8545 35.0503C33.9925 35.0503 34.1242 35.052 34.2582 35.0554L34.2457 35.5156C34.1157 35.5116 33.9778 35.502 33.8545 35.5099C32.9251 35.5105 31.9962 35.6021 31.0939 35.7824Z" fill="#2E363D"/>
<path d="M47.4381 61.9801C49.8533 61.9801 51.8112 60.0222 51.8112 57.6071C51.8112 55.1919 49.8533 53.234 47.4381 53.234C45.0229 53.234 43.0651 55.1919 43.0651 57.6071C43.0651 60.0222 45.0229 61.9801 47.4381 61.9801Z" fill="#2E363D"/>
<path d="M262.236 156.27C262.236 158.05 260.793 159.493 259.013 159.493C257.233 159.493 255.79 158.05 255.79 156.27C255.79 154.491 257.233 153.048 259.013 153.048C260.793 153.048 262.236 154.491 262.236 156.27Z" fill="#2E363D"/>
<path d="M260.394 30.5987C260.394 31.8702 259.364 32.9003 258.093 32.9003C256.822 32.9003 255.791 31.8696 255.791 30.5987C255.791 29.3278 256.822 28.2971 258.093 28.2971C259.364 28.2971 260.394 29.3278 260.394 30.5987Z" fill="#2E363D"/>
<path d="M105.46 23.9053C107.367 23.9053 108.913 22.3595 108.913 20.4527C108.913 18.5458 107.367 17 105.46 17C103.553 17 102.008 18.5458 102.008 20.4527C102.008 22.3595 103.553 23.9053 105.46 23.9053Z" fill="#2E363D"/>
<path d="M111.675 31.0402C111.401 31.0402 111.127 31.0227 110.858 30.9871L110.918 30.5308C111.941 30.6654 113 30.5218 113.95 30.1125L114.132 30.5348C113.355 30.8706 112.528 31.0402 111.675 31.0402ZM107.815 29.6975C106.935 28.9987 106.26 28.0766 105.863 27.0307L106.293 26.8673C106.661 27.8358 107.287 28.6895 108.102 29.3362L107.815 29.6975ZM116.711 28.4678L116.338 28.1976C116.948 27.3564 117.317 26.3647 117.407 25.3307L117.866 25.3708C117.769 26.488 117.369 27.5587 116.711 28.4678ZM105.92 24.8258H105.46C105.46 23.7013 105.764 22.5994 106.338 21.6394L106.733 21.8758C106.201 22.7645 105.92 23.7844 105.92 24.8258ZM116.856 22.3207C116.404 21.3867 115.706 20.5913 114.838 20.0185L115.092 19.6341C116.028 20.252 116.781 21.112 117.27 22.1194L116.856 22.3207ZM108.944 19.759L108.726 19.3543C109.705 18.8251 110.842 18.5678 111.948 18.617L111.927 19.0767C110.905 19.0331 109.851 19.2694 108.944 19.759Z" fill="#2E363D"/>
<path d="M266.077 168.6C264.963 168.517 263.898 168.21 262.913 167.687L263.129 167.28C264.058 167.773 265.061 168.063 266.112 168.141L266.077 168.6ZM269.342 168.174L269.19 167.74C270.181 167.394 271.076 166.855 271.85 166.137L272.162 166.474C271.342 167.235 270.393 167.808 269.342 168.174ZM260.38 165.582C259.684 164.707 259.185 163.717 258.899 162.64L259.344 162.522C259.613 163.537 260.083 164.47 260.741 165.295L260.38 165.582ZM274.07 163.79L273.649 163.606C274.069 162.646 274.281 161.624 274.281 160.566H274.741C274.741 161.688 274.516 162.772 274.07 163.79ZM274.236 159.739C274.123 158.693 273.799 157.7 273.275 156.788L273.675 156.559C274.231 157.526 274.573 158.58 274.694 159.69L274.236 159.739ZM259.175 159.422L258.72 159.353C258.886 158.25 259.274 157.212 259.871 156.267L260.261 156.513C259.698 157.403 259.332 158.382 259.175 159.422ZM271.212 154.467C270.366 153.838 269.418 153.399 268.394 153.164L268.498 152.715C269.583 152.965 270.589 153.43 271.487 154.097L271.212 154.467ZM262.42 154.281L262.161 153.9C263.086 153.272 264.11 152.849 265.206 152.646L265.29 153.098C264.257 153.29 263.291 153.688 262.42 154.281Z" fill="#2E363D"/>
</svg>
