<svg width="322" height="322" viewBox="0 0 322 322" fill="none" xmlns="http://www.w3.org/2000/svg">
<path d="M322 246.266H0V246.427H322V246.266Z" fill="#EBEBEB"/>
<path d="M289.736 256.628H268.406V256.789H289.736V256.628Z" fill="#EBEBEB"/>
<path d="M213.306 258.379H207.709V258.54H213.306V258.379Z" fill="#EBEBEB"/>
<path d="M267.762 250.651H255.404V250.812H267.762V250.651Z" fill="#EBEBEB"/>
<path d="M61.5986 251.733H33.7842V251.894H61.5986V251.733Z" fill="#EBEBEB"/>
<path d="M71.4132 251.733H67.3367V251.894H71.4132V251.733Z" fill="#EBEBEB"/>
<path d="M144.997 254.451H84.6667V254.612H144.997V254.451Z" fill="#EBEBEB"/>
<path d="M152.628 217.543H28.278C27.3039 217.542 26.3702 217.153 25.682 216.464C24.9938 215.775 24.6072 214.84 24.6072 213.866V39.0651C24.6157 38.0965 25.006 37.1704 25.6933 36.4879C26.3806 35.8055 27.3094 35.4217 28.278 35.42H152.628C153.603 35.42 154.539 35.8075 155.228 36.4971C155.918 37.1867 156.305 38.122 156.305 39.0973V213.866C156.305 214.841 155.918 215.777 155.228 216.466C154.539 217.156 153.603 217.543 152.628 217.543ZM28.278 35.5488C27.3466 35.5506 26.4539 35.9218 25.7958 36.581C25.1378 37.2402 24.7682 38.1336 24.7682 39.0651V213.866C24.7682 214.797 25.1378 215.691 25.7958 216.35C26.4539 217.009 27.3466 217.381 28.278 217.382H152.628C153.56 217.381 154.453 217.01 155.112 216.35C155.772 215.691 156.143 214.798 156.144 213.866V39.0651C156.143 38.133 155.772 37.2397 155.112 36.5806C154.453 35.9216 153.56 35.5505 152.628 35.5488H28.278Z" fill="#EBEBEB"/>
<path d="M291.932 217.543H167.575C166.601 217.542 165.666 217.154 164.977 216.464C164.288 215.775 163.9 214.841 163.898 213.866V39.0651C163.908 38.0959 164.3 37.1698 164.988 36.4875C165.677 35.8052 166.606 35.4217 167.575 35.42H291.932C292.899 35.4234 293.826 35.8079 294.512 36.4902C295.198 37.1725 295.588 38.0976 295.596 39.0651V213.866C295.596 214.839 295.21 215.772 294.524 216.462C293.837 217.151 292.905 217.54 291.932 217.543ZM167.575 35.5488C166.643 35.5505 165.75 35.9216 165.091 36.5806C164.432 37.2397 164.061 38.133 164.059 39.0651V213.866C164.061 214.798 164.432 215.691 165.091 216.35C165.75 217.01 166.643 217.381 167.575 217.382H291.932C292.864 217.381 293.757 217.01 294.416 216.35C295.075 215.691 295.446 214.798 295.448 213.866V39.0651C295.446 38.133 295.075 37.2397 294.416 36.5806C293.757 35.9216 292.864 35.5505 291.932 35.5488H167.575Z" fill="#EBEBEB"/>
<path d="M284.558 245.448V213.686H269.9V184.236H267.833V201.121H262.192V196.452H252.049V180.288H250.168V160.53H248.661V179.927H245.094V208.663H238.325V179.927H226.115V204.225H213.293V174.775H211.226V191.654H205.584V186.985H195.441V170.821H193.561V151.07H192.054V170.467H188.486V199.196H181.724V170.467H169.507V198.262H161.27V182.098H159.39V162.34H157.889V181.737H154.315V210.472H147.553V181.737H135.337V210.472H129.322V213.686H118.792V184.236H116.725V201.121H111.084V196.452H100.941V180.288H99.0601V160.53H97.5531V179.927H94.2816V178.311H82.0649V179.927H75.2965V178.311H71.7287V158.913H70.2282V178.671H68.3477V194.829H58.1983V199.498H52.5633V182.619H50.4961V212.069H35.8386V245.448H284.558Z" fill="#EBEBEB"/>
<path d="M95.6546 97.6704C104.786 93.8879 109.123 83.4189 105.34 74.2872C101.558 65.1555 91.0888 60.819 81.9571 64.6015C72.8253 68.384 68.4889 78.853 72.2714 87.9848C76.0539 97.1165 86.5229 101.453 95.6546 97.6704Z" fill="#FAFAFA"/>
<path d="M79.5276 80.9379C79.5266 80.4531 79.4127 79.9752 79.1947 79.5422C78.9767 79.1091 78.6607 78.7329 78.2718 78.4435C77.8829 78.154 77.4318 77.9592 76.9544 77.8746C76.4771 77.79 75.9866 77.818 75.5219 77.9562C75.6609 77.0202 75.5963 76.0652 75.3324 75.1565C75.0685 74.2478 74.6116 73.4068 73.9928 72.6908C73.3741 71.9749 72.6081 71.4009 71.7473 71.0081C70.8864 70.6154 69.9508 70.413 69.0046 70.415C68.5982 70.4143 68.1927 70.4531 67.7939 70.5309C67.1463 69.4644 66.1698 68.6372 65.0114 68.1738C63.853 67.7103 62.5754 67.6357 61.371 67.9612C60.1665 68.2866 59.1004 68.9945 58.333 69.9783C57.5657 70.9621 57.1387 72.1685 57.1164 73.416H57.0198C55.6124 73.416 54.2626 73.9751 53.2674 74.9702C52.2723 75.9654 51.7132 77.3152 51.7132 78.7226C51.7132 80.1299 52.2723 81.4797 53.2674 82.4749C54.2626 83.47 55.6124 84.0291 57.0198 84.0291H76.5008C77.3083 84.009 78.0762 83.6749 78.6414 83.0977C79.2066 82.5205 79.5245 81.7457 79.5276 80.9379Z" fill="#F0F0F0"/>
<path d="M275.49 124.041C275.489 123.556 275.375 123.078 275.157 122.645C274.939 122.212 274.623 121.836 274.235 121.546C273.846 121.257 273.395 121.062 272.917 120.978C272.44 120.893 271.949 120.921 271.485 121.059C271.624 120.123 271.559 119.168 271.295 118.26C271.031 117.351 270.574 116.51 269.956 115.794C269.337 115.078 268.571 114.504 267.71 114.111C266.849 113.718 265.914 113.516 264.967 113.518C264.559 113.518 264.152 113.555 263.75 113.627C263.096 112.567 262.116 111.746 260.957 111.29C259.797 110.834 258.521 110.766 257.319 111.097C256.118 111.428 255.057 112.14 254.294 113.126C253.532 114.112 253.11 115.318 253.092 116.564H252.995C251.588 116.564 250.238 117.123 249.243 118.118C248.248 119.114 247.689 120.463 247.689 121.871C247.689 123.278 248.248 124.628 249.243 125.623C250.238 126.618 251.588 127.177 252.995 127.177H272.476C273.29 127.154 274.061 126.812 274.625 126.225C275.188 125.639 275.499 124.854 275.49 124.041Z" fill="#F0F0F0"/>
<path d="M183.353 76.797C183.35 76.0286 183.528 75.2703 183.871 74.583C184.215 73.8957 184.715 73.2987 185.331 72.84C185.948 72.3814 186.664 72.0739 187.421 71.9424C188.178 71.811 188.955 71.8591 189.69 72.0829C189.618 71.5817 189.581 71.076 189.581 70.5695C189.579 69.038 189.915 67.525 190.565 66.1383C191.215 64.7516 192.163 63.5255 193.342 62.5475C194.52 61.5695 195.9 60.8636 197.383 60.4803C198.866 60.097 200.415 60.0456 201.92 60.3299C202.945 58.6386 204.493 57.3272 206.33 56.5939C208.167 55.8606 210.193 55.7453 212.101 56.2655C214.01 56.7857 215.697 57.913 216.907 59.4771C218.118 61.0411 218.787 62.9568 218.812 64.9346H218.96C221.186 64.9346 223.322 65.819 224.896 67.3933C226.47 68.9675 227.354 71.1027 227.354 73.3291C227.354 75.5555 226.47 77.6906 224.896 79.2649C223.322 80.8392 221.186 81.7236 218.96 81.7236H188.138C186.856 81.6884 185.638 81.1536 184.744 80.2333C183.85 79.313 183.351 78.08 183.353 76.797Z" fill="#F0F0F0"/>
<path d="M92.4011 130.391C92.4001 129.467 92.6153 128.556 93.0295 127.73C93.4437 126.905 94.0454 126.187 94.7865 125.636C95.5275 125.085 96.3874 124.714 97.2972 124.555C98.2071 124.395 99.1416 124.451 100.026 124.717C99.9353 124.116 99.8901 123.509 99.8909 122.901C99.8909 119.574 101.213 116.383 103.565 114.03C105.918 111.678 109.109 110.356 112.436 110.356C113.209 110.358 113.981 110.429 114.741 110.568C115.97 108.524 117.833 106.937 120.047 106.048C122.261 105.16 124.704 105.019 127.006 105.646C129.307 106.274 131.34 107.636 132.797 109.525C134.253 111.415 135.052 113.728 135.073 116.113H135.24C136.588 116.079 137.929 116.315 139.184 116.808C140.44 117.3 141.584 118.039 142.549 118.98C143.515 119.921 144.282 121.046 144.806 122.289C145.33 123.531 145.599 124.866 145.599 126.214C145.599 127.563 145.33 128.898 144.806 130.14C144.282 131.383 143.515 132.508 142.549 133.449C141.584 134.39 140.44 135.129 139.184 135.621C137.929 136.114 136.588 136.35 135.24 136.316H98.1456C96.6052 136.27 95.1432 135.626 94.0704 134.52C92.9977 133.413 92.3988 131.932 92.4011 130.391Z" fill="#F0F0F0"/>
<path d="M118.56 90.2566C118.56 89.7442 118.357 89.2528 117.995 88.8905C117.632 88.5281 117.141 88.3246 116.628 88.3246C116.441 88.3225 116.253 88.3508 116.075 88.4083C116.103 88.2099 116.118 88.0098 116.12 87.8094C116.12 86.7231 115.688 85.6813 114.92 84.9132C114.152 84.1451 113.11 83.7136 112.024 83.7136C111.771 83.7142 111.519 83.7379 111.27 83.7844C110.867 83.1206 110.258 82.6061 109.536 82.3185C108.815 82.031 108.019 81.9859 107.269 82.1902C106.52 82.3945 105.857 82.8371 105.381 83.4511C104.905 84.0651 104.642 84.8172 104.631 85.594H104.573C103.698 85.594 102.86 85.9414 102.241 86.5598C101.623 87.1781 101.275 88.0168 101.275 88.8913C101.275 89.7658 101.623 90.6045 102.241 91.2228C102.86 91.8412 103.698 92.1886 104.573 92.1886H116.686C117.189 92.1735 117.665 91.9633 118.015 91.6026C118.365 91.2419 118.561 90.7591 118.56 90.2566Z" fill="#F0F0F0"/>
<path d="M48.1197 148.99C48.1197 148.477 48.3232 147.986 48.6856 147.623C49.0479 147.261 49.5393 147.058 50.0517 147.058C50.2411 147.057 50.4297 147.083 50.612 147.135C50.5805 146.939 50.5654 146.741 50.5669 146.542C50.5669 146.004 50.6728 145.472 50.8787 144.975C51.0845 144.478 51.3862 144.026 51.7665 143.646C52.1469 143.266 52.5984 142.964 53.0953 142.758C53.5923 142.552 54.1249 142.446 54.6627 142.446C54.9155 142.447 55.1677 142.471 55.4162 142.517C55.8199 141.854 56.4285 141.339 57.1502 141.051C57.8719 140.764 58.6676 140.719 59.4171 140.923C60.1667 141.127 60.8295 141.57 61.3055 142.184C61.7814 142.798 62.0448 143.55 62.0558 144.327H62.1138C62.9883 144.327 63.827 144.674 64.4453 145.293C65.0637 145.911 65.4111 146.75 65.4111 147.624C65.4111 148.499 65.0637 149.337 64.4453 149.956C63.827 150.574 62.9883 150.922 62.1138 150.922H50.0002C49.4968 150.908 49.0185 150.699 48.6672 150.338C48.316 149.977 48.1195 149.493 48.1197 148.99Z" fill="#F0F0F0"/>
<path d="M229.399 155.301C229.399 154.788 229.603 154.297 229.965 153.935C230.327 153.572 230.819 153.369 231.331 153.369C231.521 153.368 231.709 153.394 231.892 153.446C231.86 153.25 231.845 153.052 231.847 152.853C231.847 151.767 232.278 150.725 233.046 149.957C233.814 149.189 234.856 148.758 235.942 148.758C236.195 148.758 236.447 148.782 236.696 148.828C237.099 148.165 237.708 147.65 238.43 147.363C239.152 147.075 239.947 147.03 240.697 147.234C241.446 147.439 242.109 147.881 242.585 148.495C243.061 149.109 243.324 149.861 243.335 150.638H243.393C244.268 150.638 245.107 150.985 245.725 151.604C246.343 152.222 246.691 153.061 246.691 153.935C246.691 154.81 246.343 155.649 245.725 156.267C245.107 156.885 244.268 157.233 243.393 157.233H231.28C230.776 157.219 230.298 157.01 229.947 156.649C229.596 156.288 229.399 155.804 229.399 155.301Z" fill="#F0F0F0"/>
<path d="M161 275.349C229.961 275.349 285.865 272.085 285.865 268.058C285.865 264.032 229.961 260.768 161 260.768C92.0389 260.768 36.1348 264.032 36.1348 268.058C36.1348 272.085 92.0389 275.349 161 275.349Z" fill="#F5F5F5"/>
<path d="M250.387 77.9433L222.856 119.861L221.645 121.71L219.25 122.817L134.036 162.417L142.453 191.261L144.378 197.856L137.707 203.369L80.2166 259.236H32.6443L118.657 187.803L113.447 159.441L112.03 151.72L118.689 148.654L209.506 106.84L239.085 70.2475L231.151 68.6761L256.093 58.327L254.811 85.3042L250.387 77.9433Z" fill="#263238"/>
<path opacity="0.6" d="M250.387 77.9433L222.856 119.861L221.645 121.71L219.25 122.817L134.036 162.417L142.453 191.261L144.378 197.856L137.707 203.369L80.2166 259.236H32.6443L118.657 187.803L113.447 159.441L112.03 151.72L118.689 148.654L209.506 106.84L239.085 70.2475L231.151 68.6761L256.093 58.327L254.811 85.3042L250.387 77.9433Z" fill="white"/>
<path d="M235.994 256.628H190.399C189.95 256.628 189.587 256.991 189.587 257.439V267.833C189.587 268.281 189.95 268.645 190.399 268.645H235.994C236.442 268.645 236.805 268.281 236.805 267.833V257.439C236.805 256.991 236.442 256.628 235.994 256.628Z" fill="#003366"/>
<path opacity="0.2" d="M193.567 257.323H191.699V268.059H193.567V257.323Z" fill="black"/>
<path opacity="0.2" d="M197.811 257.272H196.452V268.007H197.811V257.272Z" fill="black"/>
<path opacity="0.2" d="M201.72 257.323H201.037V268.059H201.72V257.323Z" fill="black"/>
<path opacity="0.2" d="M206.988 257.272H206.647V268.007H206.988V257.272Z" fill="black"/>
<path opacity="0.2" d="M232.825 268.007H234.693V257.272H232.825V268.007Z" fill="black"/>
<path opacity="0.2" d="M228.581 268.059H229.94V257.323H228.581V268.059Z" fill="black"/>
<path opacity="0.2" d="M224.679 268.007H225.355V257.272H224.679V268.007Z" fill="black"/>
<path opacity="0.2" d="M219.404 268.059H219.746V257.323H219.404V268.059Z" fill="black"/>
<path opacity="0.2" d="M213.112 268.059H213.28V257.323H213.112V268.059Z" fill="black"/>
<path opacity="0.2" d="M235.543 258.457H190.946C190.796 258.457 190.652 258.397 190.545 258.291C190.439 258.184 190.379 258.04 190.379 257.89C190.381 257.74 190.441 257.597 190.547 257.491C190.653 257.385 190.796 257.325 190.946 257.323H235.543C235.693 257.323 235.837 257.383 235.944 257.489C236.05 257.595 236.11 257.74 236.11 257.89C236.111 257.965 236.097 258.039 236.068 258.108C236.04 258.177 235.998 258.24 235.946 258.292C235.893 258.345 235.83 258.387 235.761 258.415C235.692 258.443 235.618 258.457 235.543 258.457Z" fill="white"/>
<path d="M237.282 244.643H191.687C191.238 244.643 190.875 245.006 190.875 245.454V255.848C190.875 256.296 191.238 256.66 191.687 256.66H237.282C237.73 256.66 238.093 256.296 238.093 255.848V245.454C238.093 245.006 237.73 244.643 237.282 244.643Z" fill="#003366"/>
<path opacity="0.2" d="M194.855 245.338H192.987V256.074H194.855V245.338Z" fill="black"/>
<path opacity="0.2" d="M199.105 245.287H197.747V256.022H199.105V245.287Z" fill="black"/>
<path opacity="0.2" d="M203.008 245.338H202.332V256.074H203.008V245.338Z" fill="black"/>
<path opacity="0.2" d="M208.276 245.287H207.935V256.022H208.276V245.287Z" fill="black"/>
<path opacity="0.2" d="M234.12 256.016H235.987V245.28H234.12V256.016Z" fill="black"/>
<path opacity="0.2" d="M229.869 256.067H231.228V245.332H229.869V256.067Z" fill="black"/>
<path opacity="0.2" d="M225.96 256.016H226.643V245.28H225.96V256.016Z" fill="black"/>
<path opacity="0.2" d="M220.692 256.067H221.034V245.332H220.692V256.067Z" fill="black"/>
<path opacity="0.2" d="M214.4 256.067H214.568V245.332H214.4V256.067Z" fill="black"/>
<path opacity="0.2" d="M236.831 246.472H192.234C192.084 246.47 191.941 246.41 191.835 246.304C191.729 246.198 191.669 246.055 191.667 245.905C191.667 245.755 191.727 245.611 191.833 245.504C191.94 245.398 192.084 245.338 192.234 245.338H236.831C236.906 245.337 236.98 245.352 237.049 245.38C237.118 245.408 237.181 245.45 237.234 245.502C237.286 245.555 237.328 245.618 237.356 245.687C237.384 245.756 237.399 245.83 237.398 245.905C237.398 246.055 237.338 246.199 237.232 246.306C237.125 246.412 236.981 246.472 236.831 246.472Z" fill="white"/>
<path d="M237.282 232.658H191.687C191.238 232.658 190.875 233.021 190.875 233.469V243.864C190.875 244.312 191.238 244.675 191.687 244.675H237.282C237.73 244.675 238.093 244.312 238.093 243.864V233.469C238.093 233.021 237.73 232.658 237.282 232.658Z" fill="#003366"/>
<path opacity="0.2" d="M194.855 233.347H192.987V244.082H194.855V233.347Z" fill="black"/>
<path opacity="0.2" d="M199.105 233.295H197.747V244.031H199.105V233.295Z" fill="black"/>
<path opacity="0.2" d="M203.008 233.347H202.332V244.082H203.008V233.347Z" fill="black"/>
<path opacity="0.2" d="M208.276 233.295H207.935V244.031H208.276V233.295Z" fill="black"/>
<path opacity="0.2" d="M234.12 244.031H235.987V233.295H234.12V244.031Z" fill="black"/>
<path opacity="0.2" d="M229.869 244.083H231.228V233.347H229.869V244.083Z" fill="black"/>
<path opacity="0.2" d="M225.96 244.031H226.643V233.295H225.96V244.031Z" fill="black"/>
<path opacity="0.2" d="M220.692 244.083H221.034V233.347H220.692V244.083Z" fill="black"/>
<path opacity="0.2" d="M214.4 244.083H214.568V233.347H214.4V244.083Z" fill="black"/>
<path opacity="0.2" d="M236.831 234.48H192.234C192.084 234.48 191.94 234.421 191.833 234.314C191.727 234.208 191.667 234.064 191.667 233.914C191.669 233.764 191.729 233.621 191.835 233.515C191.941 233.409 192.084 233.349 192.234 233.347H236.831C236.981 233.347 237.125 233.407 237.232 233.513C237.338 233.619 237.398 233.763 237.398 233.914C237.399 233.988 237.384 234.062 237.356 234.132C237.328 234.201 237.286 234.264 237.234 234.316C237.181 234.369 237.118 234.411 237.049 234.439C236.98 234.467 236.906 234.481 236.831 234.48Z" fill="white"/>
<path d="M235.994 220.667H190.399C189.95 220.667 189.587 221.03 189.587 221.478V231.872C189.587 232.32 189.95 232.684 190.399 232.684H235.994C236.442 232.684 236.805 232.32 236.805 231.872V221.478C236.805 221.03 236.442 220.667 235.994 220.667Z" fill="#003366"/>
<path opacity="0.2" d="M193.567 221.362H191.699V232.098H193.567V221.362Z" fill="black"/>
<path opacity="0.2" d="M197.811 221.311H196.452V232.046H197.811V221.311Z" fill="black"/>
<path opacity="0.2" d="M201.72 221.362H201.037V232.098H201.72V221.362Z" fill="black"/>
<path opacity="0.2" d="M206.988 221.311H206.647V232.046H206.988V221.311Z" fill="black"/>
<path opacity="0.2" d="M232.825 232.04H234.693V221.304H232.825V232.04Z" fill="black"/>
<path opacity="0.2" d="M228.581 232.091H229.94V221.356H228.581V232.091Z" fill="black"/>
<path opacity="0.2" d="M224.679 232.04H225.355V221.304H224.679V232.04Z" fill="black"/>
<path opacity="0.2" d="M219.404 232.091H219.746V221.356H219.404V232.091Z" fill="black"/>
<path opacity="0.2" d="M213.112 232.091H213.28V221.356H213.112V232.091Z" fill="black"/>
<path opacity="0.2" d="M235.543 222.496H190.946C190.796 222.494 190.653 222.434 190.547 222.328C190.441 222.222 190.381 222.079 190.379 221.929C190.379 221.778 190.439 221.634 190.545 221.528C190.652 221.422 190.796 221.362 190.946 221.362H235.543C235.618 221.361 235.692 221.375 235.761 221.403C235.83 221.432 235.893 221.473 235.946 221.526C235.998 221.579 236.04 221.642 236.068 221.711C236.097 221.78 236.111 221.854 236.11 221.929C236.11 222.079 236.05 222.223 235.944 222.33C235.837 222.436 235.693 222.496 235.543 222.496Z" fill="white"/>
<path d="M234.062 208.682H188.467C188.018 208.682 187.655 209.045 187.655 209.493V219.887C187.655 220.336 188.018 220.699 188.467 220.699H234.062C234.51 220.699 234.873 220.336 234.873 219.887V209.493C234.873 209.045 234.51 208.682 234.062 208.682Z" fill="#003366"/>
<path opacity="0.2" d="M191.635 209.371H189.767V220.106H191.635V209.371Z" fill="black"/>
<path opacity="0.2" d="M195.879 209.319H194.52V220.055H195.879V209.319Z" fill="black"/>
<path opacity="0.2" d="M199.782 209.371H199.105V220.106H199.782V209.371Z" fill="black"/>
<path opacity="0.2" d="M205.056 209.319H204.715V220.055H205.056V209.319Z" fill="black"/>
<path opacity="0.2" d="M230.893 220.055H232.761V209.319H230.893V220.055Z" fill="black"/>
<path opacity="0.2" d="M226.643 220.106H228.002V209.371H226.643V220.106Z" fill="black"/>
<path opacity="0.2" d="M222.747 220.055H223.423V209.319H222.747V220.055Z" fill="black"/>
<path opacity="0.2" d="M217.479 220.106H217.82V209.371H217.479V220.106Z" fill="black"/>
<path opacity="0.2" d="M211.18 220.106H211.348V209.371H211.18V220.106Z" fill="black"/>
<path opacity="0.2" d="M233.611 210.504H189.014C188.939 210.505 188.865 210.491 188.796 210.463C188.727 210.435 188.664 210.393 188.611 210.34C188.559 210.287 188.517 210.225 188.489 210.155C188.461 210.086 188.446 210.012 188.447 209.938C188.447 209.787 188.507 209.643 188.613 209.537C188.72 209.431 188.864 209.371 189.014 209.371H233.611C233.761 209.371 233.905 209.431 234.012 209.537C234.118 209.643 234.178 209.787 234.178 209.938C234.179 210.012 234.165 210.086 234.136 210.155C234.108 210.225 234.066 210.287 234.014 210.34C233.961 210.393 233.898 210.435 233.829 210.463C233.76 210.491 233.686 210.505 233.611 210.504Z" fill="white"/>
<path d="M235.994 196.691H190.399C189.95 196.691 189.587 197.054 189.587 197.502V207.896C189.587 208.344 189.95 208.708 190.399 208.708H235.994C236.442 208.708 236.805 208.344 236.805 207.896V197.502C236.805 197.054 236.442 196.691 235.994 196.691Z" fill="#003366"/>
<path opacity="0.2" d="M193.567 197.386H191.699V208.121H193.567V197.386Z" fill="black"/>
<path opacity="0.2" d="M197.811 197.334H196.452V208.07H197.811V197.334Z" fill="black"/>
<path opacity="0.2" d="M201.72 197.386H201.037V208.121H201.72V197.386Z" fill="black"/>
<path opacity="0.2" d="M206.988 197.334H206.647V208.07H206.988V197.334Z" fill="black"/>
<path opacity="0.2" d="M232.825 208.063H234.693V197.328H232.825V208.063Z" fill="black"/>
<path opacity="0.2" d="M228.581 208.115H229.94V197.38H228.581V208.115Z" fill="black"/>
<path opacity="0.2" d="M224.679 208.063H225.355V197.328H224.679V208.063Z" fill="black"/>
<path opacity="0.2" d="M219.404 208.115H219.746V197.38H219.404V208.115Z" fill="black"/>
<path opacity="0.2" d="M213.112 208.115H213.28V197.38H213.112V208.115Z" fill="black"/>
<path opacity="0.2" d="M235.543 198.519H190.946C190.796 198.519 190.652 198.46 190.545 198.353C190.439 198.247 190.379 198.103 190.379 197.953C190.379 197.802 190.439 197.658 190.545 197.552C190.652 197.446 190.796 197.386 190.946 197.386H235.543C235.618 197.385 235.692 197.399 235.761 197.427C235.83 197.456 235.893 197.497 235.946 197.55C235.998 197.603 236.04 197.666 236.068 197.735C236.097 197.804 236.111 197.878 236.11 197.953C236.111 198.027 236.097 198.101 236.068 198.171C236.04 198.24 235.998 198.303 235.946 198.355C235.893 198.408 235.83 198.45 235.761 198.478C235.692 198.506 235.618 198.52 235.543 198.519Z" fill="white"/>
<path d="M235.994 184.706H190.399C189.95 184.706 189.587 185.069 189.587 185.517V195.911C189.587 196.359 189.95 196.723 190.399 196.723H235.994C236.442 196.723 236.805 196.359 236.805 195.911V185.517C236.805 185.069 236.442 184.706 235.994 184.706Z" fill="#003366"/>
<path opacity="0.2" d="M193.567 185.395H191.699V196.13H193.567V185.395Z" fill="black"/>
<path opacity="0.2" d="M197.811 185.343H196.452V196.079H197.811V185.343Z" fill="black"/>
<path opacity="0.2" d="M201.72 185.395H201.037V196.13H201.72V185.395Z" fill="black"/>
<path opacity="0.2" d="M206.988 185.343H206.647V196.079H206.988V185.343Z" fill="black"/>
<path opacity="0.2" d="M232.825 196.079H234.693V185.343H232.825V196.079Z" fill="black"/>
<path opacity="0.2" d="M228.581 196.13H229.94V185.395H228.581V196.13Z" fill="black"/>
<path opacity="0.2" d="M224.679 196.079H225.355V185.343H224.679V196.079Z" fill="black"/>
<path opacity="0.2" d="M219.404 196.13H219.746V185.395H219.404V196.13Z" fill="black"/>
<path opacity="0.2" d="M213.112 196.13H213.28V185.395H213.112V196.13Z" fill="black"/>
<path opacity="0.2" d="M235.543 186.535H190.946C190.795 186.533 190.651 186.472 190.545 186.365C190.439 186.257 190.379 186.112 190.379 185.961C190.381 185.812 190.441 185.669 190.547 185.563C190.653 185.457 190.796 185.396 190.946 185.395H235.543C235.693 185.395 235.837 185.454 235.944 185.561C236.05 185.667 236.11 185.811 236.11 185.961C236.111 186.036 236.097 186.111 236.068 186.18C236.04 186.25 235.999 186.313 235.946 186.366C235.893 186.42 235.831 186.462 235.761 186.491C235.692 186.52 235.618 186.535 235.543 186.535Z" fill="white"/>
<path d="M237.926 172.714H192.331C191.882 172.714 191.519 173.078 191.519 173.526V183.92C191.519 184.368 191.882 184.731 192.331 184.731H237.926C238.374 184.731 238.737 184.368 238.737 183.92V173.526C238.737 173.078 238.374 172.714 237.926 172.714Z" fill="#003366"/>
<path opacity="0.2" d="M195.499 173.41H193.631V184.145H195.499V173.41Z" fill="black"/>
<path opacity="0.2" d="M199.749 173.358H198.391V184.094H199.749V173.358Z" fill="black"/>
<path opacity="0.2" d="M203.659 173.41H202.976V184.145H203.659V173.41Z" fill="black"/>
<path opacity="0.2" d="M208.92 173.358H208.579V184.094H208.92V173.358Z" fill="black"/>
<path opacity="0.2" d="M234.764 184.087H236.631V173.352H234.764V184.087Z" fill="black"/>
<path opacity="0.2" d="M230.513 184.145H231.872V173.41H230.513V184.145Z" fill="black"/>
<path opacity="0.2" d="M226.611 184.087H227.287V173.352H226.611V184.087Z" fill="black"/>
<path opacity="0.2" d="M221.336 184.145H221.678V173.41H221.336V184.145Z" fill="black"/>
<path opacity="0.2" d="M215.051 184.145H215.218V173.41H215.051V184.145Z" fill="black"/>
<path opacity="0.2" d="M237.475 174.524H192.884C192.809 174.525 192.735 174.511 192.666 174.483C192.596 174.455 192.533 174.413 192.48 174.36C192.426 174.308 192.384 174.245 192.355 174.176C192.326 174.106 192.311 174.032 192.311 173.957C192.311 173.882 192.326 173.808 192.355 173.739C192.384 173.67 192.426 173.607 192.48 173.554C192.533 173.502 192.596 173.46 192.666 173.432C192.735 173.404 192.809 173.39 192.884 173.391H237.475C237.55 173.39 237.624 173.404 237.694 173.432C237.763 173.46 237.827 173.502 237.88 173.554C237.933 173.607 237.976 173.67 238.004 173.739C238.033 173.808 238.048 173.882 238.048 173.957C238.048 174.032 238.033 174.106 238.004 174.176C237.976 174.245 237.933 174.308 237.88 174.36C237.827 174.413 237.763 174.455 237.694 174.483C237.624 174.511 237.55 174.525 237.475 174.524Z" fill="white"/>
<path d="M234.706 160.729H189.111C188.662 160.729 188.299 161.093 188.299 161.541V171.935C188.299 172.383 188.662 172.747 189.111 172.747H234.706C235.154 172.747 235.517 172.383 235.517 171.935V161.541C235.517 161.093 235.154 160.729 234.706 160.729Z" fill="#003366"/>
<path opacity="0.2" d="M192.279 161.425H190.411V172.161H192.279V161.425Z" fill="black"/>
<path opacity="0.2" d="M196.523 161.367H195.164V172.103H196.523V161.367Z" fill="black"/>
<path opacity="0.2" d="M200.426 161.425H199.75V172.161H200.426V161.425Z" fill="black"/>
<path opacity="0.2" d="M205.7 161.367H205.359V172.103H205.7V161.367Z" fill="black"/>
<path opacity="0.2" d="M231.537 172.103H233.405V161.367H231.537V172.103Z" fill="black"/>
<path opacity="0.2" d="M227.287 172.154H228.646V161.419H227.287V172.154Z" fill="black"/>
<path opacity="0.2" d="M223.391 172.103H224.067V161.367H223.391V172.103Z" fill="black"/>
<path opacity="0.2" d="M218.116 172.154H218.458V161.419H218.116V172.154Z" fill="black"/>
<path opacity="0.2" d="M211.825 172.154H211.992V161.419H211.825V172.154Z" fill="black"/>
<path opacity="0.2" d="M234.255 162.559H189.658C189.508 162.557 189.365 162.497 189.259 162.391C189.153 162.285 189.093 162.142 189.091 161.992C189.091 161.841 189.151 161.697 189.257 161.591C189.364 161.485 189.508 161.425 189.658 161.425H234.255C234.33 161.424 234.404 161.438 234.473 161.466C234.542 161.495 234.605 161.536 234.658 161.589C234.71 161.642 234.752 161.705 234.78 161.774C234.809 161.843 234.823 161.917 234.822 161.992C234.822 162.142 234.762 162.286 234.656 162.393C234.549 162.499 234.405 162.559 234.255 162.559Z" fill="white"/>
<path d="M233.418 148.738H187.823C187.374 148.738 187.011 149.102 187.011 149.55V159.944C187.011 160.392 187.374 160.755 187.823 160.755H233.418C233.866 160.755 234.229 160.392 234.229 159.944V149.55C234.229 149.102 233.866 148.738 233.418 148.738Z" fill="#003366"/>
<path opacity="0.2" d="M190.991 149.434H189.124V160.169H190.991V149.434Z" fill="black"/>
<path opacity="0.2" d="M195.235 149.382H193.876V160.118H195.235V149.382Z" fill="black"/>
<path opacity="0.2" d="M199.144 149.434H198.461V160.169H199.144V149.434Z" fill="black"/>
<path opacity="0.2" d="M204.412 149.382H204.071V160.118H204.412V149.382Z" fill="black"/>
<path opacity="0.2" d="M230.249 160.111H232.117V149.376H230.249V160.111Z" fill="black"/>
<path opacity="0.2" d="M225.999 160.169H227.358V149.434H225.999V160.169Z" fill="black"/>
<path opacity="0.2" d="M222.096 160.111H222.772V149.376H222.096V160.111Z" fill="black"/>
<path opacity="0.2" d="M216.835 160.169H217.176V149.434H216.835V160.169Z" fill="black"/>
<path opacity="0.2" d="M210.536 160.169H210.704V149.434H210.536V160.169Z" fill="black"/>
<path opacity="0.2" d="M232.967 150.567H188.37C188.295 150.568 188.221 150.554 188.152 150.526C188.083 150.498 188.02 150.456 187.967 150.403C187.915 150.35 187.873 150.288 187.845 150.218C187.816 150.149 187.802 150.075 187.803 150C187.802 149.926 187.816 149.852 187.845 149.783C187.873 149.713 187.915 149.651 187.967 149.598C188.02 149.545 188.083 149.503 188.152 149.475C188.221 149.447 188.295 149.433 188.37 149.434H232.967C233.042 149.433 233.116 149.447 233.185 149.475C233.254 149.503 233.317 149.545 233.37 149.598C233.422 149.651 233.464 149.713 233.492 149.783C233.52 149.852 233.535 149.926 233.534 150C233.535 150.075 233.52 150.149 233.492 150.218C233.464 150.288 233.422 150.35 233.37 150.403C233.317 150.456 233.254 150.498 233.185 150.526C233.116 150.554 233.042 150.568 232.967 150.567Z" fill="white"/>
<path d="M178.002 256.628H132.406C131.958 256.628 131.595 256.991 131.595 257.439V267.833C131.595 268.281 131.958 268.645 132.406 268.645H178.002C178.45 268.645 178.813 268.281 178.813 267.833V257.439C178.813 256.991 178.45 256.628 178.002 256.628Z" fill="#003366"/>
<path opacity="0.2" d="M135.568 257.323H133.701V268.059H135.568V257.323Z" fill="black"/>
<path opacity="0.2" d="M139.819 257.272H138.46V268.007H139.819V257.272Z" fill="black"/>
<path opacity="0.2" d="M143.721 257.323H143.045V268.059H143.721V257.323Z" fill="black"/>
<path opacity="0.2" d="M148.989 257.272H148.648V268.007H148.989V257.272Z" fill="black"/>
<path opacity="0.2" d="M174.833 268.007H176.701V257.272H174.833V268.007Z" fill="black"/>
<path opacity="0.2" d="M170.583 268.059H171.942V257.323H170.583V268.059Z" fill="black"/>
<path opacity="0.2" d="M166.68 268.007H167.356V257.272H166.68V268.007Z" fill="black"/>
<path opacity="0.2" d="M161.412 268.059H161.753V257.323H161.412V268.059Z" fill="black"/>
<path opacity="0.2" d="M155.12 268.059H155.288V257.323H155.12V268.059Z" fill="black"/>
<path opacity="0.2" d="M177.551 258.457H132.954C132.879 258.457 132.805 258.443 132.736 258.415C132.667 258.387 132.604 258.345 132.551 258.292C132.498 258.24 132.457 258.177 132.428 258.108C132.4 258.039 132.386 257.965 132.387 257.89C132.387 257.74 132.447 257.595 132.553 257.489C132.659 257.383 132.803 257.323 132.954 257.323H177.551C177.701 257.325 177.844 257.385 177.95 257.491C178.056 257.597 178.116 257.74 178.117 257.89C178.117 258.04 178.058 258.184 177.952 258.291C177.845 258.397 177.701 258.457 177.551 258.457Z" fill="white"/>
<path d="M176.063 244.643H130.468C130.02 244.643 129.656 245.006 129.656 245.454V255.848C129.656 256.296 130.02 256.66 130.468 256.66H176.063C176.511 256.66 176.875 256.296 176.875 255.848V245.454C176.875 245.006 176.511 244.643 176.063 244.643Z" fill="#003366"/>
<path opacity="0.2" d="M133.636 245.338H131.769V256.074H133.636V245.338Z" fill="black"/>
<path opacity="0.2" d="M137.887 245.287H136.528V256.022H137.887V245.287Z" fill="black"/>
<path opacity="0.2" d="M141.789 245.338H141.113V256.074H141.789V245.338Z" fill="black"/>
<path opacity="0.2" d="M147.057 245.287H146.716V256.022H147.057V245.287Z" fill="black"/>
<path opacity="0.2" d="M172.901 256.016H174.769V245.28H172.901V256.016Z" fill="black"/>
<path opacity="0.2" d="M168.651 256.067H170.01V245.332H168.651V256.067Z" fill="black"/>
<path opacity="0.2" d="M164.748 256.016H165.424V245.28H164.748V256.016Z" fill="black"/>
<path opacity="0.2" d="M159.474 256.067H159.815V245.332H159.474V256.067Z" fill="black"/>
<path opacity="0.2" d="M153.182 256.067H153.349V245.332H153.182V256.067Z" fill="black"/>
<path opacity="0.2" d="M175.612 246.472H131.015C130.866 246.47 130.722 246.41 130.616 246.304C130.511 246.198 130.45 246.055 130.449 245.905C130.449 245.755 130.508 245.611 130.615 245.504C130.721 245.398 130.865 245.338 131.015 245.338H175.612C175.687 245.337 175.761 245.352 175.83 245.38C175.899 245.408 175.962 245.45 176.015 245.502C176.068 245.555 176.109 245.618 176.138 245.687C176.166 245.756 176.18 245.83 176.179 245.905C176.179 246.055 176.119 246.199 176.013 246.306C175.907 246.412 175.763 246.472 175.612 246.472Z" fill="white"/>
<path d="M178.002 232.658H132.406C131.958 232.658 131.595 233.021 131.595 233.469V243.864C131.595 244.312 131.958 244.675 132.406 244.675H178.002C178.45 244.675 178.813 244.312 178.813 243.864V233.469C178.813 233.021 178.45 232.658 178.002 232.658Z" fill="#003366"/>
<path opacity="0.2" d="M135.568 233.347H133.701V244.082H135.568V233.347Z" fill="black"/>
<path opacity="0.2" d="M139.819 233.295H138.46V244.031H139.819V233.295Z" fill="black"/>
<path opacity="0.2" d="M143.721 233.347H143.045V244.082H143.721V233.347Z" fill="black"/>
<path opacity="0.2" d="M148.989 233.295H148.648V244.031H148.989V233.295Z" fill="black"/>
<path opacity="0.2" d="M174.833 244.031H176.701V233.295H174.833V244.031Z" fill="black"/>
<path opacity="0.2" d="M170.583 244.083H171.942V233.347H170.583V244.083Z" fill="black"/>
<path opacity="0.2" d="M166.68 244.031H167.356V233.295H166.68V244.031Z" fill="black"/>
<path opacity="0.2" d="M161.412 244.083H161.753V233.347H161.412V244.083Z" fill="black"/>
<path opacity="0.2" d="M155.12 244.083H155.288V233.347H155.12V244.083Z" fill="black"/>
<path opacity="0.2" d="M177.551 234.48H132.954C132.879 234.481 132.805 234.467 132.736 234.439C132.667 234.411 132.604 234.369 132.551 234.316C132.498 234.264 132.457 234.201 132.428 234.132C132.4 234.062 132.386 233.988 132.387 233.914C132.387 233.763 132.447 233.619 132.553 233.513C132.659 233.407 132.803 233.347 132.954 233.347H177.551C177.701 233.349 177.844 233.409 177.95 233.515C178.056 233.621 178.116 233.764 178.117 233.914C178.117 234.064 178.058 234.208 177.952 234.314C177.845 234.421 177.701 234.48 177.551 234.48Z" fill="white"/>
<path d="M176.707 220.667H131.112C130.664 220.667 130.3 221.03 130.3 221.478V231.872C130.3 232.32 130.664 232.684 131.112 232.684H176.707C177.155 232.684 177.519 232.32 177.519 231.872V221.478C177.519 221.03 177.155 220.667 176.707 220.667Z" fill="#003366"/>
<path opacity="0.2" d="M134.28 221.362H132.413V232.098H134.28V221.362Z" fill="black"/>
<path opacity="0.2" d="M138.531 221.311H137.172V232.046H138.531V221.311Z" fill="black"/>
<path opacity="0.2" d="M142.433 221.362H141.757V232.098H142.433V221.362Z" fill="black"/>
<path opacity="0.2" d="M147.701 221.311H147.36V232.046H147.701V221.311Z" fill="black"/>
<path opacity="0.2" d="M173.545 232.04H175.413V221.304H173.545V232.04Z" fill="black"/>
<path opacity="0.2" d="M169.295 232.091H170.654V221.356H169.295V232.091Z" fill="black"/>
<path opacity="0.2" d="M165.386 232.04H166.068V221.304H165.386V232.04Z" fill="black"/>
<path opacity="0.2" d="M160.118 232.091H160.459V221.356H160.118V232.091Z" fill="black"/>
<path opacity="0.2" d="M153.832 232.091H154V221.356H153.832V232.091Z" fill="black"/>
<path opacity="0.2" d="M176.256 222.496H131.666C131.515 222.496 131.37 222.436 131.263 222.33C131.155 222.224 131.094 222.08 131.093 221.929C131.093 221.854 131.108 221.78 131.136 221.71C131.165 221.641 131.208 221.578 131.261 221.526C131.314 221.473 131.377 221.431 131.447 221.403C131.516 221.375 131.591 221.361 131.666 221.362H176.256C176.331 221.361 176.406 221.375 176.475 221.403C176.545 221.431 176.608 221.473 176.661 221.526C176.715 221.578 176.757 221.641 176.786 221.71C176.815 221.78 176.83 221.854 176.83 221.929C176.828 222.08 176.767 222.224 176.659 222.33C176.552 222.436 176.407 222.496 176.256 222.496Z" fill="white"/>
<path d="M176.707 208.682H131.112C130.664 208.682 130.3 209.045 130.3 209.493V219.887C130.3 220.336 130.664 220.699 131.112 220.699H176.707C177.155 220.699 177.519 220.336 177.519 219.887V209.493C177.519 209.045 177.155 208.682 176.707 208.682Z" fill="#003366"/>
<path opacity="0.2" d="M134.28 209.371H132.413V220.106H134.28V209.371Z" fill="black"/>
<path opacity="0.2" d="M138.531 209.319H137.172V220.055H138.531V209.319Z" fill="black"/>
<path opacity="0.2" d="M142.433 209.371H141.757V220.106H142.433V209.371Z" fill="black"/>
<path opacity="0.2" d="M147.701 209.319H147.36V220.055H147.701V209.319Z" fill="black"/>
<path opacity="0.2" d="M173.545 220.055H175.413V209.319H173.545V220.055Z" fill="black"/>
<path opacity="0.2" d="M169.295 220.106H170.654V209.371H169.295V220.106Z" fill="black"/>
<path opacity="0.2" d="M165.386 220.055H166.068V209.319H165.386V220.055Z" fill="black"/>
<path opacity="0.2" d="M160.118 220.106H160.459V209.371H160.118V220.106Z" fill="black"/>
<path opacity="0.2" d="M153.832 220.106H154V209.371H153.832V220.106Z" fill="black"/>
<path opacity="0.2" d="M176.256 210.504H131.666C131.591 210.505 131.516 210.491 131.447 210.463C131.377 210.435 131.314 210.393 131.261 210.341C131.208 210.288 131.165 210.225 131.136 210.156C131.108 210.087 131.093 210.013 131.093 209.938C131.094 209.787 131.155 209.643 131.263 209.536C131.37 209.43 131.515 209.371 131.666 209.371H176.256C176.407 209.371 176.552 209.43 176.659 209.536C176.767 209.643 176.828 209.787 176.83 209.938C176.83 210.013 176.815 210.087 176.786 210.156C176.757 210.225 176.715 210.288 176.661 210.341C176.608 210.393 176.545 210.435 176.475 210.463C176.406 210.491 176.331 210.505 176.256 210.504Z" fill="white"/>
<path d="M176.707 196.691H131.112C130.664 196.691 130.3 197.054 130.3 197.502V207.896C130.3 208.344 130.664 208.708 131.112 208.708H176.707C177.155 208.708 177.519 208.344 177.519 207.896V197.502C177.519 197.054 177.155 196.691 176.707 196.691Z" fill="#003366"/>
<path opacity="0.2" d="M134.28 197.386H132.413V208.121H134.28V197.386Z" fill="black"/>
<path opacity="0.2" d="M138.531 197.334H137.172V208.07H138.531V197.334Z" fill="black"/>
<path opacity="0.2" d="M142.433 197.386H141.757V208.121H142.433V197.386Z" fill="black"/>
<path opacity="0.2" d="M147.701 197.334H147.36V208.07H147.701V197.334Z" fill="black"/>
<path opacity="0.2" d="M173.545 208.063H175.413V197.328H173.545V208.063Z" fill="black"/>
<path opacity="0.2" d="M169.295 208.115H170.654V197.38H169.295V208.115Z" fill="black"/>
<path opacity="0.2" d="M165.386 208.063H166.068V197.328H165.386V208.063Z" fill="black"/>
<path opacity="0.2" d="M160.118 208.115H160.459V197.38H160.118V208.115Z" fill="black"/>
<path opacity="0.2" d="M153.832 208.115H154V197.38H153.832V208.115Z" fill="black"/>
<path opacity="0.2" d="M176.256 198.519H131.666C131.591 198.52 131.516 198.506 131.447 198.478C131.377 198.45 131.314 198.408 131.261 198.356C131.208 198.303 131.165 198.24 131.136 198.171C131.108 198.102 131.093 198.028 131.093 197.953C131.093 197.878 131.108 197.804 131.136 197.734C131.165 197.665 131.208 197.602 131.261 197.55C131.314 197.497 131.377 197.455 131.447 197.427C131.516 197.399 131.591 197.385 131.666 197.386H176.256C176.331 197.385 176.406 197.399 176.475 197.427C176.545 197.455 176.608 197.497 176.661 197.55C176.715 197.602 176.757 197.665 176.786 197.734C176.815 197.804 176.83 197.878 176.83 197.953C176.83 198.028 176.815 198.102 176.786 198.171C176.757 198.24 176.715 198.303 176.661 198.356C176.608 198.408 176.545 198.45 176.475 198.478C176.406 198.506 176.331 198.52 176.256 198.519Z" fill="white"/>
<path d="M177.267 172.586H131.672C131.224 172.586 130.861 172.949 130.861 173.397V183.791C130.861 184.239 131.224 184.603 131.672 184.603H177.267C177.716 184.603 178.079 184.239 178.079 183.791V173.397C178.079 172.949 177.716 172.586 177.267 172.586Z" fill="#003366"/>
<path opacity="0.2" d="M134.841 173.281H132.973V184.017H134.841V173.281Z" fill="black"/>
<path opacity="0.2" d="M139.091 173.23H137.732V183.965H139.091V173.23Z" fill="black"/>
<path opacity="0.2" d="M142.994 173.281H142.318V184.017H142.994V173.281Z" fill="black"/>
<path opacity="0.2" d="M148.262 173.23H147.92V183.965H148.262V173.23Z" fill="black"/>
<path opacity="0.2" d="M174.105 183.959H175.973V173.223H174.105V183.959Z" fill="black"/>
<path opacity="0.2" d="M169.855 184.017H171.214V173.281H169.855V184.017Z" fill="black"/>
<path opacity="0.2" d="M165.952 183.959H166.629V173.223H165.952V183.959Z" fill="black"/>
<path opacity="0.2" d="M160.678 184.017H161.019V173.281H160.678V184.017Z" fill="black"/>
<path opacity="0.2" d="M154.393 184.017H154.56V173.281H154.393V184.017Z" fill="black"/>
<path opacity="0.2" d="M176.817 174.415H132.226C132.151 174.415 132.077 174.401 132.007 174.373C131.938 174.345 131.874 174.304 131.821 174.251C131.768 174.198 131.726 174.135 131.697 174.066C131.668 173.997 131.653 173.923 131.653 173.848C131.655 173.697 131.716 173.553 131.823 173.447C131.93 173.341 132.075 173.281 132.226 173.281H176.817C176.968 173.281 177.112 173.341 177.22 173.447C177.327 173.553 177.388 173.697 177.39 173.848C177.39 173.923 177.375 173.997 177.346 174.066C177.317 174.135 177.275 174.198 177.222 174.251C177.168 174.304 177.105 174.345 177.035 174.373C176.966 174.401 176.892 174.415 176.817 174.415Z" fill="white"/>
<path d="M178.002 184.706H132.406C131.958 184.706 131.595 185.069 131.595 185.517V195.911C131.595 196.359 131.958 196.723 132.406 196.723H178.002C178.45 196.723 178.813 196.359 178.813 195.911V185.517C178.813 185.069 178.45 184.706 178.002 184.706Z" fill="#003366"/>
<path opacity="0.2" d="M135.568 185.395H133.701V196.13H135.568V185.395Z" fill="black"/>
<path opacity="0.2" d="M139.819 185.343H138.46V196.079H139.819V185.343Z" fill="black"/>
<path opacity="0.2" d="M143.721 185.395H143.045V196.13H143.721V185.395Z" fill="black"/>
<path opacity="0.2" d="M148.989 185.343H148.648V196.079H148.989V185.343Z" fill="black"/>
<path opacity="0.2" d="M174.833 196.079H176.701V185.343H174.833V196.079Z" fill="black"/>
<path opacity="0.2" d="M170.583 196.13H171.942V185.395H170.583V196.13Z" fill="black"/>
<path opacity="0.2" d="M166.68 196.079H167.356V185.343H166.68V196.079Z" fill="black"/>
<path opacity="0.2" d="M161.412 196.13H161.753V185.395H161.412V196.13Z" fill="black"/>
<path opacity="0.2" d="M155.12 196.13H155.288V185.395H155.12V196.13Z" fill="black"/>
<path opacity="0.2" d="M177.551 186.535H132.954C132.879 186.535 132.805 186.52 132.735 186.491C132.666 186.462 132.603 186.42 132.551 186.366C132.498 186.313 132.456 186.25 132.428 186.18C132.4 186.111 132.386 186.036 132.387 185.961C132.387 185.811 132.447 185.667 132.553 185.561C132.659 185.454 132.803 185.395 132.954 185.395H177.551C177.701 185.396 177.844 185.457 177.95 185.563C178.056 185.669 178.116 185.812 178.117 185.961C178.117 186.112 178.058 186.257 177.952 186.365C177.846 186.472 177.702 186.533 177.551 186.535Z" fill="white"/>
<path d="M161.051 165.064L159.609 167.884L158.141 170.75L155.571 169.81L156.859 167.292L158.482 164.123L161.051 165.064Z" fill="#FFC2BC"/>
<path opacity="0.2" d="M161.052 165.064L159.609 167.884L156.859 167.292L158.482 164.123L161.052 165.064Z" fill="black"/>
<path d="M217.17 149.112C217.092 149.112 217.017 149.084 216.959 149.033C216.901 148.982 216.864 148.912 216.854 148.835C216.764 148.191 208.302 85.0789 198.088 57.3869C198.067 57.3465 198.055 57.3022 198.053 57.2569C198.051 57.2117 198.058 57.1664 198.074 57.1241C198.091 57.0819 198.116 57.0435 198.148 57.0116C198.18 56.9797 198.219 56.9549 198.261 56.939C198.304 56.923 198.349 56.9162 198.394 56.9189C198.439 56.9217 198.484 56.934 198.524 56.955C198.564 56.976 198.599 57.0052 198.627 57.0408C198.655 57.0764 198.676 57.1175 198.687 57.1615C208.933 84.905 217.408 148.12 217.492 148.764C217.503 148.849 217.48 148.935 217.428 149.004C217.376 149.073 217.3 149.118 217.215 149.131L217.17 149.112Z" fill="#263238"/>
<path d="M200.864 147.296L203.601 147.186L204.135 140.836L201.392 140.946L200.864 147.296Z" fill="#FFC2BC"/>
<path d="M203.858 145.737L200.87 145.641C200.815 145.641 200.762 145.658 200.718 145.691C200.674 145.723 200.642 145.769 200.625 145.821L199.981 148.23C199.966 148.288 199.964 148.349 199.975 148.408C199.986 148.467 200.011 148.523 200.047 148.571C200.083 148.619 200.129 148.659 200.182 148.687C200.236 148.715 200.295 148.73 200.355 148.732C201.437 148.732 203.002 148.732 204.361 148.77C205.945 148.822 206.937 148.77 208.817 148.803C209.938 148.835 210.298 147.714 209.828 147.598C207.703 147.064 206.312 147.16 204.509 145.969C204.317 145.834 204.092 145.754 203.858 145.737Z" fill="#263238"/>
<path opacity="0.2" d="M204.135 140.836L203.858 144.108L201.121 144.224L201.392 140.946L204.135 140.836Z" fill="black"/>
<path d="M199.749 124.292C200.445 125.625 200.496 139.6 200.496 143.148H205.23C205.842 139.471 208.868 119.726 204.586 116.905C199.872 113.795 187.919 114.864 187.919 114.864L187.056 113.119L185.33 109.641L175.438 113.344L173.281 114.143L172.392 114.477H172.315C172.315 114.477 172.315 114.574 172.315 114.741C172.347 115.128 172.437 115.907 172.598 116.88C172.785 118.046 173.048 119.199 173.384 120.331C174.299 123.313 175.921 126.127 178.742 125.187C178.865 125.149 178.987 125.097 179.109 125.045C179.341 124.942 179.592 124.846 179.85 124.749C182.111 124.021 184.45 123.56 186.818 123.378C192.794 122.811 199.221 123.262 199.749 124.292Z" fill="#263238"/>
<path d="M205.442 143.56L199.911 143.709L199.878 141.925L205.958 141.674L205.442 143.56Z" fill="#003366"/>
<path d="M158.617 169.372H155.281C155.227 169.372 155.175 169.391 155.133 169.425C155.09 169.459 155.061 169.506 155.049 169.559L154.483 171.987C154.469 172.045 154.469 172.107 154.482 172.166C154.496 172.225 154.522 172.28 154.56 172.327C154.598 172.374 154.646 172.412 154.701 172.438C154.755 172.464 154.815 172.477 154.876 172.476C155.951 172.476 156.737 172.392 158.096 172.392C158.926 172.392 161.431 172.482 162.604 172.482C163.776 172.482 163.892 171.343 163.441 171.24C161.341 170.782 159.757 170.145 159.087 169.539C159.024 169.482 158.95 169.437 158.869 169.408C158.788 169.38 158.703 169.367 158.617 169.372Z" fill="#263238"/>
<path d="M182.896 114.452L182.323 116.429C182.02 117.485 181.602 118.921 181.112 120.589L179.889 124.756C177.802 131.807 175.149 140.611 173.68 144.791C170.757 153.085 160.974 167.839 160.974 167.839L156.267 166.113C156.267 166.113 163.492 152.216 165.862 143.805C167.517 137.932 170.113 127.377 171.819 120.286L172.637 116.886C172.914 115.727 173.139 114.78 173.281 114.117C173.423 113.453 173.539 113.028 173.539 113.028L175.438 113.318L182.896 114.452Z" fill="#263238"/>
<path d="M161.483 168.148L155.945 166.113L156.569 164.465L162.475 166.255L161.483 168.148Z" fill="#003366"/>
<path opacity="0.2" d="M187.075 113.112L182.896 117.987L182.323 116.429L181.679 114.729L181.093 120.589L173.403 120.338L171.8 120.286L172.618 116.886C172.457 115.914 172.367 115.134 172.334 114.748L172.386 114.458L173.275 114.123C173.442 113.428 173.532 113.035 173.532 113.035L175.432 113.325L185.343 109.641L187.075 113.112Z" fill="black"/>
<path opacity="0.2" d="M186.844 123.384C184.2 123.561 181.597 124.123 179.116 125.052C178.993 125.103 178.871 125.155 178.749 125.194L179.309 122.437C179.309 122.437 184.133 122.212 186.844 123.384Z" fill="black"/>
<path d="M150.876 115.759L149.195 117.987L147.772 115.276C147.772 115.276 149.389 113.376 150.348 114.252L150.876 115.759Z" fill="#FFC2BC"/>
<path d="M146.626 119.005L146.207 116.229L147.772 115.244L149.195 117.987L146.626 119.005Z" fill="#FFC2BC"/>
<path d="M151.334 115.553L150.863 115.791L150.168 114.027L150.915 113.666L151.334 115.553Z" fill="white"/>
<path d="M170.08 99.4723C169.836 99.9016 169.585 100.314 169.327 100.709C168.679 101.765 168 102.804 167.292 103.826L166.706 104.669C166.113 105.519 165.489 106.35 164.819 107.181C164.484 107.593 164.143 108.012 163.763 108.424C163.382 108.856 162.975 109.264 162.546 109.648C160.898 111.05 159.086 112.246 157.149 113.209C155.282 114.174 153.344 114.996 151.353 115.669L150.516 113.788C151.353 113.28 152.222 112.758 153.053 112.217C153.884 111.676 154.727 111.142 155.532 110.575C156.337 110.008 157.13 109.435 157.877 108.836C158.611 108.261 159.308 107.639 159.963 106.975C161.2 105.538 162.313 104 163.293 102.377C164.368 100.709 165.727 97.785 166.79 96.1171L170.08 99.4723Z" fill="#263238"/>
<path opacity="0.2" d="M169.327 100.709C168.679 101.765 168 102.804 167.292 103.826C167.364 102.471 167.74 101.15 168.393 99.9617C168.781 100.096 169.111 100.36 169.327 100.709Z" fill="black"/>
<path d="M206.254 92.5363L204.386 94.2751L204.65 95.8851C205.333 96.7867 206.904 95.6726 207.271 95.3893C207.33 95.3466 207.392 95.31 207.458 95.2798L208.45 94.8805C208.625 94.8076 208.771 94.6776 208.863 94.5117C208.956 94.3457 208.989 94.1535 208.959 93.966L208.765 92.7811C208.748 92.6698 208.708 92.5634 208.648 92.4681C208.588 92.3729 208.509 92.2909 208.416 92.227C208.323 92.1632 208.218 92.1188 208.108 92.0967C207.998 92.0746 207.884 92.0752 207.774 92.0984L206.66 92.3238C206.506 92.3535 206.365 92.4274 206.254 92.5363Z" fill="#FFC2BC"/>
<path d="M203.955 94.2881L204.47 94.1593L204.766 96.0269L203.955 96.2201V94.2881Z" fill="white"/>
<path d="M204.386 96.2329C202.341 96.6659 200.265 96.9458 198.178 97.0701C196.027 97.237 193.864 97.1375 191.738 96.7738C191.172 96.6656 190.613 96.5237 190.064 96.3488C189.523 96.1814 189.02 96.001 188.518 95.8143C187.52 95.4472 186.586 95.0544 185.614 94.6229L184.474 94.1077C183.611 93.7084 182.761 93.2962 181.898 92.8648C181.254 92.5556 180.655 92.2208 180.037 91.8859L181.692 87.951C183.463 88.8398 185.556 90.044 187.333 90.9263C189.001 91.8231 190.745 92.573 192.543 93.1674C193.445 93.406 194.361 93.5846 195.287 93.702C196.24 93.8372 197.219 93.9209 198.191 93.9982C199.163 94.0755 200.168 94.1206 201.16 94.1334C202.152 94.1463 203.169 94.1785 204.148 94.1914L204.386 96.2329Z" fill="#263238"/>
<path opacity="0.2" d="M184.454 94.1078C183.592 93.7085 182.741 93.2963 181.878 92.8648L181.544 91.0359C182.832 91.7027 183.858 92.7851 184.454 94.1078Z" fill="black"/>
<path d="M167.363 95.7628C168.427 98.381 169.276 101.082 169.9 103.839C170.364 105.771 172.006 107.703 172.289 109.474C172.56 111.427 172.947 113.362 173.448 115.27C175.413 114.213 181.357 112.906 185.343 110.762C185.511 94.713 181.202 88.4534 181.202 88.4534C180.108 88.7317 179.033 89.078 177.982 89.4902L177.287 89.78C175.369 90.6853 173.498 91.6891 171.684 92.7875C171.33 93 170.976 93.219 170.634 93.4315C168.883 94.5778 167.363 95.7628 167.363 95.7628Z" fill="#003366"/>
<path opacity="0.7" d="M167.363 95.7628C168.427 98.381 169.276 101.082 169.9 103.839C170.364 105.771 172.006 107.703 172.289 109.474C172.56 111.427 172.947 113.362 173.448 115.27C175.413 114.213 181.357 112.906 185.343 110.762C185.511 94.713 181.202 88.4534 181.202 88.4534C180.108 88.7317 179.033 89.078 177.982 89.4902L177.287 89.78C175.369 90.6853 173.498 91.6891 171.684 92.7875C171.33 93 170.976 93.219 170.634 93.4315C168.883 94.5778 167.363 95.7628 167.363 95.7628Z" fill="white"/>
<path d="M177.918 95.4601L178.163 93.9725L177.139 93.9081L176.514 94.5972L177.918 95.4601Z" fill="#003366"/>
<path d="M177.139 93.9082C175.245 94.9643 173.371 93.7343 172.16 92.8906L172.032 92.8005C172.566 92.0599 172.618 90.8685 172.444 89.6706C172.238 88.347 171.884 87.0508 171.388 85.8066L175.722 88.2925C175.722 88.5887 175.67 88.8528 175.657 89.0846C175.599 89.6449 175.593 90.0248 175.902 90.2696C176.383 90.5377 176.931 90.6607 177.48 90.6238C177.976 91.1969 178.439 93.1804 177.139 93.9082Z" fill="#FFC2BC"/>
<path d="M170.66 93.4508C170.66 93.4508 176.115 99.1438 180.108 102.241C180.108 102.241 179.811 92.1757 178.008 89.5031L181.718 87.951C181.718 87.951 185.285 95.8336 185.794 108.997L187.404 112.314L182.896 116.899L181.447 113.499L180.475 119.14L171.175 119.964L172.315 113.524L166.822 96.1363L170.66 93.4508Z" fill="#263238"/>
<path d="M177.428 95.1575C177.428 95.1575 178.716 99.5496 178.626 101.894L180.288 102.757L180.584 101.469C180.584 101.469 179.122 95.8079 177.776 94.8162L177.428 95.1575Z" fill="#003366"/>
<path d="M170.853 92.9807C170.853 92.9807 177.667 100.458 180.075 102.241C180.075 102.241 179.373 92.1178 177.808 89.574C177.808 89.574 178.884 88.8334 181.176 91.0681L180.03 93.1933L182.065 94.5972C182.065 94.5972 181.37 102.183 180.03 105.783C180.127 105.023 180.17 104.257 180.159 103.491L172.167 99.0601L172.521 96.6129L169.501 96.4841C169.501 96.4841 169.836 93.5925 170.853 92.9807Z" fill="#263238"/>
<path opacity="0.2" d="M170.853 92.9807C170.853 92.9807 177.667 100.458 180.075 102.241C180.075 102.241 179.373 92.1178 177.808 89.574C177.808 89.574 178.884 88.8334 181.176 91.0681L180.03 93.1933L182.065 94.5972C182.065 94.5972 181.37 102.183 180.03 105.783C180.127 105.023 180.17 104.257 180.159 103.491L172.167 99.0601L172.521 96.6129L169.501 96.4841C169.501 96.4841 169.836 93.5925 170.853 92.9807Z" fill="white"/>
<path d="M198.597 57.8441C198.597 57.8441 194.733 57.4062 192.575 58.4237C190.418 59.4412 188.248 62.7578 184.744 63.0734C181.241 63.3889 180.539 62.249 180.539 62.249C180.539 62.249 183.624 67.723 189.555 67.6651C195.486 67.6071 198.571 66.6282 202.068 68.8307C202.081 68.8307 199.389 59.5507 198.597 57.8441Z" fill="#003366"/>
<path opacity="0.2" d="M175.902 90.2566C175.542 91.3772 174.646 92.9614 172.528 92.9228C172.405 92.9329 172.283 92.9329 172.161 92.9228L172.032 92.8326C172.566 92.092 172.618 90.9006 172.444 89.7028C173.396 89.0864 174.554 88.8711 175.664 89.1039C175.599 89.6319 175.593 90.0119 175.902 90.2566Z" fill="black"/>
<path d="M177.139 93.9081C177.172 94.6863 177.006 95.4601 176.656 96.1557C175.464 95.9882 171.903 94.2237 171.723 92.7489C171.814 92.3949 172.007 92.075 172.276 91.828C173.634 93.0219 175.338 93.7507 177.139 93.9081Z" fill="white"/>
<path d="M177.139 93.9081C177.801 94.0802 178.419 94.3944 178.948 94.8291C179.283 93.4445 177.899 90.115 177.544 89.9346C176.967 89.8787 176.385 89.9765 175.857 90.218C175.857 90.218 177.802 92.0341 177.139 93.9081Z" fill="white"/>
<path d="M167.601 84.4156C167.53 85.5168 168.245 87.5776 169.481 86.5472C170.718 85.5168 167.723 82.5222 167.601 84.4156Z" fill="#263238"/>
<path d="M175.31 83.997C176.108 86.573 176.707 88.067 175.915 89.838C174.717 92.5042 171.136 92.4978 169.572 90.1858C168.168 88.1121 167.092 84.2224 169.211 82.2968C169.679 81.872 170.248 81.5729 170.863 81.4272C171.478 81.2816 172.12 81.2943 172.729 81.4641C173.338 81.6339 173.895 81.9552 174.346 82.3982C174.797 82.8411 175.129 83.3912 175.31 83.997Z" fill="#FFC2BC"/>
<path d="M175.722 80.7189C175.464 79.0317 173.461 79.2699 172.289 80.1587V83.4881C172.742 83.2732 173.173 83.0167 173.577 82.7218C173.577 82.7218 174.035 85.2141 175.561 85.9418C177.506 84.0549 177.667 81.144 175.722 80.7189Z" fill="#263238"/>
<path d="M177.1 85.7421C177.137 86.419 176.906 87.083 176.456 87.5904C175.844 88.2344 175.059 87.8158 174.833 86.9851C174.608 86.1543 174.698 85.008 175.477 84.6538C175.656 84.5793 175.85 84.5503 176.043 84.5692C176.235 84.5881 176.42 84.6545 176.581 84.7622C176.742 84.87 176.873 85.0159 176.964 85.1869C177.054 85.3579 177.101 85.5486 177.1 85.7421Z" fill="#FFC2BC"/>
<path d="M171.716 86.1221C171.793 86.3282 171.716 86.5343 171.607 86.5858C171.497 86.6373 171.297 86.5085 171.22 86.3024C171.143 86.0964 171.22 85.8903 171.33 85.8388C171.439 85.7872 171.632 85.916 171.716 86.1221Z" fill="#263238"/>
<path d="M169.372 86.9787C169.456 87.1848 169.404 87.3908 169.269 87.4424C169.134 87.4939 168.96 87.3651 168.883 87.159C168.805 86.9529 168.85 86.7468 168.986 86.6953C169.121 86.6438 169.288 86.7726 169.372 86.9787Z" fill="#263238"/>
<path d="M170.151 86.8113C170.126 87.5141 170.002 88.2099 169.784 88.8785C169.963 88.9232 170.149 88.9291 170.33 88.8958C170.511 88.8624 170.683 88.7907 170.834 88.6853L170.151 86.8113Z" fill="#ED893E"/>
<path d="M172.244 89.0716L171.98 89.1875C171.964 89.1935 171.946 89.1928 171.93 89.1855C171.915 89.1783 171.902 89.1651 171.896 89.1489C171.891 89.1327 171.891 89.1147 171.898 89.099C171.906 89.0833 171.919 89.0711 171.935 89.0652C172.194 88.9768 172.429 88.8288 172.62 88.633C172.811 88.4372 172.954 88.1992 173.036 87.9382C173.038 87.9296 173.041 87.9215 173.046 87.9142C173.051 87.907 173.057 87.9008 173.064 87.8959C173.071 87.8911 173.079 87.8878 173.088 87.8862C173.096 87.8846 173.105 87.8848 173.114 87.8866C173.122 87.888 173.13 87.8912 173.137 87.8961C173.144 87.9009 173.15 87.9073 173.154 87.9147C173.159 87.922 173.161 87.9303 173.162 87.9388C173.163 87.9473 173.162 87.9559 173.159 87.9639C173.09 88.2012 172.973 88.4219 172.816 88.6124C172.659 88.8029 172.464 88.9592 172.244 89.0716Z" fill="#263238"/>
<path d="M172.154 85.1046C172.133 85.1159 172.11 85.1218 172.086 85.1218C172.063 85.1218 172.04 85.1159 172.019 85.1046C171.884 85.0125 171.728 84.954 171.566 84.9338C171.404 84.9137 171.239 84.9325 171.085 84.9887C171.053 85.0024 171.018 85.0029 170.986 84.9902C170.954 84.9776 170.928 84.9527 170.914 84.9211C170.901 84.8895 170.9 84.8538 170.913 84.8217C170.925 84.7897 170.95 84.7641 170.982 84.7504C171.175 84.6769 171.383 84.6508 171.588 84.6743C171.793 84.6978 171.989 84.7703 172.16 84.8857C172.189 84.9053 172.208 84.9348 172.215 84.9682C172.222 85.0017 172.217 85.0366 172.199 85.066C172.187 85.0818 172.172 85.0949 172.154 85.1046Z" fill="#263238"/>
<path d="M168.084 86.5471C168.059 86.5565 168.032 86.5565 168.007 86.5471C167.99 86.5455 167.973 86.5406 167.958 86.5325C167.943 86.5245 167.93 86.5136 167.919 86.5005C167.908 86.4873 167.9 86.4721 167.896 86.4558C167.891 86.4395 167.889 86.4224 167.891 86.4054C167.909 86.1985 167.977 85.999 168.089 85.824C168.202 85.6491 168.354 85.5039 168.535 85.4008C168.55 85.3931 168.567 85.3885 168.584 85.3872C168.601 85.3859 168.618 85.3881 168.634 85.3935C168.65 85.3988 168.665 85.4074 168.678 85.4186C168.691 85.4298 168.701 85.4435 168.709 85.4588C168.725 85.4887 168.728 85.5237 168.719 85.5563C168.709 85.5889 168.687 85.6163 168.657 85.6326C168.518 85.7163 168.401 85.8328 168.317 85.972C168.232 86.1112 168.184 86.2688 168.174 86.4312C168.173 86.4574 168.163 86.4826 168.147 86.5033C168.131 86.524 168.109 86.5393 168.084 86.5471Z" fill="#263238"/>
<path d="M173.519 82.7411C173.519 82.7411 171.89 84.422 170.299 84.3383C170.728 84.1433 171.119 83.8728 171.452 83.5397C171.452 83.5397 168.342 84.8857 166.809 84.1837C165.276 83.4817 165.45 82.7218 165.45 82.7218C165.45 82.7218 165.624 83.1662 167.112 83.1211C167.112 83.1211 165.824 82.2775 166.345 81.0861C166.42 81.2286 166.529 81.3501 166.663 81.439C166.797 81.528 166.951 81.5816 167.112 81.5948C167.616 80.8176 168.294 80.1678 169.092 79.6963C169.889 79.2248 170.786 78.9444 171.71 78.8771C175.052 78.4972 175.728 79.8174 175.876 80.8091C176.025 81.8009 173.519 82.7411 173.519 82.7411Z" fill="#263238"/>
<path d="M120.003 256.628H74.4078C73.9596 256.628 73.5963 256.991 73.5963 257.439V267.833C73.5963 268.281 73.9596 268.645 74.4078 268.645H120.003C120.451 268.645 120.814 268.281 120.814 267.833V257.439C120.814 256.991 120.451 256.628 120.003 256.628Z" fill="#003366"/>
<path opacity="0.2" d="M77.5762 257.323H75.7086V268.059H77.5762V257.323Z" fill="black"/>
<path opacity="0.2" d="M81.8202 257.272H80.4614V268.007H81.8202V257.272Z" fill="black"/>
<path opacity="0.2" d="M85.7228 257.323H85.0466V268.059H85.7228V257.323Z" fill="black"/>
<path opacity="0.2" d="M90.9907 257.272H90.6494V268.007H90.9907V257.272Z" fill="black"/>
<path opacity="0.2" d="M116.834 268.007H118.702V257.272H116.834V268.007Z" fill="black"/>
<path opacity="0.2" d="M112.591 268.059H113.949V257.323H112.591V268.059Z" fill="black"/>
<path opacity="0.2" d="M108.681 268.007H109.358V257.272H108.681V268.007Z" fill="black"/>
<path opacity="0.2" d="M103.414 268.059H103.755V257.323H103.414V268.059Z" fill="black"/>
<path opacity="0.2" d="M97.1216 268.059H97.2891V257.323H97.1216V268.059Z" fill="black"/>
<path opacity="0.2" d="M119.552 258.457H74.9551C74.8805 258.457 74.8064 258.443 74.7372 258.415C74.6681 258.387 74.6053 258.345 74.5525 258.292C74.4997 258.24 74.458 258.177 74.4298 258.108C74.4016 258.039 74.3875 257.965 74.3884 257.89C74.3884 257.74 74.4481 257.595 74.5544 257.489C74.6607 257.383 74.8048 257.323 74.9551 257.323H119.552C119.702 257.323 119.847 257.383 119.953 257.489C120.059 257.595 120.119 257.74 120.119 257.89C120.12 257.965 120.106 258.039 120.077 258.108C120.049 258.177 120.008 258.24 119.955 258.292C119.902 258.345 119.839 258.387 119.77 258.415C119.701 258.443 119.627 258.457 119.552 258.457Z" fill="white"/>
<path d="M120.647 244.643H75.0517C74.6036 244.643 74.2403 245.006 74.2403 245.454V255.848C74.2403 256.297 74.6036 256.66 75.0517 256.66H120.647C121.095 256.66 121.458 256.297 121.458 255.848V245.454C121.458 245.006 121.095 244.643 120.647 244.643Z" fill="#003366"/>
<path opacity="0.2" d="M78.2203 245.338H76.3527V256.074H78.2203V245.338Z" fill="black"/>
<path opacity="0.2" d="M82.4642 245.287H81.1053V256.022H82.4642V245.287Z" fill="black"/>
<path opacity="0.2" d="M86.3668 245.338H85.6906V256.074H86.3668V245.338Z" fill="black"/>
<path opacity="0.2" d="M91.6412 245.287H91.2999V256.022H91.6412V245.287Z" fill="black"/>
<path opacity="0.2" d="M117.478 256.016H119.346V245.28H117.478V256.016Z" fill="black"/>
<path opacity="0.2" d="M113.228 256.067H114.587V245.332H113.228V256.067Z" fill="black"/>
<path opacity="0.2" d="M109.325 256.016H110.002V245.28H109.325V256.016Z" fill="black"/>
<path opacity="0.2" d="M104.057 256.067H104.399V245.332H104.057V256.067Z" fill="black"/>
<path opacity="0.2" d="M97.7657 256.067H97.9331V245.332H97.7657V256.067Z" fill="black"/>
<path opacity="0.2" d="M120.196 246.472H75.5992C75.4489 246.472 75.3047 246.412 75.1984 246.306C75.0922 246.199 75.0324 246.055 75.0324 245.905C75.0316 245.83 75.0457 245.756 75.0738 245.687C75.102 245.618 75.1437 245.555 75.1965 245.502C75.2493 245.45 75.3121 245.408 75.3813 245.38C75.4504 245.352 75.5245 245.337 75.5992 245.338H120.196C120.271 245.337 120.345 245.352 120.414 245.38C120.483 245.408 120.546 245.45 120.599 245.502C120.652 245.555 120.693 245.618 120.722 245.687C120.75 245.756 120.764 245.83 120.763 245.905C120.763 246.055 120.703 246.199 120.597 246.306C120.491 246.412 120.346 246.472 120.196 246.472Z" fill="white"/>
<path d="M118.071 232.658H72.4757C72.0276 232.658 71.6643 233.021 71.6643 233.469V243.864C71.6643 244.312 72.0276 244.675 72.4757 244.675H118.071C118.519 244.675 118.882 244.312 118.882 243.864V233.469C118.882 233.021 118.519 232.658 118.071 232.658Z" fill="#003366"/>
<path opacity="0.2" d="M75.6378 233.347H73.7702V244.083H75.6378V233.347Z" fill="black"/>
<path opacity="0.2" d="M79.8882 233.296H78.5294V244.031H79.8882V233.296Z" fill="black"/>
<path opacity="0.2" d="M83.7908 233.347H83.1146V244.083H83.7908V233.347Z" fill="black"/>
<path opacity="0.2" d="M89.0587 233.296H88.7174V244.031H89.0587V233.296Z" fill="black"/>
<path opacity="0.2" d="M114.896 244.031H116.764V233.296H114.896V244.031Z" fill="black"/>
<path opacity="0.2" d="M110.659 244.083H112.017V233.347H110.659V244.083Z" fill="black"/>
<path opacity="0.2" d="M106.749 244.031H107.426V233.296H106.749V244.031Z" fill="black"/>
<path opacity="0.2" d="M101.481 244.083H101.823V233.347H101.481V244.083Z" fill="black"/>
<path opacity="0.2" d="M95.1896 244.083H95.3571V233.347H95.1896V244.083Z" fill="black"/>
<path opacity="0.2" d="M117.62 234.48H73.0232C72.9485 234.481 72.8744 234.467 72.8053 234.439C72.7361 234.411 72.6733 234.369 72.6205 234.316C72.5677 234.264 72.526 234.201 72.4978 234.132C72.4697 234.063 72.4556 233.988 72.4565 233.914C72.4565 233.763 72.5162 233.619 72.6224 233.513C72.7287 233.407 72.8729 233.347 73.0232 233.347H117.62C117.77 233.349 117.913 233.409 118.019 233.515C118.125 233.621 118.185 233.764 118.187 233.914C118.187 234.064 118.127 234.208 118.021 234.315C117.915 234.421 117.77 234.48 117.62 234.48Z" fill="white"/>
<path d="M92.3883 224.711L91.0938 227.899L90.1149 230.307L87.6548 229.432L88.5371 227.268L89.9282 223.829L92.3883 224.711Z" fill="#E4897B"/>
<path d="M144.964 207.645L142.871 209.197L142.105 207.497L140.328 203.568L142.421 202.01L144.101 205.732L144.964 207.645Z" fill="#E4897B"/>
<path opacity="0.2" d="M89.9282 223.829L92.3882 224.711L91.0938 227.899L88.5371 227.268L89.9282 223.829Z" fill="black"/>
<path opacity="0.2" d="M144.101 205.732L142.105 207.497L140.328 203.568L142.421 202.01L144.101 205.732Z" fill="black"/>
<path d="M110.852 136.451C110.923 136.65 111.084 136.773 111.212 136.728C111.341 136.683 111.393 136.483 111.322 136.283C111.251 136.084 111.09 135.961 110.961 136.006C110.832 136.051 110.768 136.251 110.852 136.451Z" fill="#263238"/>
<path d="M111.064 136.779C111.515 137.301 112.035 137.758 112.61 138.138C112.51 138.284 112.379 138.406 112.227 138.495C112.074 138.584 111.904 138.638 111.728 138.653L111.064 136.779Z" fill="#DE5753"/>
<path d="M109.738 135.607C109.708 135.616 109.677 135.616 109.647 135.607C109.626 135.584 109.614 135.555 109.614 135.523C109.614 135.492 109.626 135.462 109.647 135.44C109.755 135.277 109.9 135.141 110.07 135.045C110.24 134.949 110.431 134.894 110.626 134.886C110.659 134.888 110.69 134.902 110.713 134.926C110.736 134.95 110.749 134.982 110.749 135.015C110.749 135.031 110.745 135.048 110.739 135.063C110.732 135.078 110.723 135.092 110.711 135.104C110.699 135.115 110.684 135.124 110.669 135.13C110.653 135.135 110.636 135.138 110.62 135.137C110.465 135.144 110.314 135.187 110.179 135.265C110.045 135.342 109.931 135.451 109.847 135.581C109.832 135.593 109.814 135.601 109.795 135.606C109.776 135.61 109.757 135.611 109.738 135.607Z" fill="#263238"/>
<path d="M106.086 139.697C106.118 141.629 105.874 145.145 104.334 146.169C104.334 146.169 104.508 148.165 107.999 148.783C111.863 149.472 110.175 147.206 110.175 147.206C108.173 146.336 108.501 144.791 109.126 143.393L106.086 139.697Z" fill="#E4897B"/>
<path d="M104.09 138.363C105.094 140.746 105.564 142.227 107.239 143.013C109.75 144.237 112.391 142.06 112.088 139.426C111.843 137.05 110.233 133.553 107.503 133.424C106.902 133.393 106.304 133.517 105.764 133.782C105.224 134.048 104.761 134.447 104.419 134.942C104.077 135.437 103.868 136.011 103.81 136.61C103.752 137.209 103.849 137.812 104.09 138.363Z" fill="#E4897B"/>
<path d="M105.79 142.24C106.923 142.698 110.485 140.147 109.267 137.211C109.267 137.211 110.485 135.246 110.047 133.347C109.609 131.447 108.179 130.874 106.827 131.492C105.629 132.033 105.758 132.709 105.758 132.709C105.758 132.709 99.9617 134.229 101.546 136.451C99.5044 139.387 104.367 141.68 105.79 142.24Z" fill="#263238"/>
<path d="M108.314 137.88C108.569 138.471 109.01 138.961 109.57 139.278C110.317 139.684 110.749 139.117 110.594 138.363C110.44 137.61 109.905 136.657 109.132 136.56C108.359 136.464 108.018 137.172 108.314 137.88Z" fill="#E4897B"/>
<path d="M103.407 146.188C103.137 145.647 102.84 145.029 103.497 144.861C104.154 144.694 108.817 144.424 110.15 144.861C109.712 145.589 110.388 146.517 110.388 146.517L103.407 146.188Z" fill="#003366"/>
<path opacity="0.5" d="M103.407 146.188C103.137 145.647 102.84 145.029 103.497 144.861C104.154 144.694 108.817 144.424 110.15 144.861C109.712 145.589 110.388 146.517 110.388 146.517L103.407 146.188Z" fill="#FAFAFA"/>
<path d="M90.2823 229.264H87.4359C87.3842 229.264 87.3343 229.283 87.2945 229.315C87.2546 229.348 87.2272 229.394 87.2169 229.444L86.7017 231.763C86.6878 231.819 86.687 231.877 86.6994 231.933C86.7118 231.99 86.7371 232.042 86.7732 232.087C86.8094 232.132 86.8555 232.168 86.9079 232.192C86.9603 232.216 87.0176 232.228 87.0752 232.226C88.0992 232.226 89.5868 232.149 90.8748 232.149C92.3882 232.149 93.6891 232.233 95.4601 232.233C96.5356 232.233 96.8318 231.151 96.381 231.054C94.3395 230.604 92.678 230.558 90.9135 229.47C90.7257 229.345 90.5075 229.274 90.2823 229.264Z" fill="#263238"/>
<path d="M108.701 169.211C108.701 169.211 107.889 174.679 106.904 180.964C106.473 183.656 106.009 186.496 105.552 189.124C105.043 192.067 104.547 194.733 104.135 196.613C102.338 204.792 92.8004 227.332 92.8004 227.332L88.1314 226.321C88.1314 226.321 94.8032 208.785 96.2909 197.341C97.4436 188.563 99.7041 169.205 99.7041 169.205L108.701 169.211Z" fill="#263238"/>
<path d="M93.9145 225.767L93.0451 227.454L87.7901 226.315L88.228 224.756L93.9145 225.767Z" fill="#003366"/>
<path opacity="0.3" d="M93.9145 225.767L93.0451 227.454L87.7901 226.315L88.228 224.756L93.9145 225.767Z" fill="black"/>
<path opacity="0.2" d="M106.904 180.964C106.473 183.656 106.009 186.496 105.552 189.124C104.264 183.926 104.682 180.816 104.682 180.816L106.904 180.964Z" fill="black"/>
<path d="M101.069 150.96C99.8136 152.145 98.4934 153.401 97.2955 154.657C96.0851 155.886 94.9373 157.176 93.8566 158.521C93.3954 159.187 92.9801 159.884 92.6136 160.607C92.2144 161.386 91.8086 162.179 91.4222 162.99L89.0588 167.872L87.204 167.228C87.6033 165.418 88.1121 163.653 88.6659 161.882C88.9557 161 89.2648 160.118 89.6062 159.236C89.9661 158.287 90.4078 157.371 90.9264 156.499C91.9728 154.902 93.1489 153.394 94.4426 151.991C95.6936 150.586 97.0269 149.257 98.4354 148.011L101.069 150.96Z" fill="#DC897C"/>
<path d="M87.0495 171.993L87.9962 170.312L85.1111 169.436C84.9484 169.825 84.8689 170.244 84.8778 170.665C84.8867 171.087 84.9837 171.502 85.1626 171.884L87.0495 171.993Z" fill="#E4897B"/>
<path d="M89.0523 167.846L87.204 167.247L85.111 169.436L87.9961 170.312L89.0523 167.846Z" fill="#E4897B"/>
<path d="M144.932 207.291L142.582 209.036C142.541 209.068 142.511 209.112 142.498 209.162C142.486 209.212 142.49 209.265 142.511 209.313L143.477 211.483C143.5 211.536 143.534 211.583 143.579 211.621C143.623 211.658 143.675 211.685 143.731 211.699C143.787 211.712 143.846 211.713 143.902 211.7C143.959 211.687 144.012 211.661 144.056 211.625C144.868 210.981 145.235 210.659 146.265 209.893C146.909 209.422 148.378 208.386 149.26 207.735C150.142 207.085 149.608 206.125 149.189 206.318C147.315 207.162 146.233 207.252 145.37 207.168C145.214 207.155 145.058 207.198 144.932 207.291Z" fill="#263238"/>
<path d="M99.9488 146.433C97.4436 146.278 93.7471 151.694 93.7471 151.694L97.3921 156.672C98.9918 155.739 100.323 154.408 101.256 152.808C102.988 149.885 102.505 146.594 99.9488 146.433Z" fill="#003366"/>
<path opacity="0.6" d="M99.9488 146.433C97.4436 146.278 93.7471 151.694 93.7471 151.694L97.3921 156.672C98.9918 155.739 100.323 154.408 101.256 152.808C102.988 149.885 102.505 146.594 99.9488 146.433Z" fill="#FAFAFA"/>
<path opacity="0.2" d="M100.657 151.43C99.015 152.312 97.9202 154.483 97.2311 156.447L97.3921 156.672C98.9918 155.739 100.323 154.408 101.256 152.808C101.359 152.641 101.456 152.461 101.546 152.287L100.657 151.43Z" fill="black"/>
<path d="M114.774 146.033C114.774 146.033 116.274 149.807 113.647 169.217H99.7041C99.6075 167.073 100.953 156.627 98.8862 146.542C100.428 146.243 101.988 146.045 103.555 145.95C105.339 145.866 111.283 144.662 112.855 144.81C114.922 144.99 114.774 146.033 114.774 146.033Z" fill="#003366"/>
<path opacity="0.6" d="M115.102 154.592C114.935 158.025 114.516 162.752 113.647 169.211H99.7041C99.6075 167.067 100.953 156.621 98.8862 146.536C100.428 146.237 101.988 146.039 103.555 145.943C105.339 145.86 111.283 144.655 112.855 144.804C114.922 144.99 114.787 146.034 114.787 146.034C114.787 146.034 115.102 146.826 115.186 149.55C115.218 150.793 115.212 152.435 115.102 154.592Z" fill="#FAFAFA"/>
<path d="M113.08 168.084L115.836 174.524C115.836 174.524 129.186 176.198 132.973 180.79C136.76 185.382 143.921 204.013 143.921 204.013L140.353 207.046C140.353 207.046 130.114 188.215 127.248 185.942C124.382 183.669 108.07 183.675 104.425 182.316C100.78 180.958 99.7299 169.192 99.7299 169.192L113.08 168.084Z" fill="#263238"/>
<path d="M139.593 206.692L143.895 203.395L144.449 204.457L140.328 207.709L139.593 206.692Z" fill="#003366"/>
<path opacity="0.3" d="M139.593 206.692L143.895 203.395L144.449 204.457L140.328 207.709L139.593 206.692Z" fill="black"/>
<path d="M110.124 134.274C110.124 134.274 109.963 130.449 107.941 130.32C105.919 130.191 104.328 132.02 104.328 132.02C104.132 131.776 103.884 131.579 103.602 131.443C103.32 131.307 103.012 131.236 102.699 131.234C101.552 131.17 99.556 133.121 99.556 133.121C99.556 133.121 102.048 131.589 103.098 132.29C103.098 132.29 100.271 133.076 99.556 134.866C99.2493 135.776 98.7433 136.606 98.0748 137.294H99.556L98.5835 138.949C98.5835 138.949 100.631 140.927 102.177 140.598L101.681 141.538C101.681 141.538 104.714 142.646 105.951 142.305C107.187 141.963 106.015 135.807 106.015 135.807L110.124 134.274Z" fill="#263238"/>
<path opacity="0.2" d="M115.102 154.592C112.571 152.873 112.61 148.912 112.61 148.912L115.186 149.556C115.218 150.793 115.212 152.435 115.102 154.592Z" fill="black"/>
<path d="M91.7571 174.144L74.5559 171.253L70.1058 184.493L72.9523 189.665L91.7314 192.137L95.5374 177.712L91.7571 174.144Z" fill="#003366"/>
<path opacity="0.4" d="M70.1058 184.493L71.2135 186.509L71.4647 186.953L72.9523 189.665L91.7314 192.137L95.5374 177.712L93.921 176.192L93.4251 175.722L91.7636 174.144L74.5559 171.253L70.1058 184.493Z" fill="black"/>
<path opacity="0.2" d="M95.5374 177.712L78.51 175.065L74.5558 171.253L91.7635 174.144L95.5374 177.712Z" fill="white"/>
<path opacity="0.1" d="M78.51 175.065L72.9523 189.665L70.1058 184.493L74.5559 171.253L78.51 175.065Z" fill="white"/>
<path d="M71.2135 186.509L71.4647 186.953L76.6102 173.281L93.9209 176.192L93.4251 175.722L76.3011 172.978L71.2135 186.509Z" fill="#263238"/>
<path d="M88.1121 174.93L87.2427 174.125L82.9086 173.339L83.6685 174.215L88.1121 174.93Z" fill="#263238"/>
<path d="M89.7865 175.252C89.7865 175.252 89.9861 170.705 89.8637 170.403C89.7414 170.1 83.6427 169.115 83.1855 169.018C82.7282 168.921 80.7189 173.352 80.7189 173.352L81.0667 173.887L82.2195 174.041C82.2195 174.041 83.6813 170.222 83.8295 170.126C85.5005 170.303 87.1603 170.574 88.8011 170.937C88.9299 171.04 88.4276 174.511 88.4276 174.511L88.8205 175.078L89.7865 175.252Z" fill="#263238"/>
<path d="M71.2715 182.477L72.5595 184.133L72.6818 183.804L73.6543 181.228L73.7702 180.919L73.9763 180.365C73.9763 180.365 73.6092 180.777 73.1069 181.247C72.586 181.779 71.9612 182.198 71.2715 182.477Z" fill="#003366"/>
<path opacity="0.2" d="M71.6901 182.6L72.6496 183.804L73.6221 181.228L73.738 180.919C73.2042 181.639 72.5008 182.217 71.6901 182.6Z" fill="white"/>
<path opacity="0.2" d="M73.0746 181.241H73.622L73.944 180.378C73.944 180.378 73.577 180.771 73.0746 181.241Z" fill="black"/>
<path d="M70.8013 179.238L70.563 181.569C71.5255 181.13 72.5971 180.986 73.6414 181.157L73.7637 180.835L74.5108 178.832L74.5945 178.626C73.2985 178.499 71.9915 178.71 70.8013 179.238Z" fill="#003366"/>
<path d="M73.2485 175.284C73.6985 176.161 74.2904 176.957 75.0002 177.641L75.0904 177.396L75.3222 176.752L75.7086 175.69L75.8954 175.174L75.9469 175.026C75.6384 174.554 75.3712 174.057 75.1483 173.539L73.2485 175.284Z" fill="#003366"/>
<path d="M77.1898 172.283C77.4247 172.651 77.6068 173.05 77.7308 173.468L78.0013 173.513L78.3748 173.571L78.9737 173.68L79.5469 173.777L79.7465 173.809C79.7363 172.915 79.4023 172.055 78.8063 171.388L77.1898 172.283Z" fill="#003366"/>
<path opacity="0.2" d="M77.5505 172.347C77.7427 172.718 77.8939 173.109 78.0013 173.513L78.3748 173.571C78.3433 173.522 78.3229 173.466 78.3151 173.408C78.3073 173.351 78.3123 173.292 78.3297 173.236C78.3464 173.185 78.3731 173.138 78.4081 173.098C78.4431 173.057 78.4858 173.024 78.5337 173C78.5816 172.976 78.6337 172.962 78.6871 172.958C78.7406 172.954 78.7942 172.961 78.8449 172.978C78.8955 172.994 78.9425 173.02 78.9829 173.055C79.0234 173.089 79.0566 173.131 79.0806 173.179C79.1046 173.226 79.1189 173.278 79.1226 173.331C79.1264 173.384 79.1196 173.437 79.1025 173.487C79.079 173.563 79.0343 173.63 78.9737 173.68L79.5469 173.777C79.5129 173.019 79.2502 172.289 78.7934 171.684L77.5505 172.347Z" fill="white"/>
<path opacity="0.2" d="M70.9559 179.328L70.8078 181.215C71.7586 180.896 72.763 180.766 73.7638 180.835L74.5108 178.832C73.3029 178.686 72.0776 178.857 70.9559 179.328ZM73.0232 179.174C73.1005 179.147 73.183 179.138 73.2642 179.148C73.3455 179.158 73.4234 179.187 73.4918 179.232C73.5603 179.277 73.6175 179.337 73.659 179.407C73.7006 179.478 73.7254 179.557 73.7315 179.639C73.7376 179.72 73.7249 179.802 73.6943 179.878C73.6638 179.954 73.6162 180.022 73.5552 180.077C73.4942 180.131 73.4215 180.171 73.3426 180.193C73.2638 180.215 73.1809 180.219 73.1004 180.204C73.0231 180.231 72.9406 180.24 72.8594 180.23C72.7781 180.22 72.7002 180.191 72.6318 180.146C72.5634 180.101 72.5061 180.041 72.4646 179.97C72.423 179.9 72.3982 179.821 72.3921 179.739C72.386 179.657 72.3987 179.576 72.4293 179.5C72.4598 179.424 72.5074 179.356 72.5684 179.301C72.6294 179.246 72.7021 179.207 72.781 179.184C72.8598 179.162 72.9427 179.159 73.0232 179.174Z" fill="white"/>
<path opacity="0.2" d="M73.577 175.387C74.0004 176.114 74.5084 176.789 75.0904 177.396L75.3222 176.752C75.1905 176.699 75.0847 176.597 75.027 176.467C74.9693 176.337 74.9643 176.19 75.0131 176.057C75.0536 175.924 75.1421 175.812 75.2613 175.742C75.3805 175.671 75.5217 175.648 75.6571 175.677L75.8438 175.162C75.5166 174.8 75.2512 174.386 75.0582 173.938L73.577 175.387Z" fill="white"/>
<path d="M131.202 133.862L132.194 132.207L134.383 134.28C134.126 134.614 133.801 134.89 133.431 135.09C133.061 135.291 132.652 135.412 132.232 135.446L131.202 133.862Z" fill="#E4897B"/>
<path d="M133.727 129.991L135.279 132.175L134.383 134.28L132.194 132.207L133.727 129.991Z" fill="#E4897B"/>
<path d="M114.065 145.132C115.847 144.766 117.61 144.311 119.346 143.767C121.019 143.27 122.624 142.57 124.125 141.68C124.262 141.594 124.393 141.5 124.517 141.397L124.962 140.985C125.271 140.688 125.606 140.341 125.896 140.031C126.507 139.349 127.138 138.647 127.744 137.926C128.987 136.496 130.197 135.008 131.447 133.559L133.076 134.641C132.181 136.386 131.189 138.048 130.139 139.703C129.605 140.521 129.058 141.345 128.452 142.15C128.15 142.549 127.808 142.955 127.486 143.361C127.319 143.561 127.106 143.767 126.919 143.973C126.689 144.201 126.446 144.416 126.192 144.617C124.482 145.843 122.601 146.811 120.608 147.489C118.703 148.178 116.743 148.702 114.748 149.054L114.065 145.132Z" fill="#DC897C"/>
<path d="M113.235 150.76C115.946 153.111 121.903 149.08 121.903 149.08L119.526 143.213C117.34 143.468 115.184 143.931 113.086 144.597C109.319 145.879 111.161 148.97 113.235 150.76Z" fill="#003366"/>
<path opacity="0.6" d="M113.235 150.76C115.946 153.111 121.903 149.08 121.903 149.08L119.526 143.213C117.34 143.468 115.184 143.931 113.086 144.597C109.319 145.879 111.161 148.97 113.235 150.76Z" fill="#FAFAFA"/>
</svg>
