<svg width="11" height="11" viewBox="0 0 11 11" fill="none" xmlns="http://www.w3.org/2000/svg">
<path d="M5.9007 1.61959C6.63862 1.61959 7.23658 2.21755 7.23658 2.95546C7.23658 3.69338 6.63862 4.29134 5.9007 4.29134C5.16279 4.29134 4.56483 3.69338 4.56483 2.95546C4.56483 2.21755 5.16279 1.61959 5.9007 1.61959ZM5.9007 7.34478C7.79002 7.34478 9.78111 8.27353 9.78111 8.68066V9.3804H2.0203V8.68066C2.0203 8.27353 4.01139 7.34478 5.9007 7.34478ZM5.9007 0.410934C4.49485 0.410934 3.35617 1.54961 3.35617 2.95546C3.35617 4.36132 4.49485 5.49999 5.9007 5.49999C7.30656 5.49999 8.44523 4.36132 8.44523 2.95546C8.44523 1.54961 7.30656 0.410934 5.9007 0.410934ZM5.9007 6.13613C4.20223 6.13613 0.811646 6.98854 0.811646 8.68066V9.95292C0.811646 10.3028 1.09791 10.5891 1.44778 10.5891H10.3536C10.7035 10.5891 10.9898 10.3028 10.9898 9.95292V8.68066C10.9898 6.98854 7.59918 6.13613 5.9007 6.13613Z" fill="#B3B3B3"/>
</svg>
