<svg width="20" height="20" viewBox="0 0 20 20" fill="none" xmlns="http://www.w3.org/2000/svg">
<path fill-rule="evenodd" clip-rule="evenodd" d="M0 10C0 4.47715 4.47715 0 10 0C15.5228 0 20 4.47715 20 10C20 12.8358 18.8187 15.3968 16.9233 17.2159C15.1271 18.9396 12.6867 20 10 20C7.31332 20 4.87286 18.9396 3.07675 17.2159C1.18129 15.3968 0 12.8358 0 10ZM15.6587 16.4824C15.2578 15.283 14.1245 14.4186 12.7907 14.4186H7.2093C5.87547 14.4186 4.74224 15.283 4.34127 16.4824C5.85444 17.8045 7.83314 18.6047 10 18.6047C12.1669 18.6047 14.1456 17.8045 15.6587 16.4824ZM10 2.7907C7.55967 2.7907 5.5814 4.76897 5.5814 7.2093C5.5814 9.64963 7.55967 11.6279 10 11.6279C12.4403 11.6279 14.4186 9.64963 14.4186 7.2093C14.4186 4.76897 12.4403 2.7907 10 2.7907Z" fill="#003366"/>
</svg>
