<svg width="32" height="32" viewBox="0 0 32 32" fill="none" xmlns="http://www.w3.org/2000/svg">
<g clip-path="url(#clip0_70_928)">
<path d="M28.8127 7.98626C28.5353 7.29949 28.1924 6.6201 27.7831 5.96217C26.6863 4.19971 25.2322 2.7583 23.4603 1.67769C21.6472 0.5714 19.6772 0.0963234 17.6053 0.0291585C15.5805 -0.0387096 13.6356 0.275312 11.8197 1.19487C9.49632 2.37078 7.66177 4.12832 6.3677 6.41826C6.07654 6.93413 5.82511 7.46089 5.61236 7.98977C4.44278 8.34951 3.49157 9.20964 3.00594 10.3187C1.32858 10.5329 0.027832 11.9666 0.027832 13.7012V15.1979C0.027832 16.9617 1.37113 18.4168 3.08823 18.5934C3.62449 19.6786 4.61508 20.4972 5.8121 20.8014C5.97139 21.3721 6.1437 21.9347 6.33886 22.4724C7.50915 25.6886 9.77975 28.0721 11.4775 29.5054C12.8964 30.7038 14.0477 31.5762 15.9424 31.8871C16.3763 31.9578 16.7832 31.9915 17.1689 31.9915C18.7492 31.9915 19.9877 31.4282 21.3585 30.5491C24.3123 28.6561 26.6283 25.8971 27.8784 22.7805C28.1326 22.1457 28.3545 21.4864 28.555 20.8197C30.4039 20.385 31.7859 18.7263 31.7859 16.7476V11.9926C31.7859 10.1056 30.5309 8.5081 28.8127 7.98626ZM12.6168 2.77131C14.1655 1.98749 15.8263 1.74169 17.5473 1.79514C19.3112 1.85281 20.9903 2.24103 22.5397 3.18696C24.0739 4.12234 25.3328 5.37035 26.2822 6.8958C26.4683 7.1954 26.6367 7.49887 26.7918 7.80516H7.63258C7.71908 7.63215 7.80911 7.45914 7.90581 7.28718C9.02546 5.30634 10.6107 3.78722 12.6168 2.77131ZM1.79487 15.1979V13.7012C1.79487 13.0795 2.1444 12.544 2.65394 12.2637V16.6354C2.1444 16.3551 1.79487 15.8192 1.79487 15.1979ZM20.4052 29.0619C18.9827 29.9741 17.8947 30.4165 16.2279 30.1436C14.7732 29.9052 13.8933 29.2336 12.6172 28.1554C11.083 26.8606 9.03601 24.7187 7.999 21.8683C7.88858 21.5648 7.78555 21.2522 7.68709 20.935H13.964C14.2098 20.935 14.444 20.8334 14.611 20.6533L17.2175 17.851L19.8267 20.6533C19.9937 20.8334 20.2279 20.935 20.473 20.935H26.6726C26.5379 21.338 26.3937 21.7357 26.2386 22.1232C25.1243 24.9016 23.0524 27.3652 20.4052 29.0619ZM30.0185 16.7479C30.0185 18.0824 28.9326 19.1676 27.5981 19.1676H20.8577L17.8645 15.9525C17.5301 15.5935 16.9048 15.5935 16.5704 15.9525L13.5793 19.1676H6.84137C5.50616 19.1676 4.42097 18.0824 4.42097 16.7479V11.9926C4.42097 10.6581 5.50616 9.57219 6.84137 9.57219H27.5981C28.9326 9.57219 30.0185 10.6581 30.0185 11.9926V16.7479Z" fill="#003366"/>
<path d="M23.8024 11.3688C23.4578 11.0242 22.8979 11.0242 22.553 11.3688L20.1779 13.7453C19.8326 14.0906 19.8326 14.6497 20.1779 14.9954C20.3502 15.1677 20.5764 15.2535 20.8021 15.2535C21.0289 15.2535 21.2547 15.167 21.427 14.9947L23.802 12.6182C24.1477 12.2733 24.1477 11.7138 23.8024 11.3688Z" fill="#003366"/>
<path d="M26.6656 11.4183L22.0119 16.072C21.6666 16.4166 21.6666 16.9758 22.0119 17.3214C22.1842 17.4937 22.4103 17.5802 22.6361 17.5802C22.8629 17.5802 23.0887 17.4937 23.261 17.3214L27.9147 12.6677C28.26 12.3231 28.26 11.7633 27.9147 11.4183C27.5701 11.0726 27.0106 11.0726 26.6656 11.4183Z" fill="#003366"/>
<path d="M10.6512 11.3688C10.3066 11.0242 9.74674 11.0242 9.40178 11.3688L7.02604 13.7453C6.68142 14.0906 6.68142 14.6497 7.02604 14.9954C7.19905 15.1677 7.42516 15.2535 7.65092 15.2535C7.87668 15.2535 8.10279 15.167 8.2758 14.9947L10.6508 12.6182C10.9965 12.2733 10.9965 11.7138 10.6512 11.3688Z" fill="#003366"/>
<path d="M13.5131 11.4183L8.85978 16.072C8.51516 16.4166 8.51516 16.9765 8.85978 17.3214C9.03279 17.4937 9.2589 17.5802 9.48466 17.5802C9.71042 17.5802 9.93653 17.4937 10.1095 17.3214L14.7625 12.6677C15.1072 12.3224 15.1072 11.7633 14.7625 11.4183C14.4176 11.0726 13.8585 11.0726 13.5131 11.4183Z" fill="#003366"/>
<path d="M19.9437 23.2548C17.4903 23.8255 14.625 23.3385 14.5962 23.3332C14.1141 23.2488 13.658 23.5709 13.5743 24.0516C13.4906 24.5316 13.8113 24.9891 14.2913 25.0735C14.3729 25.088 15.6107 25.3003 17.2118 25.3003C18.1816 25.3003 19.284 25.2226 20.3442 24.9761C20.8197 24.8657 21.1154 24.3903 21.005 23.9149C20.8946 23.4394 20.4195 23.1433 19.9437 23.2548Z" fill="#003366"/>
<path d="M16.7659 22.0293C16.9072 22.0293 17.051 21.9948 17.184 21.9235C18.1099 21.4241 18.6022 21.1178 18.6222 21.1048C19.0365 20.8467 19.162 20.302 18.9039 19.8878C18.6451 19.4735 18.1004 19.3473 17.6861 19.6061C17.6819 19.6089 17.2149 19.8994 16.346 20.3678C15.9159 20.5991 15.7559 21.1351 15.9873 21.5648C16.147 21.8612 16.4511 22.0293 16.7659 22.0293Z" fill="#003366"/>
</g>
<defs>
<clipPath id="clip0_70_928">
<rect width="32" height="32" fill="white"/>
</clipPath>
</defs>
</svg>
