<svg width="32" height="32" viewBox="0 0 32 32" fill="none" xmlns="http://www.w3.org/2000/svg">
<g clip-path="url(#clip0_70_996)">
<path d="M23.8 6.33337C23.0666 6.13337 21.4 5.60004 19.4 4.93337L22.1333 1.13337L17.6666 0.333374L11.8666 2.66671C9.79995 2.06671 8.06662 1.60004 7.26662 1.46671C2.06662 0.533374 0.399951 4.33337 0.333284 4.40004L0.199951 4.66671L0.399951 5.00004C0.466618 5.06671 1.26662 7.06671 4.93328 7.73337C2.06662 10.3334 0.399951 14 0.399951 17.9334C0.399951 25.5334 6.59995 31.6667 14.1333 31.6667C21.6666 31.6667 27.8666 25.4667 27.8666 17.9334C27.8666 15.7334 27.3333 13.5334 26.3333 11.6L31.7999 4.06671L27 3.20004L23.8 6.33337ZM17.8 1.73337L19.8 2.06671L18.0666 4.53337C16.7333 4.13337 15.3333 3.66671 13.9333 3.26671L17.8 1.73337ZM7.79995 8.26671L8.59995 9.66671L8.39995 9.60004C8.19995 9.53337 7.99995 9.53337 7.79995 9.46671C7.46662 9.33337 7.19995 9.13337 6.93328 8.93337L6.26662 8.46671C6.39995 8.33337 6.59995 8.20004 6.73328 8.13337L7.79995 8.26671ZM14.4666 9.46671L15.3333 14.7334L12.6666 14.2667L9.46662 8.60004L14.4666 9.46671ZM13.6 18.1334C13.7333 18.6 13.9333 19 14.1333 19.4C14.4 19.9334 14.6666 20.3334 14.6 20.7334C14.5333 21.3334 13.7333 21.7334 13.4 21.8667C13.2 21.9334 12.9333 22.0667 12.7333 22.1334C12.2 22.3334 11.6 22.5334 11.0666 22.9334C10.4 23.4 9.99995 24.0667 9.59995 24.7334C9.53328 24.8 9.46662 24.9334 9.39995 25C9.39995 25 9.33328 25 9.19995 25.0667C8.86662 25.1334 8.46662 25.0667 7.99995 25.0667C7.59995 25.0667 7.13328 25 6.66662 25.0667C6.06662 25.0667 5.33328 25.4667 4.93328 26C4.93328 26.0667 4.86662 26.0667 4.86662 26.1334C4.79995 26.0667 4.73328 26 4.66662 25.9334L6.59995 23.5334C7.66662 22.2 7.33328 21.3334 6.99995 20.9334C6.93328 20.8667 6.79995 20.7334 6.73328 20.6667C6.66662 20.6667 6.66662 20.6 6.59995 20.6C6.53328 20.5334 6.59995 20.1334 6.86662 19.7334C7.26662 19.2 7.79995 18.3334 7.46662 17.4667C7.26662 16.9334 6.79995 16.6 6.39995 16.4C6.19995 16.2667 6.06662 16.2 5.93328 16.0667C5.53328 15.6667 5.66662 14.8 5.86662 13.9334C5.99995 13.3334 6.53328 11.5334 5.33328 10.5334C5.26662 10.4667 5.13328 10.4 5.06662 10.3334C4.93328 10.2667 4.73328 10.0667 4.73328 10C4.73328 10.0667 4.79995 10.1334 4.73328 10.2L4.59995 10C4.79995 9.80004 4.99995 9.53337 5.19995 9.33337L6.06662 10C6.39995 10.2667 6.79995 10.5334 7.26662 10.7334C7.53328 10.8667 7.79995 10.8667 8.06662 10.9334L9.33328 11.2V11.1334L11.8 15.4667L13.7333 15.8C13.6 16.4667 13.4 17.3334 13.6 18.1334ZM3.93328 10.9334C4.06662 11.0667 4.19995 11.2 4.33328 11.2667C4.39995 11.3334 4.46662 11.3334 4.53328 11.4C4.86662 11.7334 4.93328 12.4 4.66662 13.4667C4.46662 14.2667 4.06662 15.8667 4.99995 16.8667C5.19995 17.0667 5.46662 17.2667 5.73328 17.4C5.99995 17.5334 6.19995 17.6667 6.26662 17.8C6.33328 18.0667 6.06662 18.5334 5.79995 18.8667C5.13328 19.8 5.06662 20.7334 5.59995 21.3334C5.66662 21.4 5.79995 21.5334 5.86662 21.6C5.93328 21.6 5.93328 21.6667 5.99995 21.6667C6.06662 21.7334 5.99995 22.0667 5.59995 22.6L3.86662 24.7334C2.53328 22.7334 1.79995 20.4 1.79995 17.8667C1.73328 15.4 2.53328 12.9334 3.93328 10.9334ZM5.86662 27.1334C5.86662 27.0667 5.86662 26.9334 5.99995 26.8C6.19995 26.5334 6.59995 26.3334 6.93328 26.3334C7.26662 26.2667 7.59995 26.3334 7.99995 26.3334C8.46662 26.4 8.99995 26.4 9.46662 26.3334C9.66662 26.3334 9.93328 26.2667 10.1333 26.0667C10.4 25.8667 10.6 25.6 10.7333 25.4C11.0666 24.8 11.4 24.3334 11.8666 24C12.2 23.7334 12.6666 23.6 13.1333 23.4C13.4 23.3334 13.6 23.2 13.8666 23.1334C15 22.6667 15.6666 21.8667 15.8666 21C16 20.1334 15.6 19.4667 15.2666 18.8C15.0666 18.4667 14.9333 18.1334 14.8666 17.8667C14.7333 17.3334 14.8666 16.6667 15 16.0667L16.9333 16.4L15.8 9.73337L23.8 11.2C23.0666 11.3334 22.2666 11.6 21.8666 12.4C21.7999 12.4667 21.7999 12.6 21.7333 12.6667C21.6666 12.7334 21.6666 12.8667 21.6666 12.8667C21.6 13 21.4 13.0667 21.1333 13.2C21 13.2667 20.8666 13.3334 20.7333 13.4C20.3333 13.6667 20 14.0667 19.8666 14.5334C19.8666 14.6667 19.8666 14.7334 19.8666 14.8667C19.7333 15 19.5333 15.0667 19.3333 15.2C19.1333 15.2667 18.9333 15.4 18.7333 15.5334C18 16 17.3333 16.8667 17.6666 17.8C17.8 18.2 18.0666 18.4667 18.2666 18.6667C18.3333 18.8 18.5333 18.9334 18.5333 19C18.5333 19.0667 18.4666 19.2 18.4 19.2667C18.3333 19.4 18.2 19.6 18.1333 19.8C17.7333 20.8 18.3333 21.7334 18.6666 22.2C18.9333 22.6 19.3333 23.1334 19.8666 23.4667C20 23.5334 20.1333 23.6 20.2666 23.6667C20.3333 23.7334 20.4666 23.7334 20.5333 23.8C20.9333 24 21.1333 24.6 21.3333 25.1334L21.4666 25.4C21.7333 26.1334 22.1333 26.7334 22.6666 27.0667C20.4666 29.1334 17.4666 30.4667 14.2 30.4667C11 30.3334 8.06662 29.1334 5.86662 27.1334ZM23.6 25.9334C23.2 25.8667 22.8666 25.3334 22.6666 24.8667L22.6 24.6C22.3333 23.8667 22 23 21.1999 22.5334C21.0666 22.4667 20.9333 22.4 20.8 22.3334C20.7333 22.2667 20.6 22.2667 20.5333 22.2C20.2666 22.0667 20 21.6667 19.8 21.3334C19.5333 20.9334 19.2666 20.4667 19.4 20.2C19.4 20.1334 19.4666 20.0667 19.5333 19.9334C19.6666 19.7334 19.9333 19.4 19.9333 19C19.9333 18.4 19.5333 18 19.2666 17.6667C19.1333 17.5334 19 17.4 18.9333 17.2667C18.8666 17.1334 19.1333 16.8 19.4666 16.6C19.6 16.5334 19.7999 16.4 19.9333 16.3334C20.3333 16.1334 20.8 15.9334 21.1333 15.5334L21.4666 15.1334L21.1999 14.7334C21.1999 14.6667 21.3333 14.6 21.4 14.5334C21.4666 14.4667 21.6 14.4 21.6666 14.4C22 14.2667 22.4 14.0667 22.6666 13.6C22.7999 13.4667 22.8666 13.2667 22.8666 13.1334C22.8666 13.0667 22.9333 13 22.9333 12.9334C23.2 12.4667 23.9333 12.2667 25.1333 12.4C25.9333 14.0667 26.4 15.9334 26.4 17.8C26.5999 21 25.4666 23.8 23.6 25.9334ZM29.6666 5.00004L25.8 10.2L5.13328 6.46671C1.86662 5.80004 2.66662 5.33337 2.06662 4.66671C2.33328 4.26671 2.73328 3.66671 3.53328 3.20004C3.86662 3.73337 4.53328 4.40004 5.59995 4.73337L5.99995 3.46671C5.46662 3.26671 5.06662 3.00004 4.86662 2.73337C5.46662 2.60004 6.19995 2.60004 7.06662 2.80004C9.86662 3.33337 23.5999 7.73337 23.7333 7.73337L24.0666 7.86671L27.3999 4.66671L29.6666 5.00004Z" fill="#003366"/>
</g>
<defs>
<clipPath id="clip0_70_996">
<rect width="32" height="32" fill="white"/>
</clipPath>
</defs>
</svg>
