<svg width="210" height="44" viewBox="0 0 210 44" fill="none" xmlns="http://www.w3.org/2000/svg">
<path d="M63.776 11.624L61.28 11.208V9.224H66.048C66.7733 9.224 67.712 9.18133 68.864 9.096C69.1413 9.07467 69.472 9.05333 69.856 9.032C70.24 9.01067 70.688 9 71.2 9C74.4213 9 76.672 9.45867 77.952 10.376C79.2533 11.272 79.904 12.616 79.904 14.408C79.904 15.9867 79.424 17.3093 78.464 18.376C77.5253 19.4213 76.288 20.0613 74.752 20.296C76.864 20.2747 78.5173 20.7547 79.712 21.736C80.928 22.7173 81.536 24.0827 81.536 25.832C81.536 28.0507 80.7573 29.832 79.2 31.176C77.6427 32.52 75.04 33.192 71.392 33.192C70.432 33.192 69.5467 33.16 68.736 33.096C68.5227 33.096 68.16 33.0747 67.648 33.032C67.136 33.0107 66.6133 33 66.08 33H61.248V31.08L63.776 30.76V11.624ZM68.416 19.592C68.6507 19.6133 69.1307 19.624 69.856 19.624H71.36C72.6613 19.624 73.632 19.2187 74.272 18.408C74.912 17.5973 75.232 16.456 75.232 14.984C75.232 13.576 74.9013 12.552 74.24 11.912C73.5787 11.272 72.48 10.952 70.944 10.952C70.5387 10.952 69.696 10.9947 68.416 11.08V19.592ZM68.416 30.888C68.9067 31.08 69.8453 31.176 71.232 31.176C73.0453 31.176 74.3573 30.7493 75.168 29.896C75.9787 29.0427 76.384 27.8053 76.384 26.184C76.384 24.6267 76.0107 23.5173 75.264 22.856C74.5387 22.1733 73.376 21.832 71.776 21.832C69.984 21.832 68.864 21.8533 68.416 21.896V30.888ZM84.0025 31.112L86.1145 30.856V18.248L84.0665 17.672V15.464L89.0265 14.792H89.1225L89.9225 15.432V16.136L89.8265 18.728H89.9225C90.0718 18.3013 90.4238 17.7787 90.9785 17.16C91.5332 16.52 92.2265 15.9653 93.0585 15.496C93.9118 15.0053 94.8292 14.76 95.8105 14.76C96.2798 14.76 96.6852 14.824 97.0265 14.952V19.752C96.3865 19.304 95.6078 19.08 94.6905 19.08C93.1332 19.08 91.7785 19.496 90.6265 20.328V30.824L94.3385 31.112V33H84.0025V31.112ZM102.873 12.296C102.105 12.296 101.497 12.072 101.049 11.624C100.601 11.176 100.377 10.6 100.377 9.896C100.377 9.08533 100.633 8.41333 101.145 7.88C101.657 7.34667 102.34 7.08 103.193 7.08C104.046 7.08 104.697 7.31466 105.145 7.784C105.593 8.232 105.817 8.79733 105.817 9.48C105.817 10.3333 105.561 11.016 105.049 11.528C104.537 12.04 103.822 12.296 102.905 12.296H102.873ZM101.177 18.248L98.905 17.64V15.496L104.761 14.792H104.825L105.721 15.432V30.824L107.865 31.08V33H98.937V31.08L101.177 30.792V18.248ZM116.847 33.352C115.524 33.352 114.34 33.0427 113.295 32.424C112.249 31.784 111.417 30.8027 110.799 29.48C110.18 28.1573 109.871 26.504 109.871 24.52C109.871 22.728 110.233 21.096 110.959 19.624C111.705 18.1307 112.793 16.9467 114.223 16.072C115.652 15.1973 117.369 14.76 119.375 14.76C120.185 14.76 120.953 14.8453 121.679 15.016V9.608L118.543 9.16V7.4L125.135 6.76H125.231L126.127 7.432V31.048H127.855V32.872C126.319 33.192 125.049 33.352 124.047 33.352C123.364 33.352 122.873 33.2347 122.575 33C122.297 32.7867 122.159 32.3493 122.159 31.688V30.792C121.604 31.5387 120.847 32.1573 119.887 32.648C118.927 33.1173 117.913 33.352 116.847 33.352ZM118.511 30.696C119.215 30.696 119.833 30.5573 120.367 30.28C120.921 29.9813 121.359 29.6293 121.679 29.224V17.576C121.529 17.3627 121.209 17.1813 120.719 17.032C120.249 16.8827 119.737 16.808 119.183 16.808C117.817 16.808 116.719 17.4053 115.887 18.6C115.076 19.7733 114.671 21.6613 114.671 24.264C114.671 26.44 115.023 28.0613 115.727 29.128C116.431 30.1733 117.359 30.696 118.511 30.696ZM137.934 41.64C135.075 41.64 133.006 41.192 131.726 40.296C130.446 39.4 129.806 38.184 129.806 36.648C129.806 35.7733 130.094 34.9413 130.67 34.152C131.267 33.384 131.982 32.808 132.814 32.424C131.833 31.848 131.342 30.9307 131.342 29.672C131.342 28.9467 131.577 28.264 132.046 27.624C132.515 26.9627 133.123 26.4507 133.87 26.088C132.697 25.64 131.822 24.9573 131.246 24.04C130.67 23.1227 130.382 22.0347 130.382 20.776C130.382 19.56 130.734 18.504 131.438 17.608C132.163 16.6907 133.123 15.9867 134.318 15.496C135.534 15.0053 136.846 14.76 138.254 14.76C140.75 14.76 142.606 15.24 143.822 16.2C144.099 15.8373 144.569 15.496 145.23 15.176C145.891 14.856 146.574 14.696 147.278 14.696H148.398V18.184H145.102C145.422 18.8667 145.582 19.592 145.582 20.36C145.603 22.3013 144.921 23.8587 143.534 25.032C142.147 26.184 140.249 26.76 137.838 26.76C136.835 26.76 135.993 26.6853 135.31 26.536C135.097 26.8133 134.926 27.112 134.798 27.432C134.691 27.7307 134.638 27.9973 134.638 28.232C134.638 28.936 134.883 29.416 135.374 29.672C135.886 29.928 136.793 30.056 138.094 30.056H141.518C145.87 30.056 148.046 31.6347 148.046 34.792C148.046 36.1147 147.577 37.2987 146.638 38.344C145.699 39.3893 144.451 40.2 142.894 40.776C141.337 41.352 139.683 41.64 137.934 41.64ZM138.158 24.776C140.142 24.776 141.134 23.4213 141.134 20.712C141.134 19.3253 140.878 18.312 140.366 17.672C139.875 17.0107 139.118 16.68 138.094 16.68C137.091 16.68 136.313 17.0107 135.758 17.672C135.225 18.312 134.958 19.2827 134.958 20.584C134.958 23.3787 136.025 24.776 138.158 24.776ZM138.414 39.432C139.758 39.432 140.921 39.1013 141.902 38.44C142.883 37.8 143.374 36.904 143.374 35.752C143.374 34.8347 143.129 34.1733 142.638 33.768C142.169 33.3627 141.315 33.16 140.078 33.16H136.59C136.057 33.16 135.566 33.128 135.118 33.064C134.542 33.832 134.254 34.7493 134.254 35.816C134.254 36.9893 134.574 37.8853 135.214 38.504C135.854 39.1227 136.921 39.432 138.414 39.432ZM158.16 33.352C155.344 33.352 153.243 32.5307 151.856 30.888C150.491 29.224 149.808 26.9627 149.808 24.104C149.808 22.184 150.16 20.52 150.864 19.112C151.59 17.704 152.603 16.6267 153.904 15.88C155.206 15.1333 156.71 14.76 158.416 14.76C160.55 14.76 162.192 15.3253 163.344 16.456C164.496 17.5653 165.094 19.1547 165.136 21.224C165.136 22.632 165.051 23.6773 164.88 24.36H154.48C154.566 26.3013 155.024 27.816 155.856 28.904C156.688 29.9707 157.872 30.504 159.408 30.504C160.24 30.504 161.094 30.3653 161.968 30.088C162.864 29.8107 163.568 29.48 164.08 29.096L164.88 30.856C164.304 31.4747 163.366 32.0507 162.064 32.584C160.784 33.096 159.483 33.352 158.16 33.352ZM160.656 22.44C160.699 21.8427 160.72 21.384 160.72 21.064C160.72 18.2267 159.771 16.808 157.872 16.808C156.827 16.808 156.016 17.224 155.44 18.056C154.864 18.888 154.544 20.3493 154.48 22.44H160.656ZM171.498 12.296C170.73 12.296 170.122 12.072 169.674 11.624C169.226 11.176 169.002 10.6 169.002 9.896C169.002 9.08533 169.258 8.41333 169.77 7.88C170.282 7.34667 170.965 7.08 171.818 7.08C172.671 7.08 173.322 7.31466 173.77 7.784C174.218 8.232 174.442 8.79733 174.442 9.48C174.442 10.3333 174.186 11.016 173.674 11.528C173.162 12.04 172.447 12.296 171.53 12.296H171.498ZM169.802 18.248L167.53 17.64V15.496L173.386 14.792H173.45L174.346 15.432V30.824L176.49 31.08V33H167.562V31.08L169.802 30.792V18.248ZM180.992 17.704H178.304V15.912L180.992 15.272V13.864C180.992 12.4773 181.354 11.208 182.08 10.056C182.826 8.904 183.818 7.99733 185.056 7.336C186.293 6.65333 187.605 6.312 188.992 6.312C189.717 6.312 190.4 6.41866 191.04 6.632V10.728C190.826 10.5147 190.4 10.3013 189.76 10.088C189.141 9.87467 188.49 9.768 187.808 9.768C186.976 9.768 186.378 9.98133 186.016 10.408C185.674 10.8133 185.504 11.5173 185.504 12.52V15.24H189.568V17.704H185.504V30.824L188.864 31.08V33H178.464V31.08L180.992 30.792V17.704ZM194.694 40.968C194.31 40.968 193.894 40.936 193.446 40.872C193.02 40.808 192.71 40.7333 192.518 40.648V37.224C192.668 37.3093 192.966 37.3947 193.414 37.48C193.862 37.5653 194.268 37.608 194.63 37.608C195.697 37.608 196.572 37.256 197.254 36.552C197.958 35.848 198.609 34.664 199.206 33H197.478L191.462 17.48L190.022 17.064V15.208H198.822V17.064L196.486 17.448L199.334 26.312L200.486 30.088L201.478 26.312L204.102 17.448L202.086 17.064V15.208H209.03V17.064L207.462 17.448C206.289 21.032 205.126 24.488 203.974 27.816C202.822 31.144 202.15 33.0107 201.958 33.416C201.276 35.208 200.625 36.6373 200.006 37.704C199.388 38.7707 198.652 39.5813 197.798 40.136C196.945 40.6907 195.91 40.968 194.694 40.968Z" fill="white"/>
<path d="M16.2824 11.6106V20.2819L12.9215 23.6141L12.6842 23.3789L10.8881 21.6011V11.6106C10.8881 10.4463 11.6389 9.45764 12.6842 9.08839C12.9665 8.99013 13.2699 8.93652 13.5852 8.93652C14.3301 8.93652 15.0029 9.23431 15.4925 9.71969C15.9821 10.2051 16.2824 10.8721 16.2824 11.6106Z" fill="white"/>
<path d="M15.3633 30.8768L16.2824 29.9656V38.3481C16.2824 39.8251 15.075 41.0222 13.5852 41.0222C13.2699 41.0222 12.9665 40.9686 12.6842 40.8673C11.6389 40.501 10.8881 39.5124 10.8881 38.3481V31.2252C11.4107 31.6063 12.0294 31.8297 12.6842 31.8714C12.7623 31.8773 12.8404 31.8803 12.9215 31.8803C13.8435 31.8803 14.7086 31.5259 15.3633 30.8768Z" fill="white"/>
<path d="M12.6842 9.08826V23.3787L10.8881 21.601V11.6105C10.8881 10.4461 11.6389 9.4575 12.6842 9.08826Z" fill="#BBBBBB"/>
<path d="M10.8881 31.2252C11.4107 31.6064 12.0294 31.8297 12.6842 31.8714V40.8673C11.6389 40.5011 10.8881 39.5124 10.8881 38.3481V31.2252Z" fill="#BBBBBB"/>
<path d="M20.8718 25.4154L24.47 21.848V41.3258C24.47 42.8028 23.2626 43.9998 21.7729 43.9998C21.4575 43.9998 21.1541 43.9462 20.8718 43.845C19.8266 43.4787 19.0757 42.4901 19.0757 41.3258V27.1961L20.8718 25.4154Z" fill="white"/>
<path d="M24.47 2.67406V12.4829C24.0886 12.6497 23.7372 12.8879 23.4368 13.1857L19.0757 17.5095V2.67406C19.0757 1.50974 19.8266 0.521114 20.8718 0.151866C21.1541 0.0535988 21.4575 0 21.7729 0C22.5177 0 23.1905 0.297782 23.6801 0.783163C24.1697 1.26855 24.47 1.93557 24.47 2.67406Z" fill="white"/>
<path d="M20.8718 0.1521V15.729L19.0757 17.5097V2.6743C19.0757 1.50998 19.8266 0.521347 20.8718 0.1521Z" fill="#BBBBBB"/>
<path d="M19.0757 27.1964L20.8718 25.4156V43.8453C19.8266 43.479 19.0757 42.4904 19.0757 41.3261V27.1964Z" fill="#BBBBBB"/>
<path d="M32.6607 5.65478V16.5654L32.1952 17.027L28.3236 13.1886C28.0142 12.8819 27.6568 12.6407 27.2664 12.4739V5.65478C27.2664 4.49046 28.0172 3.50183 29.0625 3.13258C29.3448 3.03432 29.6482 2.98071 29.9635 2.98071C30.7084 2.98071 31.3812 3.27849 31.8708 3.76388C32.3604 4.24926 32.6607 4.91629 32.6607 5.65478Z" fill="white"/>
<path d="M32.1952 25.2934C32.3514 25.2934 32.5075 25.2844 32.6607 25.2636V32.3925C32.6607 33.8694 31.4533 35.0665 29.9635 35.0665C29.6482 35.0665 29.3448 35.0129 29.0625 34.9117C28.0172 34.5454 27.2664 33.5568 27.2664 32.3925V21.8272L29.0625 23.605L29.7533 24.2898C30.4051 24.939 31.2731 25.2934 32.1952 25.2934Z" fill="white"/>
<path d="M29.0625 3.13257V13.9211L28.3236 13.1886C28.0142 12.8819 27.6568 12.6407 27.2664 12.4739V5.65477C27.2664 4.49045 28.0172 3.50182 29.0625 3.13257Z" fill="#BBBBBB"/>
<path d="M27.2664 21.8272L29.0625 23.605V34.9117C28.0172 34.5454 27.2664 33.5568 27.2664 32.3925V21.8272Z" fill="#BBBBBB"/>
<path d="M43.9958 11.4653C43.994 11.4039 43.9877 11.3429 43.9772 11.2819C43.9733 11.2589 43.9706 11.236 43.9655 11.2134C43.9486 11.1392 43.927 11.0654 43.897 10.9936C43.8967 10.9927 43.8961 10.9921 43.8958 10.9912C43.8898 10.9775 43.8817 10.965 43.8754 10.9513C43.8483 10.8924 43.8177 10.8361 43.7831 10.7828C43.7693 10.7613 43.754 10.7414 43.7387 10.7205C43.7057 10.6756 43.6705 10.6333 43.6327 10.5931C43.6158 10.5755 43.5999 10.5577 43.5822 10.541C43.5314 10.4927 43.4774 10.4481 43.42 10.4082C43.4134 10.4034 43.4077 10.3977 43.4008 10.3933C43.3368 10.3507 43.2683 10.3153 43.1978 10.284C43.1752 10.2739 43.1518 10.2661 43.1284 10.2572C43.0752 10.2369 43.0208 10.2203 42.965 10.2069C42.9407 10.2009 42.9163 10.1947 42.8914 10.1902C42.8118 10.1756 42.731 10.1658 42.6481 10.1658H36.2563C35.5099 10.1658 34.9047 10.7658 34.9047 11.5058C34.9047 12.2458 35.5099 12.8458 36.2563 12.8458H39.3854L32.1952 19.975L26.8351 14.6608C26.307 14.1373 25.4516 14.1373 24.9236 14.6608L12.9203 26.5613L8.21341 21.895C7.68539 21.3715 6.82998 21.3715 6.30195 21.895L0.395792 27.7506C-0.131931 28.2738 -0.131931 29.1225 0.395792 29.6454C0.659803 29.9071 1.00551 30.0378 1.35152 30.0378C1.69753 30.0378 2.04324 29.9071 2.30725 29.6454L7.25768 24.7376L11.9645 29.4039C12.4926 29.9274 13.348 29.9274 13.876 29.4039L25.8793 17.5034L31.2395 22.8176C31.7672 23.3411 32.6229 23.3411 33.1509 22.8176L41.2968 14.7415V17.5546C41.2968 18.2946 41.902 18.8946 42.6484 18.8946C43.3948 18.8946 44 18.2946 44 17.5546V11.5064C44 11.4924 43.9964 11.4793 43.9958 11.4653Z" fill="white"/>
</svg>
